<svg width="128" height="128" xmlns="http://www.w3.org/2000/svg">
  <radialGradient id="a" cx="44.9711" cy="56.6804" gradientTransform="matrix(1.0131 -.00624 -.00624 1.003 .5425 -.2582)" gradientUnits="userSpaceOnUse" r="71.7534">
    <stop offset="0" stop-color="#22b511"/>
    <stop offset=".9902" stop-color="#45590e"/>
  </radialGradient>
  <path d="M5.91 99.28c5.9 12.4 16.29 11.88 27.29 11.34 5.07-.25 10.82-.54 17.33.16 28.17 3.04 52.63-5.69 65.43-23.35 9.25-12.75 10.68-28.2 3.92-42.39-6.75-14.19-19.65-22.82-35.37-23.69-21.77-1.2-43.97 12.27-59.38 36.05-3.56 5.5-7.41 9.78-10.8 13.55C6.96 79.15.01 86.89 5.91 99.28z" fill="url(#a)"/>
  <path d="M81.81 24.3c.84 0 1.69.02 2.52.07 14.59.8 26.55 8.81 32.81 21.97 6.26 13.16 4.94 27.49-3.64 39.32-10.45 14.42-29.45 22.69-52.11 22.69-3.45 0-7-.19-10.55-.58-2.86-.31-5.8-.46-8.99-.46-3.16 0-6.03.14-8.82.28-2.25.11-4.38.22-6.46.22-8.19 0-14.05-1.64-17.95-9.83-5.03-10.58.69-16.94 7.93-25 3.47-3.86 7.4-8.23 11.09-13.93C41.76 37.29 62 24.3 81.81 24.3m0-3.02c-20.9 0-41.91 13.33-56.69 36.12-3.56 5.5-7.41 9.78-10.8 13.55C6.96 79.15.01 86.89 5.91 99.28c4.7 9.87 12.25 11.56 20.68 11.56 2.16 0 4.37-.11 6.61-.22 2.69-.13 5.58-.28 8.66-.28 2.73 0 5.61.11 8.66.44 3.69.4 7.32.59 10.87.59 23.52 0 43.44-8.6 54.56-23.94 9.25-12.75 10.68-28.2 3.92-42.39-6.75-14.19-19.65-22.82-35.37-23.69-.9-.05-1.79-.07-2.69-.07z" fill="#424242" opacity=".2"/>
  <linearGradient id="b" gradientUnits="userSpaceOnUse" x1="46.9083" x2="97.2417" y1="7.1899" y2="119.8565">
    <stop offset="0" stop-color="#5db111"/>
    <stop offset=".9902" stop-color="#45590e"/>
  </linearGradient>
  <path d="M48.19 5.86c-12.66 5.32-12.68 15.58-12.71 26.45-.01 5.01-.02 10.69-1.06 17.07-4.48 27.65 2.95 52.11 19.88 65.43 12.23 9.62 27.55 11.65 42.03 5.56 14.48-6.09 23.75-18.45 25.43-33.92 2.32-21.41-9.95-43.83-32.84-59.97-5.29-3.73-9.36-7.69-12.95-11.19C68.19 7.7 60.84.54 48.19 5.86z" fill="url(#b)"/>
  <path d="M56.5 7.02c6.69 0 11.64 4.82 17.38 10.41 3.67 3.57 7.82 7.62 13.31 11.49 21.98 15.5 33.79 36.88 31.59 57.2-1.56 14.35-10.16 25.83-23.61 31.48-5.08 2.14-10.29 3.22-15.49 3.22-8.43 0-16.57-2.9-23.53-8.37C40.1 99.82 33.08 76.42 37.38 49.86c1.07-6.62 1.09-12.42 1.1-17.55.02-10.69.04-19.14 10.87-23.69 2.57-1.07 4.91-1.6 7.15-1.6m0-3c-2.52 0-5.26.56-8.32 1.84-12.66 5.32-12.68 15.58-12.71 26.45-.01 5.01-.02 10.69-1.06 17.07-4.48 27.65 2.95 52.11 19.88 65.43 7.58 5.97 16.36 9.02 25.38 9.02 5.53 0 11.15-1.14 16.65-3.45 14.48-6.09 23.75-18.45 25.43-33.92 2.32-21.41-9.95-43.83-32.84-59.97-5.29-3.73-9.36-7.69-12.95-11.19C70.07 9.53 64.42 4.02 56.5 4.02z" fill="#424242" opacity=".2"/>
  <radialGradient id="c" cx="72.1412" cy="66.3888" gradientTransform="matrix(.9351 -.3543 .4556 1.2025 -25.5662 12.1141)" gradientUnits="userSpaceOnUse" r="56.532">
    <stop offset="0" stop-color="#fff9c4"/>
    <stop offset=".1454" stop-color="#fcf7bd"/>
    <stop offset=".3507" stop-color="#f3f0ab"/>
    <stop offset=".5917" stop-color="#e4e58d"/>
    <stop offset=".8579" stop-color="#cfd663"/>
    <stop offset=".9311" stop-color="#c9d156"/>
    <stop offset=".9902" stop-color="#c9d13b"/>
  </radialGradient>
  <path d="M49.73 9.52c-10.62 4.46-10.28 13.92-9.93 23.93.16 4.61.35 9.85-.31 15.7-2.87 25.32 4.32 48.11 19.24 60.98 10.77 9.29 23.92 11.69 36.07 6.58 12.15-5.11 19.63-16.18 20.53-30.38 1.24-19.65-10.02-40.74-30.11-56.4-4.65-3.62-8.25-7.41-11.44-10.76-6.91-7.26-13.43-14.11-24.05-9.65z" fill="url(#c)"/>
  <path d="M94.59 64.63C88.94 55 74.75 44.57 66.16 47.92c-8.15 3.17-12.29 16.26-9.93 27.18 3.14 14.58 17.73 24.1 28.5 19.98 10.71-4.25 17.41-17.59 9.86-30.45z" fill="#ccc465"/>
  <radialGradient id="d" cx="70.3333" cy="66.6667" gradientUnits="userSpaceOnUse" r="27.1006">
    <stop offset=".0295" stop-color="#b37f58"/>
    <stop offset=".9951" stop-color="#7e3600"/>
  </radialGradient>
  <path d="M92.45 64.39C86.89 55.97 73.59 47.24 66 50.67c-7.2 3.25-10.31 15.26-7.67 25C61.86 88.68 75.48 96.56 85 92.33c9.47-4.34 14.88-16.69 7.45-27.94z" fill="url(#d)"/>
</svg>
