<svg width="24" height="24" viewBox="0 0 1 1" preserveAspectRatio="xMidYMid" xmlns="http://www.w3.org/2000/svg">
  <defs>
    <linearGradient id="a" x1="0%" y1="0%" x2="0%" y2="100%">
      <stop offset="0%" stop-color="#f9aa4b"/>
      <stop offset="100%" stop-color="#f7931a"/>
    </linearGradient>
  </defs>
  <path d="M63.036 39.741c-4.274 17.143-21.637 27.576-38.782 23.301C7.116 58.768-3.317 41.404.959 24.262 5.23 7.117 22.594-3.317 39.734.957c17.144 4.274 27.576 21.64 23.302 38.784z" fill="url(#a)" transform="scale(.01563)"/>
  <path d="M.72.429C.73.362.68.326.61.303l.023-.09L.578.198.556.287a2.295 2.295 0 0 0-.044-.01l.022-.09L.48.175l-.022.09A1.835 1.835 0 0 1 .422.256L.346.236l-.014.06.04.01c.022.005.026.02.025.031L.335.584C.333.591.325.601.31.597L.27.587.243.65l.072.018.039.01L.33.769l.055.014.022-.09.044.011-.022.09.054.013.023-.09c.094.017.164.01.194-.075C.725.574.699.535.65.51.685.501.712.477.72.43zM.595.605C.578.673.463.635.426.627l.03-.121c.037.01.157.027.139.099zM.612.428C.596.49.501.458.47.45L.497.34c.031.008.131.022.115.087z" fill="#fff"/>
</svg>
