<svg xmlns="http://www.w3.org/2000/svg" width="286" height="58" fill="none">
  <g clip-path="url(#a)" style="display:inline" transform="matrix(0.94205587,0,0,0.94205587,1.9763918,-1.4789241)">
    <g clip-path="url(#b)">
      <mask id="c" width="65" height="59" x="0" y="3" maskUnits="userSpaceOnUse">
        <path fill="#ffffff" d="M 64.641,3.591 H 0 v 57.46 H 64.641 V 3.59 Z"/>
      </mask>
      <g mask="url(#c)">
        <path fill="#140ea8" d="m 26.353,6.904 c 1.758,-3.07 5.654,-4.123 8.7,-2.35 3.046,1.773 4.09,5.7 2.33,8.77 L 11.91,57.804 c -1.758,3.07 -5.653,4.122 -8.7,2.349 -3.045,-1.773 -4.09,-5.7 -2.33,-8.77 z"/>
        <path fill="#a1a6f3" fill-rule="evenodd" d="m 49.259,25.728 a 6.62,6.62 0 0 0 -5.778,-3.344 6.62,6.62 0 0 0 -5.774,3.344 L 23.25,50.97 c -1.831,3.198 -0.744,7.287 2.428,9.134 3.172,1.846 7.229,0.75 9.06,-2.448 a 6.25,6.25 0 0 1 5.42,-3.154 h 6.649 a 6.25,6.25 0 0 1 5.42,3.154 c 1.832,3.198 5.888,4.294 9.06,2.448 3.173,-1.847 4.26,-5.936 2.428,-9.134 L 49.26,25.728 Z" clip-rule="evenodd"/>
        <path fill="#5a66e9" d="m 37.73,25.688 c 1.831,-3.198 5.888,-4.293 9.06,-2.447 3.172,1.846 4.26,5.936 2.428,9.134 l -14.48,25.281 c -1.831,3.198 -5.888,4.294 -9.06,2.448 -3.172,-1.847 -4.26,-5.936 -2.428,-9.134 z"/>
      </g>
    </g>
  </g>
  <g fill="#1c1e25" transform="matrix(0.94205587,0,0,0.94205587,1.9763918,-1.4789241)">
    <path d="M 294.513,55.045 A 4.626,4.626 0 0 1 289.887,50.42 V 29.16 a 4.6255,4.6255 0 1 1 9.251,0 v 21.26 a 4.625,4.625 0 0 1 -4.625,4.625 z m -16.974,0 a 4.453,4.453 0 0 1 -4.453,-4.453 V 36.314 c 0,-1.57 -0.441,-2.72 -1.322,-3.448 -0.842,-0.766 -2.03,-1.149 -3.562,-1.149 -1.494,0 -2.835,0.287 -4.022,0.862 -0.11,0.051 -0.219,0.106 -0.328,0.163 -1.892,1.004 -4.308,1.275 -5.846,-0.215 -1.475,-1.429 -1.523,-3.82 0.15,-5.01 a 20.693,20.693 0 0 1 3.496,-2.005 c 2.375,-1.073 4.96,-1.61 7.757,-1.61 2.566,0 4.788,0.384 6.665,1.15 1.877,0.766 3.332,1.934 4.367,3.505 1.034,1.57 1.551,3.562 1.551,5.976 v 16.06 a 4.453,4.453 0 0 1 -4.453,4.452 z m -12.382,0.575 c -1.916,0 -3.659,-0.383 -5.229,-1.15 -1.532,-0.765 -2.758,-1.819 -3.678,-3.16 -0.881,-1.378 -1.321,-2.987 -1.321,-4.826 0,-1.57 0.287,-2.95 0.862,-4.137 a 7.45,7.45 0 0 1 2.528,-2.93 c 1.149,-0.805 2.566,-1.399 4.252,-1.782 1.724,-0.421 3.716,-0.632 5.976,-0.632 h 6.079 a 2.902,2.902 0 0 1 0,5.804 h -5.85 c -0.804,0 -1.513,0.076 -2.125,0.23 -0.613,0.114 -1.131,0.325 -1.552,0.632 a 2.979,2.979 0 0 0 -0.977,0.976 c -0.191,0.383 -0.287,0.843 -0.287,1.38 0,0.574 0.153,1.072 0.46,1.493 0.306,0.422 0.708,0.747 1.206,0.977 0.537,0.23 1.149,0.345 1.839,0.345 0.996,0 1.934,-0.153 2.815,-0.46 a 7.621,7.621 0 0 0 2.414,-1.436 c 0.822,-0.693 2.332,-0.561 2.722,0.441 l 0.313,0.806 a 1.55,1.55 0 0 1 -0.152,1.45 14.852,14.852 0 0 1 -2.481,2.761 13.378,13.378 0 0 1 -3.677,2.356 10.14,10.14 0 0 1 -4.137,0.862 z m -45.479,0 c -3.142,0 -5.957,-0.67 -8.447,-2.011 -2.49,-1.38 -4.443,-3.256 -5.861,-5.631 -1.417,-2.413 -2.126,-5.133 -2.126,-8.16 0,-3.102 0.709,-5.84 2.126,-8.216 1.418,-2.413 3.371,-4.29 5.861,-5.63 2.49,-1.38 5.305,-2.07 8.447,-2.07 3.179,0 5.994,0.69 8.446,2.07 2.49,1.34 4.444,3.217 5.861,5.63 1.417,2.375 2.126,5.114 2.126,8.217 0,3.026 -0.709,5.746 -2.126,8.159 -1.417,2.375 -3.371,4.252 -5.861,5.631 -2.452,1.34 -5.267,2.011 -8.446,2.011 z m 0,-7.93 c 1.379,0 2.585,-0.344 3.619,-1.034 1.073,-0.69 1.916,-1.628 2.529,-2.815 0.613,-1.188 0.9,-2.528 0.862,-4.022 0.038,-1.57 -0.249,-2.95 -0.862,-4.137 -0.613,-1.226 -1.456,-2.165 -2.529,-2.816 -1.034,-0.69 -2.24,-1.034 -3.619,-1.034 -1.341,0 -2.548,0.345 -3.62,1.034 -1.073,0.69 -1.916,1.628 -2.529,2.816 -0.612,1.187 -0.919,2.566 -0.919,4.137 0,1.494 0.307,2.834 0.919,4.022 0.613,1.187 1.456,2.126 2.529,2.815 1.072,0.69 2.279,1.035 3.62,1.035 z m -32.471,7.93 c -2.912,0 -5.516,-0.46 -7.815,-1.379 a 16.398,16.398 0 0 1 -2.651,-1.388 c -1.777,-1.16 -1.569,-3.63 0.042,-5.011 1.537,-1.317 3.802,-1.145 5.597,-0.21 0.372,0.194 0.756,0.367 1.149,0.518 1.494,0.537 2.912,0.805 4.252,0.805 a 4.61,4.61 0 0 0 1.322,-0.173 3.31,3.31 0 0 0 0.977,-0.46 c 0.306,-0.23 0.536,-0.478 0.689,-0.746 0.153,-0.307 0.23,-0.651 0.23,-1.035 0,-0.766 -0.326,-1.34 -0.977,-1.723 -0.306,-0.192 -0.862,-0.422 -1.666,-0.69 -0.805,-0.306 -1.839,-0.613 -3.103,-0.92 -1.8,-0.459 -3.371,-1.014 -4.712,-1.665 -1.302,-0.652 -2.375,-1.399 -3.217,-2.241 a 8.246,8.246 0 0 1 -1.781,-2.643 c -0.384,-0.996 -0.575,-2.107 -0.575,-3.333 0,-1.877 0.555,-3.524 1.666,-4.942 1.149,-1.417 2.643,-2.509 4.482,-3.275 1.839,-0.804 3.831,-1.206 5.976,-1.206 1.685,0 3.275,0.191 4.769,0.574 1.532,0.383 2.949,0.92 4.252,1.61 0.245,0.125 0.485,0.256 0.72,0.39 1.698,0.977 1.795,3.25 0.489,4.71 l -0.609,0.68 c -1.044,1.167 -2.858,1.195 -4.22,0.425 a 13.831,13.831 0 0 0 -2.643,-1.264 c -0.881,-0.345 -1.705,-0.517 -2.471,-0.517 -0.575,0 -1.092,0.057 -1.551,0.172 -0.422,0.076 -0.786,0.23 -1.092,0.46 a 2,2 0 0 0 -0.632,0.747 c -0.153,0.268 -0.23,0.574 -0.23,0.919 0,0.421 0.096,0.804 0.287,1.149 0.23,0.306 0.537,0.594 0.92,0.862 0.344,0.191 0.938,0.44 1.781,0.747 0.881,0.306 2.03,0.651 3.447,1.034 1.801,0.498 3.333,1.073 4.597,1.724 1.303,0.613 2.337,1.34 3.103,2.183 a 5.445,5.445 0 0 1 1.379,2.299 c 0.306,0.842 0.46,1.762 0.46,2.758 0,1.953 -0.556,3.696 -1.667,5.229 -1.072,1.493 -2.566,2.68 -4.481,3.562 -1.877,0.843 -4.042,1.264 -6.493,1.264 z m -44.918,-0.575 a 1.896,1.896 0 0 1 -1.896,-1.896 V 29.052 a 4.517,4.517 0 0 1 4.517,-4.517 h 0.792 a 3.68,3.68 0 0 1 3.675,3.476 l 0.121,2.185 a 0.735,0.735 0 0 1 -0.482,0.73 c -0.569,0.208 -1.109,-0.32 -0.838,-0.862 a 9.576,9.576 0 0 1 1.695,-2.369 c 1.111,-1.15 2.433,-2.069 3.965,-2.758 a 11.63,11.63 0 0 1 4.827,-1.034 c 2.298,0 4.232,0.479 5.803,1.436 1.571,0.92 2.739,2.318 3.505,4.195 0.804,1.838 1.207,4.118 1.207,6.837 V 50.42 a 4.626,4.626 0 0 1 -9.251,0 V 37.06 c 0,-1.225 -0.173,-2.24 -0.517,-3.044 -0.345,-0.805 -0.862,-1.399 -1.552,-1.782 -0.689,-0.383 -1.551,-0.555 -2.585,-0.517 -0.805,0 -1.552,0.134 -2.241,0.402 a 4.99,4.99 0 0 0 -1.839,1.092 c -0.498,0.46 -0.881,0.996 -1.149,1.609 -0.268,0.613 -0.402,1.302 -0.402,2.068 v 13.503 a 4.654,4.654 0 0 1 -4.655,4.654 z m -21.083,0.575 c -3.371,0 -6.32,-0.67 -8.848,-2.011 -2.49,-1.34 -4.425,-3.18 -5.804,-5.516 -1.34,-2.375 -2.011,-5.076 -2.011,-8.102 0,-2.375 0.383,-4.54 1.149,-6.493 0.767,-1.992 1.839,-3.696 3.218,-5.113 a 14.853,14.853 0 0 1 4.942,-3.276 c 1.915,-0.804 4.003,-1.206 6.263,-1.206 2.145,0 4.098,0.383 5.86,1.149 a 13.837,13.837 0 0 1 4.597,3.218 c 1.303,1.379 2.298,3.007 2.988,4.884 0.69,1.877 1.015,3.926 0.977,6.148 a 2.587,2.587 0 0 1 -2.586,2.528 h -19.705 a 2.615,2.615 0 0 1 0,-5.229 h 14.024 a 0.294,0.294 0 1 1 -0.295,0.294 v -0.409 c -0.076,-0.957 -0.383,-1.781 -0.919,-2.47 -0.498,-0.728 -1.168,-1.303 -2.011,-1.724 -0.804,-0.422 -1.724,-0.632 -2.758,-0.632 -1.532,0 -2.835,0.306 -3.907,0.919 -1.034,0.575 -1.82,1.417 -2.356,2.528 -0.536,1.111 -0.804,2.49 -0.804,4.137 0,1.647 0.344,3.103 1.034,4.367 0.728,1.264 1.762,2.241 3.103,2.93 1.379,0.69 3.007,1.035 4.884,1.035 1.264,0 2.413,-0.192 3.447,-0.575 1.983,-0.734 4.351,-0.514 5.572,1.212 l 0.05,0.07 c 1.142,1.614 0.872,3.872 -0.834,4.869 -0.308,0.18 -0.621,0.351 -0.938,0.514 a 18.3,18.3 0 0 1 -4.137,1.437 17.233,17.233 0 0 1 -4.195,0.517 z M 94.405,55.045 A 4.625,4.625 0 0 1 89.779,50.42 V 17.15 a 4.6255,4.6255 0 0 1 9.251,0 v 33.27 a 4.625,4.625 0 0 1 -4.625,4.625 z"/>
    <circle cx="294.5" cy="13.5" r="4.5"/>
    <circle cx="245.5" cy="50.5" r="4.5"/>
  </g>
  <defs>
    <clipPath id="a">
      <path fill="#ffffff" d="M 0,0 H 64.641 V 64.641 H 0 Z"/>
    </clipPath>
    <clipPath id="b">
      <path fill="#ffffff" d="M 0,0 H 64.641 V 57.459 H 0 Z" transform="translate(0,3.591)"/>
    </clipPath>
  </defs>
</svg>
