<svg width="48" height="48" viewBox="0 0 192 192" xmlns="http://www.w3.org/2000/svg">
  <g fill="#000000">
    <path d="M61.978 93.771c0-18.423 14.935-33.367 33.347-33.367 18.465 0 33.413 14.944 33.413 33.367 0 18.455-14.948 33.46-33.413 33.46-18.412 0-33.347-15.004-33.347-33.46"/>
    <path d="M164.721 56.069c-5.054-2.287-5.738-9.112-5.772-9.164l-.013-.272-.036-.249c-3.366-15.968-15.503-20.437-21.419-20.563H54.634c-6.04.127-18.127 4.595-21.553 20.565l-.025.208-.006.314s-.725 6.877-6.02 9.253C11.387 62.272 8 70.599 8 76.53v69.967c0 10.861 8.84 19.683 19.689 19.683h136.696c10.793 0 19.615-8.823 19.615-19.683V76.53c.002-5.931-3.385-14.258-19.279-20.461m10.169 90.428c0 5.882-4.733 10.638-10.505 10.638h-16.693c-4.204-8.753-16.502-19.785-23.608-19.785H67.605c-7.092 0-19.383 11.032-23.587 19.785H27.689c-5.87 0-10.59-4.756-10.59-10.638V76.53c0-5.621 7.283-9.623 13.465-12.009 9.435-4.259 11.18-14.204 11.454-16.344 2.695-12.519 11.758-13.28 12.729-13.348h82.618c.895.068 9.931.829 12.628 13.348.238 2.127 1.981 12.045 11.263 16.257 6.352 2.474 13.635 6.477 13.635 12.098v69.965z"/>
  </g>
</svg>
