<svg width="48" height="48" viewBox="0 0 192 192" xmlns="http://www.w3.org/2000/svg">
  <g fill="#323248">
    <path d="M8 8h176v176H8V8zm114.529 70.646c-1.91.092-3.823.206-5.737.273-9.709.338-19.406.818-29.057 2.024-10.045 1.255-19.376 4.42-27.802 10.101-5.45 3.675-9.709 8.36-12.127 14.551-1.928 4.935-2.604 10.091-2.491 15.365.121 5.672 1.016 11.187 3.416 16.381 3.551 7.685 9.683 12.504 17.403 15.49 7.703 2.98 15.717 3.717 23.88 2.963 12.237-1.131 22.835-5.919 31.693-14.477.848-.819 1.68-1.656 2.612-2.575.175.694.336 1.301.48 1.912.669 2.851 1.261 5.723 2.034 8.546.332 1.214.934 2.39 1.597 3.47.817 1.332 2.074 2.141 3.688 2.262 3.234.242 6.318-.554 9.339-1.525 3.164-1.016 4.037-2.63 3.319-5.873-1.817-8.211-2.528-16.519-2.501-24.922.059-17.873.024-35.747.008-53.621-.002-1.769-.062-3.546-.231-5.305-1.073-11.129-6.349-19.671-15.941-25.444-7.298-4.393-15.388-6.08-23.775-6.606-6.826-.428-13.618.018-20.377.97-6.557.924-12.937 2.557-19.05 5.134-2.847 1.2-5.634 2.54-8.017 4.553-2.406 2.033-2.928 4.131-1.715 7.034 1.104 2.641 2.734 4.972 4.593 7.136.39.454.918.803 1.425 1.137.798.526 1.648.582 2.523.148.848-.42 1.726-.783 2.559-1.228 8.098-4.326 16.684-7.036 25.843-7.898 5.805-.547 11.587-.677 17.319.628 3.282.748 6.36 1.966 9.016 4.09 4.081 3.262 5.848 7.68 6.059 12.741.168 4.026.07 8.063.087 12.095.003.118-.034.237-.072.47z"/>
    <path d="M86.944 139.132c-3.233.016-6.414-.344-9.484-1.372-5.148-1.724-8.581-5.192-10.075-10.417-1.649-5.768-1.531-11.47 1.144-16.967 1.589-3.263 4.141-5.637 7.143-7.568 4.629-2.978 9.791-4.511 15.142-5.497 7.452-1.373 14.995-1.565 22.543-1.663 2.841-.037 5.683-.03 8.523-.088.706-.014.871.239.867.902-.06 8.523-.104 17.046-.122 25.569-.001.673-.192 1.121-.701 1.564-4.802 4.187-9.8 8.087-15.537 10.948-6.125 3.054-12.631 4.469-19.443 4.589z"/>
  </g>
</svg>
