<svg width="48" height="48" viewBox="0 0 192 192" xmlns="http://www.w3.org/2000/svg">
  <path d="M54.958,73.683c1.046,14.96-7.062,27.718-18.116,28.493 c-11.051,0.775-20.86-10.724-21.906-25.686c-1.045-14.96,7.062-27.717,18.117-28.495C44.104,47.222,53.914,58.722,54.958,73.683z M131.081,11.665c-10.739-2.741-22.439,6.823-26.133,21.356c-3.705,14.533,2.001,28.535,12.739,31.275 c10.735,2.737,22.441-6.822,26.135-21.357C148.633,24.023,133.653,12.318,131.081,11.665z M156.254,60.653 c-11.294,0.17-20.256,10.91-20.008,27.552c0.246,16.637,9.589,24.223,20.894,24.055c11.289-0.168,20.254-8.023,20.01-24.668 C176.824,65.935,158.958,60.613,156.254,60.653z M74.421,8C63.674,8,54.962,20.047,54.962,34.9s8.712,26.896,19.459,26.896 c10.748,0,19.462-12.043,19.462-26.896S85.169,8,74.421,8z M71.934,91.543c-6.209,8.914-13.249,17.619-26.912,29.024 c-13.666,11.405-19.462,19.278-19.462,30.888c0,11.607,6.626,30.887,25.465,30.887c18.841,0,27.949-4.148,42.856-4.148 c14.907,0,24.848,5.805,43.685,5.805c18.841,0,26.709-17.829,26.709-29.436c0-11.607-3.269-18.18-18.364-31.43 c-9.671-8.498-17.867-15.419-30.704-33.248c-6.348-8.815-13.666-9.95-21.324-9.95C86.221,79.936,78.147,82.63,71.934,91.543z" fill="#3500DA"/>
</svg>
