<svg width="48" height="48" viewBox="0 0 192 192" xmlns="http://www.w3.org/2000/svg">
  <g transform="translate(121.212121, 90.909091)" fill="#3388FF">
    <path d="M-46.082-28.519c10.601,0,19.167-12.163,19.167-27.203 c0-15.027-8.566-27.187-19.167-27.187c-10.588,0-19.177,12.16-19.177,27.187C-65.259-40.682-56.67-28.519-46.082-28.519"/>
    <path d="M-0.426-26.72c14.175,1.831,23.286-13.244,25.097-24.67 c1.847-11.406-7.297-24.666-17.327-26.944c-10.056-2.297-22.608,13.755-23.75,24.223 C-17.772-41.317-14.566-28.539-0.426-26.72"/>
    <path d="M-81.714,9.834c19.193-4.113,16.583-26.98,16.009-31.983 c-0.945-7.708-10.036-21.172-22.384-20.11c-15.535,1.388-17.804,23.76-17.804,23.76 C-107.996-8.154-100.865,13.946-81.714,9.834"/>
    <path d="M55.749-7.536c0-5.462-4.551-21.926-21.446-21.926 c-16.927,0-19.187,15.535-19.187,26.517c0,10.484,0.886,25.116,21.907,24.65C58.051,21.246,55.749-2.039,55.749-7.536"/>
    <path d="M-61.332,49.611c-0.562,1.608-1.818,5.721-0.734,9.303 c2.149,8.031,9.147,8.394,9.147,8.394h10.049V42.81h-10.767C-58.472,44.25-60.809,48-61.332,49.611"/>
    <path d="M15.1,76.986h-28.713c-11.124-2.86-11.653-10.74-11.653-10.74V34.588 l11.653-0.188v28.456c0.711,3.029,4.492,3.579,4.492,3.579H2.713V34.588H15.1V76.986z M-31.375,77.158h-24.948 c-10.776-2.139-15.068-9.474-15.613-10.723c-0.536-1.268-3.583-7.161-1.967-17.182c4.658-15.024,17.94-16.105,17.94-16.105 h13.282V16.875l11.306,0.171V77.158z M34.302,40.448c0,0-21.926-16.91-34.728-35.186 C-17.772-21.686-42.421-10.72-50.663,2.983c-8.206,13.704-20.998,22.372-22.822,24.666 c-1.837,2.262-26.477,15.519-21.008,39.742c5.469,24.21,24.679,23.741,24.679,23.741s14.159,1.391,30.589-2.275 c16.424-3.631,30.577,0.906,30.577,0.906s38.38,12.814,48.877-11.856C50.723,53.242,34.302,40.448,34.302,40.448 L34.302,40.448z"/>
  </g>
</svg>
