<svg width="48" height="48" viewBox="0 0 192 192" xmlns="http://www.w3.org/2000/svg">
  <linearGradient id="a" gradientUnits="userSpaceOnUse" x1="55.7284" y1="155.5388" x2="70.7399" y2="146.8719" gradientTransform="matrix(5.5556 0 0 -5.5556 -210 958.6666)">
    <stop offset="0" stop-color="#37BDFF"/>
    <stop offset="0.1832" stop-color="#33BFFD"/>
    <stop offset="0.3576" stop-color="#28C5F5"/>
    <stop offset="0.528" stop-color="#15D0E9"/>
    <stop offset="0.5468" stop-color="#12D1E7"/>
    <stop offset="0.5903" stop-color="#1CD2E5"/>
    <stop offset="0.7679" stop-color="#42D8DC"/>
    <stop offset="0.9107" stop-color="#59DBD6"/>
    <stop offset="1" stop-color="#62DCD4"/>
  </linearGradient>
  <path d="M155.963,120.988c0,1.745-0.095,3.483-0.282,5.196 c-1.129,10.435-5.647,19.877-12.448,27.177c0.854-0.953,1.628-1.973,2.306-3.069c0.521-0.832,0.986-1.698,1.379-2.603 c0.143-0.297,0.271-0.605,0.378-0.913c0.132-0.297,0.238-0.609,0.334-0.917c0.106-0.282,0.202-0.583,0.286-0.88 c0.081-0.308,0.165-0.616,0.235-0.924c0.015-0.037,0.026-0.073,0.037-0.11c0.073-0.308,0.128-0.616,0.191-0.924 c0.059-0.323,0.121-0.645,0.165-0.964c0-0.011,0-0.011,0-0.022c0.048-0.297,0.084-0.594,0.11-0.906 c0.07-0.7,0.106-1.401,0.106-2.116c0-4.015-1.107-7.788-3.043-10.996c-0.44-0.748-0.928-1.459-1.463-2.138 c-0.627-0.81-1.305-1.569-2.042-2.27c-1.83-1.771-3.971-3.223-6.336-4.246c-1.023-0.451-2.09-0.818-3.186-1.093 c-0.011,0-0.033-0.015-0.048-0.015l-0.378-0.128l-5.54-1.903v-0.011l-14.491-4.983c-0.048-0.011-0.106-0.011-0.143-0.022 l-0.906-0.334c-2.911-1.14-5.324-3.278-6.835-6.002L99.06,91.38l-6.065-15.455l-1.166-2.985l-0.297-0.609 c-0.33-0.807-0.513-1.687-0.513-2.603c0-0.235,0-0.473,0.026-0.689c0.345-3.399,3.234-6.065,6.728-6.065 c0.928,0,1.819,0.191,2.629,0.535l27.005,13.849l5.324,2.721c2.82,1.679,5.445,3.652,7.847,5.874 c8.701,7.99,14.41,19.188,15.264,31.709C155.915,118.766,155.963,119.87,155.963,120.988L155.963,120.988z" fill="url(#a)"/>
  <linearGradient id="b" gradientUnits="userSpaceOnUse" x1="46.4623" y1="145.3685" x2="68.3095" y2="145.3685" gradientTransform="matrix(5.5556 0 0 -5.5556 -210 958.6666)">
    <stop offset="0" stop-color="#39D2FF"/>
    <stop offset="0.1501" stop-color="#38CEFE"/>
    <stop offset="0.2931" stop-color="#35C3FA"/>
    <stop offset="0.4327" stop-color="#2FB0F3"/>
    <stop offset="0.5468" stop-color="#299AEB"/>
    <stop offset="0.5827" stop-color="#2692EC"/>
    <stop offset="0.7635" stop-color="#1A6CF1"/>
    <stop offset="0.909" stop-color="#1355F4"/>
    <stop offset="1" stop-color="#104CF5"/>
  </linearGradient>
  <path d="M148.747,139.014c0,1.379-0.128,2.71-0.37,4.008c-0.07,0.345-0.139,0.689-0.224,1.034 c-0.154,0.616-0.319,1.21-0.521,1.804c-0.11,0.312-0.216,0.62-0.334,0.917c-0.121,0.308-0.249,0.605-0.378,0.913 c-0.396,0.906-0.858,1.771-1.382,2.603c-0.675,1.096-1.452,2.116-2.306,3.069c-3.934,4.352-17.299,12.111-22.224,15.264 l-10.93,6.681c-8.012,4.939-15.587,8.43-25.135,8.668c-0.451,0.015-0.891,0.026-1.331,0.026c-0.616,0-1.225-0.011-1.83-0.033 c-16.17-0.62-30.268-9.299-38.401-22.125c-3.718-5.863-6.182-12.591-7.014-19.818c1.749,9.878,10.358,17.369,20.735,17.369 c3.641,0,7.051-0.917,10.036-2.534c0.022-0.015,0.048-0.026,0.073-0.037l1.067-0.642l4.352-2.567l5.54-3.282v-0.154l0.715-0.429 l49.566-29.363l3.813-2.259l0.381,0.128c0.011,0,0.033,0.015,0.048,0.015c1.093,0.271,2.163,0.642,3.183,1.093 c2.369,1.023,4.506,2.475,6.336,4.246c0.737,0.7,1.415,1.463,2.046,2.27c0.535,0.678,1.023,1.393,1.459,2.138 C147.639,131.226,148.747,134.995,148.747,139.014L148.747,139.014z" fill="url(#b)"/>
  <linearGradient id="c" gradientUnits="userSpaceOnUse" x1="48.08" y1="139.8044" x2="48.08" y2="169.0177" gradientTransform="matrix(5.5556 0 0 -5.5556 -210 958.6666)">
    <stop offset="0" stop-color="#1B48EF"/>
    <stop offset="0.1221" stop-color="#1C51F0"/>
    <stop offset="0.3212" stop-color="#1E69F5"/>
    <stop offset="0.5676" stop-color="#2190FB"/>
    <stop offset="1" stop-color="#26B8F4"/>
  </linearGradient>
  <path d="M78.185,41.015l-0.018,109.314l-5.54,3.282l-4.356,2.567l-1.071,0.649 c-0.018,0-0.048,0.018-0.066,0.033c-2.988,1.61-6.398,2.534-10.039,2.534c-10.38,0-18.975-7.487-20.731-17.369 c-0.084-0.455-0.147-0.924-0.198-1.379c-0.062-0.865-0.11-1.709-0.128-2.57V15.051c0-3.883,3.153-7.051,7.051-7.051 c1.459,0,2.827,0.455,3.949,1.203l21.556,14.084c0.117,0.099,0.242,0.183,0.378,0.26C74.544,27.353,78.185,33.751,78.185,41.015 L78.185,41.015z" fill="url(#c)"/>
  <linearGradient id="d" gradientUnits="userSpaceOnUse" x1="47.5642" y1="139.5736" x2="61.0465" y2="153.0558" gradientTransform="matrix(5.5556 0 0 -5.5556 -210 958.6666)">
    <stop offset="0" stop-color="#FFFFFF"/>
    <stop offset="0.3726" stop-color="#FDFDFD"/>
    <stop offset="0.5069" stop-color="#F6F6F6"/>
    <stop offset="0.6026" stop-color="#EBEBEB"/>
    <stop offset="0.68" stop-color="#DADADA"/>
    <stop offset="0.7463" stop-color="#C4C4C4"/>
    <stop offset="0.805" stop-color="#A8A8A8"/>
    <stop offset="0.8581" stop-color="#888888"/>
    <stop offset="0.9069" stop-color="#626262"/>
    <stop offset="0.9523" stop-color="#373737"/>
    <stop offset="0.9926" stop-color="#090909"/>
    <stop offset="1" stop-color="#000000"/>
  </linearGradient>
  <path d="M148.747,139.014c0,1.379-0.128,2.71-0.37,4.008 c-0.07,0.345-0.139,0.689-0.224,1.034c-0.154,0.616-0.319,1.21-0.521,1.804c-0.11,0.312-0.216,0.62-0.334,0.917 c-0.121,0.308-0.249,0.605-0.378,0.913c-0.396,0.906-0.858,1.771-1.382,2.603c-0.675,1.096-1.448,2.116-2.306,3.069 c-3.934,4.352-17.299,12.111-22.224,15.264l-10.93,6.681c-8.012,4.939-15.587,8.43-25.135,8.668 c-0.451,0.015-0.891,0.026-1.331,0.026c-0.616,0-1.225-0.011-1.83-0.033c-16.17-0.62-30.268-9.299-38.401-22.125 c-3.718-5.863-6.182-12.591-7.014-19.818c1.749,9.878,10.358,17.369,20.735,17.369c3.641,0,7.051-0.917,10.036-2.534 c0.022-0.015,0.048-0.026,0.073-0.037l1.067-0.642l4.352-2.567l5.54-3.282v-0.154l0.715-0.429l49.566-29.363l3.813-2.259 l0.381,0.128c0.011,0,0.033,0.015,0.048,0.015c1.093,0.271,2.163,0.642,3.183,1.093c2.369,1.023,4.506,2.475,6.336,4.246 c0.737,0.7,1.415,1.463,2.046,2.27c0.535,0.678,1.023,1.393,1.459,2.138C147.639,131.226,148.747,134.995,148.747,139.014 L148.747,139.014z" fill="url(#d)" fill-opacity="0.15"/>
  <linearGradient id="e" gradientUnits="userSpaceOnUse" x1="48.08" y1="169.536" x2="48.08" y2="140.1051" gradientTransform="matrix(5.5556 0 0 -5.5556 -210 958.6666)">
    <stop offset="0" stop-color="#FFFFFF"/>
    <stop offset="0.3726" stop-color="#FDFDFD"/>
    <stop offset="0.5069" stop-color="#F6F6F6"/>
    <stop offset="0.6026" stop-color="#EBEBEB"/>
    <stop offset="0.68" stop-color="#DADADA"/>
    <stop offset="0.7463" stop-color="#C4C4C4"/>
    <stop offset="0.805" stop-color="#A8A8A8"/>
    <stop offset="0.8581" stop-color="#888888"/>
    <stop offset="0.9069" stop-color="#626262"/>
    <stop offset="0.9523" stop-color="#373737"/>
    <stop offset="0.9926" stop-color="#090909"/>
    <stop offset="1" stop-color="#000000"/>
  </linearGradient>
  <path d="M78.185,41.015l-0.018,109.314l-5.54,3.282l-4.356,2.567l-1.071,0.649 c-0.018,0-0.048,0.018-0.066,0.033c-2.988,1.61-6.398,2.534-10.039,2.534c-10.38,0-18.975-7.487-20.731-17.369 c-0.084-0.455-0.147-0.924-0.198-1.379c-0.062-0.865-0.11-1.709-0.128-2.57V15.051c0-3.883,3.153-7.051,7.051-7.051 c1.459,0,2.827,0.455,3.949,1.203l21.556,14.084c0.117,0.099,0.242,0.183,0.378,0.26C74.544,27.353,78.185,33.751,78.185,41.015 L78.185,41.015z" fill="url(#e)" fill-opacity="0.1"/>
</svg>
