<svg width="48" height="48" viewBox="0 0 192 192" xmlns="http://www.w3.org/2000/svg">
  <path d="M108.505 81.421c-12.111 0-21.922 9.843-21.922 21.956s9.812 21.956 21.922 21.956c12.073 0 21.885-9.847 21.885-21.956s-9.812-21.956-21.885-21.956zm12.836 33.546c-3.328 4.035-8.285 6.37-13.515 6.368-9.697 0-17.524-7.851-17.524-17.582-.007-5.239 2.321-10.209 6.349-13.558l.313-.23-.782 1.054c-1.935 2.903-2.965 6.316-2.958 9.805 0 9.726 7.827 17.582 17.524 17.582 3.481.005 6.884-1.029 9.774-2.969l1.054-.785-.235.315z" fill="#9fbe3b"/>
  <path d="M108.401 66.633c-20.272 0-36.753 16.451-36.753 36.736s16.48 36.782 36.753 36.782 36.603-16.492 36.603-36.782-16.33-36.736-36.603-36.736zm0 66.295c-16.369 0-29.692-13.331-29.692-29.711s13.324-29.674 29.692-29.674 29.654 13.295 29.654 29.674-13.29 29.711-29.654 29.711z" fill="#9fbe3b"/>
  <path d="M159.236 68.257h-6.15c-2.096 0-3.802 1.7-3.802 3.85v4.114c0 2.147 1.706 3.896 3.802 3.896h6.15c2.093 0 3.802-1.748 3.802-3.896v-4.114c0-2.15-1.71-3.85-3.802-3.85z" fill="#9fbe3b"/>
  <path d="M171.796 51.341C156.594 25.465 127.322 8.052 95.391 8.052 47.233 8.052 8 47.461 8 96.023s39.233 87.925 87.391 87.925c23.202 0 45.635-9.063 61.274-23.993 14.5-.444 26.747-7.076 27.335-25.376V70.36c0-8.462-5.024-15.725-12.204-19.019zm2.622 83.296c0 10-7.268 15.119-17.183 15.119H59.381c-11.31 0-17.241-2.305-17.241-14.17V73.95c0-11.814 6.233-17.069 17.543-17.069h21.336s6.585-11.169 6.651-11.195c.666-1.033 2.379-3.502 6.624-3.502h24.18c4.371 0 5.967 1.97 6.818 3.502.154.276 6.933 11.195 6.933 11.195h25.127c11.265 0 17.069 5.254 17.069 17.069v60.687z" fill="#9fbe3b"/>
</svg>
