<svg width="48" height="48" viewBox="0 0 192 192" xmlns="http://www.w3.org/2000/svg">
  <path d="M165.892 45.791C132.309-3.758 60.188 5.05 28.256 41.937 12.29 60.105 6.234 85.43 8.437 108.553c2.202 18.168 8.809 34.684 18.168 45.695 24.774 30.28 67.717 33.583 95.795 14.314 39.639-27.527 36.886-72.121 15.415-96.896-38.538-44.043-104.603-.551-79.829 49.549 6.056 12.112 19.82 18.718 32.482 18.718 17.617 0 31.381-20.921 23.123-33.583-8.258-13.213-22.572 0-16.516 9.91 4.955 7.708-5.505 12.112-9.91 11.011-11.561-2.753-17.067-18.718-13.213-31.932 3.303-11.561 15.415-19.269 26.977-18.718 15.966 1.101 33.583 13.764 31.932 41.291-3.854 44.594-62.211 52.852-85.334 20.921-36.336-51.201 6.607-120.018 72.121-99.098 33.583 11.011 58.358 50.65 42.942 93.042-6.056 15.966-9.359 22.022-9.91 27.527-2.754 20.37 61.66-42.943 13.212-114.513z" fill="#6ba843"/>
</svg>
