<svg width="48" height="48" viewBox="0 0 192 192" xmlns="http://www.w3.org/2000/svg">
  <path d="M8,60.8v70.4h176V60.8H8z" fill="#0058a3"/>
  <path d="M11.41,96.66c0,17.05,35.42,31.24,84.48,31.24s84.48-14.19,84.48-31.24S145.06,65.42,96,65.42 S11.41,79.61,11.41,96.66z" fill="#ffdb00"/>
  <path d="M141.32,108.87h-13.09c0.55-0.66,0.99-1.43,1.21-2.2l7.81-21.34v-0.11 c0.33-0.66,0.44-1.43,0.44-2.2h22.11c-0.11,0.66,0,1.21,0.33,1.76c0,0.11,0.11,0.22,0.11,0.44c0.66,1.54,7.7,19.69,8.25,21.34 c0.22,0.77,0.66,1.54,1.21,2.2h-16.5c0-0.77-0.11-1.54-0.55-2.2c0,0-0.22-0.66-0.66-1.43l-0.11-0.33h-9.57l-0.11,0.44 c0,0-0.33,0.77-0.55,1.43l-0.11,0.22C141.43,107.44,141.32,108.21,141.32,108.87z M147.04,91.71c-0.11,0.55-0.22,1.1-0.44,1.65 c0,0.11-0.33,0.88-0.66,1.98c-0.44,1.1-0.88,2.53-1.43,4.07h5.5l-2.31-5.94C147.37,92.81,147.15,92.26,147.04,91.71z M67.51,108.87H51.67c0.33-0.66,0.44-1.43,0.33-2.2V85.33c0.11-0.77-0.11-1.54-0.33-2.2h15.84c-0.33,0.66-0.44,1.43-0.33,2.2v9.35 c0,0,5.06-6.49,6.27-8.03c0.44-0.55,1.98-2.64,1.98-3.52h16.5c-1.32,0.99-2.42,2.09-3.41,3.3c-0.88,1.1-6.05,7.26-6.05,7.26 s7.59,11.33,8.58,12.98c0.55,0.77,1.21,1.54,1.87,2.2H73.78c-0.22-1.21-0.77-2.42-1.54-3.41c-0.77-1.1-4.73-7.04-5.17-7.7v9.02 C67.07,107.33,67.18,108.1,67.51,108.87z M126.25,108.87H95.56c0.33-0.66,0.44-1.43,0.33-2.2V85.33c0.11-0.77-0.11-1.54-0.33-2.2 h30.58v7.15c-0.66-0.33-1.43-0.44-2.2-0.33h-12.87v3.41h12.43v5.5h-12.43v3.41h12.87c0.77,0.11,1.54-0.11,2.2-0.33L126.25,108.87z M44.08,108.87H26.92c0.33-0.66,0.44-1.43,0.33-2.2V85.33c0.11-0.77-0.11-1.54-0.33-2.2h17.27c-0.33,0.66-0.44,1.43-0.33,2.2 v21.34C43.64,107.33,43.86,108.1,44.08,108.87z M166.73,88.63c-0.99,0-1.87-0.44-2.53-1.1c-0.66-0.66-0.99-1.54-0.88-2.42 c0-0.11,0-0.11,0-0.22c0-1.76,1.54-3.19,3.3-3.19h0.11h0.11c1.87,0,3.3,1.54,3.3,3.41v0.22c0,0.88-0.44,1.76-0.99,2.31 C168.49,88.19,167.61,88.63,166.73,88.63z M166.51,82.36c-0.66,0-1.32,0.33-1.87,0.88c-0.44,0.55-0.77,1.21-0.66,1.87v0.22 c0,1.43,1.21,2.64,2.75,2.64h0.11c0.77,0,1.43-0.33,1.98-0.88c0.55-0.55,0.77-1.21,0.77-1.98V85c0-1.43-1.21-2.64-2.75-2.64 H166.51z M166.07,87.09h-0.66v-4.07h1.54c0.77,0,1.32,0.55,1.32,1.32c0,0.55-0.33,0.99-0.77,1.21l0.88,1.54h-0.66l-0.77-1.43 h-0.88V87.09z M166.07,83.68v1.43h0.88c0.33,0,0.66-0.33,0.66-0.66c0-0.44-0.33-0.77-0.66-0.77H166.07z" fill="#0058a3"/>
</svg>
