<svg width="48" height="48" viewBox="0 0 192 192" xmlns="http://www.w3.org/2000/svg">
  <path d="M135.978,113.139c1.969,0.027,3.587-1.546,3.614-3.515c0.027-1.969-1.546-3.587-3.515-3.614 c-1.969-0.027-3.587,1.546-3.614,3.515c0,0.003,0,0.006,0,0.009l0,0C132.441,111.499,134.013,113.111,135.978,113.139z"/>
  <path d="M183.69,146.431h-0.15c-4.993-0.08-5.922-1.598-5.922-9.437v-5.462c0-6.85-3.235-12.153-10.475-12.153 c-5.143,0-8.788,3.335-10.984,5.991l0,0c-0.033,0.037-0.08,0.059-0.13,0.06c-0.08,0-0.09-0.05-0.09-0.14l0,0c0,0,0-4.783,0-5.292 l0,0c-0.036-0.097-0.126-0.164-0.23-0.17h-0.06l-9.986,1.738c-0.14,0.032-0.239,0.156-0.24,0.3v1.438c0,0.165,0.134,0.3,0.3,0.3 h0.06c3.914,0.32,4.753,2.137,4.753,9.307v3.994c0,7.2-0.829,9.067-4.813,9.377l0,0c-0.165,0-0.3,0.134-0.3,0.3l0,0v1.158 c0.005,0.163,0.136,0.294,0.3,0.3h15.568c0.165,0,0.3-0.134,0.3-0.3v-1.098c0-0.165-0.134-0.3-0.3-0.3h-0.08 c-4.653-0.06-5.273-1.348-5.273-9.437v-5.163c0-4.444,4.843-8.438,9.287-8.438c4.843,0,6.691,3.395,6.691,8.638v5.043 c0,6.85,0,9.377-4.993,9.437l0,0c-0.163,0.005-0.294,0.136-0.3,0.3v1.098c0,0.165,0.134,0.3,0.3,0.3H183.7 c0.16,0.006,0.294-0.119,0.3-0.279c0-0.007,0-0.014,0-0.02v-1.088c0.006-0.16-0.119-0.294-0.279-0.3c-0.007,0-0.014,0-0.02,0 H183.69z"/>
  <path d="M142.479,146.252c-3.146-0.539-3.795-2.646-3.795-9.267v-16.816l0,0c0-0.138-0.112-0.25-0.25-0.25l0,0l-9.556,1.668 c-0.154,0.015-0.27,0.145-0.27,0.3v1.528c-0.006,0.16,0.12,0.294,0.279,0.299c0.003,0,0.007,0,0.01,0l0,0 c3.635,0.369,4.424,2.257,4.424,9.287v3.994c0,6.99-0.789,8.987-4.424,9.357l0,0c-0.162,0.005-0.29,0.138-0.29,0.3l0,0v1.188 c0.005,0.16,0.13,0.289,0.29,0.3h13.571c0.16,0,0.29-0.129,0.29-0.289c0-0.003,0-0.007,0-0.01l0,0v-1.278 c0.011-0.16-0.109-0.298-0.269-0.309C142.486,146.252,142.482,146.252,142.479,146.252z"/>
  <path d="M125.713,145.383c-0.064-0.146-0.233-0.213-0.379-0.15l0,0l-0.35,0.16l0,0c-0.288,0.16-0.61,0.249-0.939,0.26 c-1.208,0-1.857-1.128-1.857-3.146v-12.163c0-7.669-3.225-11.284-11.054-11.284c-5.163,0-10.245,2.586-10.245,6.461 c-0.092,1.536,1.078,2.856,2.614,2.948c1.536,0.092,2.856-1.078,2.948-2.614c0.007-0.111,0.007-0.222,0-0.333l0,0 c0-2.586,2.746-3.894,4.583-3.875c4.234,0,5.412,1.887,5.412,7.839l0,0c-0.002,0.076-0.056,0.142-0.13,0.16l0,0 c-9.137,1.618-17.056,5.412-17.056,12.223c0,4.284,3.305,6.78,7.26,6.78c3.166,0,5.992-1.248,9.866-4.643 c0.065-0.06,0.165-0.06,0.23,0c0.006,0.033,0.006,0.067,0,0.1c0.489,2.736,2.397,4.384,5.442,4.384 c1.495-0.044,2.938-0.558,4.124-1.468l0,0c0.113-0.082,0.151-0.234,0.09-0.359L125.713,145.383z M116.456,140.889 L116.456,140.889c0,0.045-0.018,0.088-0.05,0.12l0,0c-3.685,3.275-5.612,3.994-7.3,3.994c-2.107-0.01-3.806-1.726-3.796-3.833 c0-0.094,0.004-0.188,0.012-0.281c0-3.525,3.415-6.86,10.984-8.638l0,0c0.092,0.005,0.165,0.078,0.17,0.17l0,0L116.456,140.889z"/>
  <path d="M97.443,99.568H86.648c-0.123,0-0.234,0.075-0.28,0.19l-16.786,38.735l0,0c-0.021,0.073-0.085,0.124-0.16,0.13 c-0.073-0.01-0.135-0.06-0.16-0.13l0,0L52.387,99.748l0,0c-0.045-0.109-0.152-0.18-0.27-0.18H39.695 c-0.16-0.006-0.294,0.119-0.3,0.279c0,0.007,0,0.014,0,0.02l0,0v1.118c0,0.165,0.134,0.3,0.3,0.3l0,0h0.06 c5.642,0.19,6.501,1.767,6.501,9.347v26.243c0,7.579-1.208,9.367-6.541,9.427l0,0c-0.165,0-0.3,0.134-0.3,0.3c0,0,0,0,0,0l0,0 v1.098c-0.006,0.16,0.119,0.294,0.279,0.3c0.007,0,0.014,0,0.02,0h15.977c0.16,0.006,0.294-0.119,0.3-0.279 c0-0.007,0-0.014,0-0.02l0,0v-1.118c0-0.165-0.134-0.3-0.3-0.3l0,0h-0.379c-5.173-0.27-6.041-2.077-6.041-9.397v-27.91l0,0 c0.005-0.09,0.08-0.16,0.17-0.16c0.068,0,0.13,0.039,0.16,0.1l17.515,38.945c0.052,0.102,0.155,0.167,0.27,0.17h0.649 c0.118,0.001,0.225-0.07,0.27-0.18l0,0l16.387-36.588c0.032-0.053,0.088-0.086,0.15-0.09c0.09,0,0.164,0.07,0.17,0.16l0,0v25.514 c0,7.439-0.829,9.167-6.191,9.417l0,0c-0.165,0-0.3,0.134-0.3,0.3c0,0,0,0,0,0l0,0v1.138c0,0.165,0.134,0.3,0.3,0.3l0,0h18.673 c0.165,0,0.3-0.134,0.3-0.3c0,0,0,0,0,0v-1.128c0-0.165-0.134-0.3-0.3-0.3l0,0l0,0c-5.243-0.27-6.051-2.087-6.051-9.397v-26.243 c0-7.33,0.809-9.067,6.041-9.317l0,0c0.167-0.005,0.3-0.142,0.3-0.31v-1.138c0-0.165-0.134-0.3-0.3-0.3l0,0H97.443z"/>
  <g>
    <path d="M111.903,76.515l-3.835-2.087c-3.505-1.907-4.873-2.946-4.873-4.843s1.358-3.435,4.074-3.435s5.992,1.558,6.451,4.943 l0,0c0,0.16,0.13,0.29,0.29,0.29l0,0h1.098c0.16,0.006,0.294-0.12,0.299-0.279c0-0.003,0-0.007,0-0.01l0,0v-7.22 c0.006-0.16-0.12-0.294-0.279-0.299c-0.003,0-0.007,0-0.01,0h-1.098c-0.16,0-0.29,0.129-0.29,0.289c0,0.003,0,0.007,0,0.01l0,0 v0.09c-0.09,3.495-1.388-0.379-7.18-0.379c-4.164,0-8.148,2.946-8.148,7.26c0,2.556,1.438,5.912,5.352,7.989l4.394,2.387 c2.786,1.438,4.464,2.886,4.464,4.873c-0.085,2.337-2.048,4.163-4.385,4.078c-0.026-0.001-0.053-0.002-0.079-0.004 c-5.352,0-8.518-4.094-8.748-6.611v-0.469c0-0.16-0.13-0.29-0.29-0.29l0,0h-0.999c-0.16-0.006-0.294,0.12-0.299,0.279 c0,0.003,0,0.007,0,0.01l0,0v9.497c-0.006,0.16,0.119,0.294,0.279,0.3c0.007,0,0.014,0,0.02,0h0.999 c0.162,0,0.294-0.128,0.3-0.29l0,0v-0.14l0,0c0.15-4.993,3.166,0.419,8.538,0.419c5.183,0,9.497-3.435,9.497-8.698 C117.415,81.308,115.418,78.512,111.903,76.515z"/>
    <path d="M88.456,76.515l-3.835-2.087c-3.505-1.907-4.873-2.946-4.873-4.843s1.358-3.435,4.074-3.435 c2.716,0,5.992,1.558,6.461,4.943l0,0c-0.006,0.154,0.115,0.284,0.269,0.289c0.003,0,0.007,0,0.01,0h1.108 c0.16,0,0.29-0.13,0.29-0.29v0l0,0v-7.22c0-0.162-0.128-0.294-0.29-0.3h-1.088c-0.165,0-0.3,0.134-0.3,0.3l0,0l0,0v0.09 c-0.08,3.495-1.398-0.379-7.18-0.379c-4.174,0-8.148,2.946-8.148,7.26c0,2.556,1.438,5.912,5.352,7.989l4.394,2.387 c2.796,1.438,4.464,2.886,4.464,4.873c-0.091,2.342-2.063,4.167-4.405,4.077c-0.02-0.001-0.039-0.002-0.059-0.003 c-5.352,0-8.518-4.094-8.748-6.611v-0.469c0-0.16-0.129-0.29-0.289-0.29c-0.003,0-0.007,0-0.01,0h-0.999 c-0.162,0-0.294,0.128-0.3,0.29l0,0v9.497c0.005,0.167,0.142,0.3,0.31,0.3h0.999c0.16,0.006,0.294-0.119,0.3-0.279 c0-0.007,0-0.014,0-0.02l0,0v-0.13l0,0c0.16-4.993,3.175,0.419,8.538,0.419c5.193,0,9.497-3.435,9.497-8.698 C93.958,81.308,91.951,78.512,88.456,76.515z"/>
    <path d="M54.534,63.583c-8.857,0-16.127,6.541-16.127,14.609s7.27,14.689,16.127,14.689s16.127-6.641,16.127-14.689 S63.401,63.583,54.534,63.583z M54.534,89.756c-6.551,0-9.646-5.183-9.646-11.574c0-6.391,3.116-11.574,9.656-11.574 s9.666,5.173,9.666,11.584C64.21,84.603,61.165,89.756,54.534,89.756z"/>
    <path d="M41.363,45.639c0.163-0.005,0.294-0.136,0.3-0.3l0,0v-1.098c0-0.165-0.134-0.3-0.3-0.3h-21.19 c-0.16-0.006-0.294,0.119-0.3,0.279c0,0.007,0,0.014,0,0.02v1.108c-0.006,0.154,0.115,0.284,0.269,0.29c0.007,0,0.014,0,0.02,0 h0.599c5.892,0.06,6.77,0.839,6.77,8.508v33.952c0,7.749-2.147,13.321-7.669,13.321c-4.194,0-6.291-2.816-6.291-5.243 c0.011-1.5-1.196-2.725-2.696-2.736c0,0,0,0,0,0l0,0c-1.509-0.077-2.795,1.083-2.873,2.592C8.002,96.068,8,96.102,8,96.137v0.08 c0,4.993,7.11,7.669,11.863,7.669c6.99,0,14.12-5.093,14.12-16.626V54.147c0-7.819,0.909-8.478,7.06-8.508H41.363z"/>
    <path d="M166.895,53.278c-2.407,0-4.803,1.668-4.803,3.994c-0.105,1.546,1.062,2.885,2.609,2.99 c0.036,0.002,0.072,0.004,0.108,0.005c1.071,0.072,2.057-0.583,2.407-1.598c0.479-1.049,0.24-3.126,1.768-3.126 c0.949,0,1.518,1.358,1.518,2.806c0,2.556-2.407,4.803-5.532,6.161c-5.521,2.378-10.897,5.083-16.097,8.099 c-3.285,2.077-5.302,4.583-5.302,9.986c0,0.439,0,0.879,0.07,1.308v0.18c0,0.17,0.17,0.23,0.33,0.2l0.719-0.15 c0.113-0.014,0.201-0.106,0.21-0.22l0,0c0.22-2.176,1.37-4.15,3.156-5.412c3.005-2.128,6.22-3.942,9.596-5.412h0.06 c0.058-0.001,0.111,0.03,0.14,0.08c1.349,2.19,2.023,4.729,1.937,7.3c0,7.13-5.872,12.522-14.44,12.522 c-7.689,0-13.541-4.993-13.541-13.441c0-7.589,5.063-13.061,10.984-13.151l3.215-0.06c1.787,0,1.997-0.999,1.927-1.478 c0-0.669-0.649-1.358-2.187-1.348c-0.619,0-4.753,0.529-6.8-4.424c-0.53-1.34-0.788-2.773-0.759-4.214 c-0.089-4.555,3.531-8.319,8.085-8.408c0.001,0,0.002,0,0.003,0h0.1c0.428,0,0.855,0.03,1.278,0.09 c1.757,0.27,3.725,1.458,4.993,5.832c0.589,1.378,2.237,0.929,2.796,0.669c0.9-0.474,1.3-1.549,0.929-2.496 c-0.39-1.157-1.079-2.191-1.997-2.996c-0.931-0.973-2.014-1.789-3.205-2.417c-1.989-1.188-4.264-1.809-6.581-1.797 c-5.532,0-11.384,3.285-11.384,10.335c0,5.932,3.924,8.418,5.832,9.616c0,0,0.07,0,0.07,0.09 c-0.004,0.037-0.033,0.066-0.07,0.07l0,0c-4.723,0.419-13.541,5.532-13.541,16.107c0,10.895,9.137,17.076,18.743,17.076 c9.377,0,17.865-6.251,17.865-16.107c-0.086-2.932-0.881-5.8-2.317-8.358l0,0c-0.001-0.058,0.03-0.111,0.08-0.14 c4.434-2.297,12.372-4.913,12.372-12.522C172.257,55.425,169.77,53.278,166.895,53.278z"/>
  </g>
</svg>
