<svg width="256" height="256" viewBox="0 0 256 256" xmlns="http://www.w3.org/2000/svg">
  <path d="M10.66649933 128.00000187V10.66649947h234.6670012V245.3335004H10.66649933z" fill="#fdfdfd"/>
  <path d="M10.66649933 128.00000187V10.66649947h234.6670012V245.3335004H10.66649933zm197.07149548 89.93677241c2.44343994-.57591598 4.28906656-1.62784662 6.2095465-3.5391559 1.9137333-1.90458796 2.9433066-3.63510658 3.54593325-5.96000786.48198666-1.85943595.48194666-4.93428654-.00009333-6.7417625-.86581331-3.24656391-.51793332-2.85465192-18.83795953-21.22212347l-17.0343329-17.07845957 1.74010662-2.5153226c11.73085304-16.95683691 16.44573292-37.02968308 13.482773-57.40081857-3.37451992-23.20079942-17.45323957-44.2403189-37.79183906-56.47687859-9.73199976-5.85517318-19.67479951-9.25759976-31.96879654-10.93971972-2.94129592-.40244-15.39206228-.40244-18.33335954 0-10.27623974 1.40603996-18.85131286 4.00393323-27.04170599 8.1925198-30.61699923 15.6575996-47.67753747 48.7364921-42.71893626 82.82828326 3.37452524 23.20080875 17.45324356 44.24033222 37.79184705 56.47688792 8.35881312 5.02900787 17.70563822 8.53355312 27.15628865 10.18211708 5.41377854.9443733 6.88526783 1.0554733 13.97918632 1.0554733 7.09391982 0 8.56540779-.11110666 13.97918765-1.0554733 10.06372908-1.75550663 20.09578217-5.64534653 28.70551528-11.13030106.85206665-.54282932 1.61927996-.9869613 1.70490663-.9869613.08573333 0 7.8963198 7.71590513 17.35706623 17.1464609 15.8053596 15.75491694 17.33423957 17.21487023 18.8387462 17.98945288 2.88471993 1.48518396 6.15626651 1.90166929 9.23591977 1.1757893zm-5.7170532-.21676132c-.81926664-.184792-2.26063994-.71612665-3.20303991-1.18073464-1.6282533-.80275065-2.57111994-1.6946693-18.96129286-17.93677289-9.48630643-9.4006051-17.24886624-17.21389956-17.25010624-17.36285823-.00086667-.148968.90005331-.92182797 2.00293328-1.71746662 4.87195988-3.51477325 10.12739975-8.40963312 14.10442632-13.136713 1.2724933-1.51250264 2.38933327-2.75000394 2.4818266-2.75000394.09253333 0 7.72930648 7.54106515 16.97067958 16.75791825 11.57731971 11.54659571 17.03494624 17.1457769 17.5499729 18.00515555 1.71825328 2.8671146 2.3257466 6.5779825 1.56843995 9.58073576-1.11479997 4.42025722-4.34446655 7.96247047-8.54619978 9.37324377-1.89955995.63779331-4.81270655.79716398-6.71763983.36749599zm-90.6355484-50.34082008c-15.16001695-1.70960929-29.06691527-10.31635974-37.52391772-23.22292208-10.01469842-15.28382896-11.1653904-34.7970538-3.01950926-51.20438672 7.6487518-15.40601295 21.79023679-25.6732927 39.05384302-28.3546393 3.62821458-.56351998 11.22409172-.56051998 14.88768363.00533334 21.2037968 3.27818658 37.91838305 18.50877287 42.94598293 39.13303902 1.0341333 4.24222656 1.3795733 7.27867982 1.37859996 12.11798636-.00086666 5.1202132-.38454665 8.2496238-1.59399996 13.00681035-5.28962653 20.80591548-23.25357275 36.25153242-44.83317621 38.5481017-2.62452793.27931332-8.69622778.26325466-11.29550638-.02988z" fill="#fb9c02"/>
  <path d="M10.66649933 128.00000187V10.66649947h234.6670012V245.3335004H10.66649933zm197.07149548 89.93677241c2.44343994-.57591598 4.28906656-1.62784662 6.2095465-3.5391559 1.9137333-1.90458796 2.9433066-3.63510658 3.54593325-5.96000786.48198666-1.85943595.48194666-4.93428654-.00009333-6.7417625-.86581331-3.24656391-.51793332-2.85465192-18.83795953-21.22212347l-17.0343329-17.07845957 1.74010662-2.5153226c11.73085304-16.95683691 16.44573292-37.02968308 13.482773-57.40081857-3.37451992-23.20079942-17.45323957-44.2403189-37.79183906-56.47687859-9.73199976-5.85517318-19.67479951-9.25759976-31.96879654-10.93971972-2.94129592-.40244-15.39206228-.40244-18.33335954 0-10.27623974 1.40603996-18.85131286 4.00393323-27.04170599 8.1925198-30.61699923 15.6575996-47.67753747 48.7364921-42.71893626 82.82828326 3.37452524 23.20080875 17.45324356 44.24033222 37.79184705 56.47688792 8.35881312 5.02900787 17.70563822 8.53355312 27.15628865 10.18211708 5.41377854.9443733 6.88526783 1.0554733 13.97918632 1.0554733 7.09391982 0 8.56540779-.11110666 13.97918765-1.0554733 10.06372908-1.75550663 20.09578217-5.64534653 28.70551528-11.13030106.85206665-.54282932 1.61927996-.9869613 1.70490663-.9869613.08573333 0 7.8963198 7.71590513 17.35706623 17.1464609 15.8053596 15.75491694 17.33423957 17.21487023 18.8387462 17.98945288 2.88471993 1.48518396 6.15626651 1.90166929 9.23591977 1.1757893zm-96.3526016-50.5575814c-15.16001695-1.70960929-29.06691527-10.31635974-37.52391772-23.22292208-10.01469842-15.28382896-11.1653904-34.7970538-3.01950926-51.20438672 7.6487518-15.40601295 21.79023679-25.6732927 39.05384302-28.3546393 3.62821458-.56351998 11.22409172-.56051998 14.88768363.00533334 21.2037968 3.27818658 37.91838305 18.50877287 42.94598293 39.13303902 1.0341333 4.24222656 1.3795733 7.27867982 1.37859996 12.11798636-.00086666 5.1202132-.38454665 8.2496238-1.59399996 13.00681035-5.28962653 20.80591548-23.25357275 36.25153242-44.83317621 38.5481017-2.62452793.27931332-8.69622778.26325466-11.29550638-.02988z" fill="#0e66fa"/>
</svg>
