<svg width="48" height="48" viewBox="0 0 192 192" xmlns="http://www.w3.org/2000/svg">
  <path d="M122.741,82.649c-1.949,5.457-4.678,10.525-10.33,14.228c-3.703,2.534-7.991,3.898-12.669,4.093 c-6.042,0.195-12.084,0-18.516,0V13.652c8.381,0,15.398,0,22.999,0.975c7.017,0.975,11.499,5.068,14.618,9.94 c4.483,6.822,6.237,14.423,6.822,21.829C126.834,58.676,126.834,70.76,122.741,82.649 M162.112,41.329 c-3.508-11.694-11.305-20.855-24.168-27.092C128.783,9.754,118.843,8,108.513,8H27.237v5.652c1.754,0,3.508,0.195,5.262,0.195 c3.118,0.195,6.627,0.195,9.355,1.949c1.364,0.78,2.729,2.144,3.118,3.703c0.195,0.78,0.39,3.118,0.39,4.873v144.035 c0,1.754-0.195,3.703-0.39,4.288c-0.585,1.559-1.754,2.924-3.118,3.703c-2.924,1.754-6.237,1.754-9.355,1.949 c-1.754,0-3.508,0.195-5.262,0.195V184h76.988v-5.457c-1.754,0-8.186-0.195-9.94-0.39c-3.118-0.195-6.627-0.195-9.355-1.949 c-1.364-0.78-2.729-2.144-3.118-3.703c-0.195-0.585-0.39-2.144-0.39-3.898v-62.37c1.559,0,26.507,0,37.617-0.975 c17.152-1.754,30.21-9.161,38.396-21.829C165.62,70.175,166.595,55.947,162.112,41.329" fill="#221924"/>
</svg>
