<svg width="48" height="48" viewBox="0 0 192 192" xmlns="http://www.w3.org/2000/svg" xmlns:xlink="http://www.w3.org/1999/xlink">
  <defs>
    <path id="a" d="M8 8h176v175.999H8z"/>
  </defs>
  <clipPath id="b">
    <use xlink:href="#a" overflow="visible"/>
  </clipPath>
  <g clip-path="url(#b)">
    <defs>
      <path id="c" d="M8 8h176v175.999H8z"/>
    </defs>
    <clipPath id="d">
      <use xlink:href="#c" overflow="visible"/>
    </clipPath>
    <path d="M183.999 96c0 48.601-39.399 88-88 88S8 144.601 8 96 47.399 8 96 8s87.999 39.399 87.999 88" clip-path="url(#d)" fill="#fff"/>
    <path d="M96 8C47.399 8 8 47.399 8 96c0 37.28 23.195 69.151 55.93 81.973-.769-6.963-1.464-17.67.306-25.271 1.599-6.867 10.318-43.742 10.318-43.742s-2.632-5.272-2.632-13.065c0-12.236 7.092-21.372 15.923-21.372 7.508 0 11.134 5.637 11.134 12.396 0 7.55-4.807 18.838-7.288 29.299-2.073 8.759 4.392 15.902 13.031 15.902 15.64 0 27.663-16.492 27.663-40.298 0-21.069-15.14-35.802-36.758-35.802-25.038 0-39.736 18.781-39.736 38.19 0 7.563 2.914 15.674 6.549 20.082.719.871.825 1.635.611 2.524-.669 2.78-2.153 8.757-2.445 9.98-.384 1.611-1.275 1.952-2.943 1.177-10.991-5.117-17.862-21.185-17.862-34.092 0-27.759 20.169-53.252 58.145-53.252 30.527 0 54.25 21.752 54.25 50.824 0 30.329-19.122 54.736-45.664 54.736-8.917 0-17.3-4.633-20.17-10.105 0 0-4.413 16.802-5.482 20.919-1.987 7.644-7.35 17.225-10.937 23.07C78.178 182.625 86.928 184 96 184c48.601 0 88-39.399 88-88S144.601 8 96 8" clip-path="url(#d)" fill="#bd081c"/>
  </g>
</svg>
