<svg width="48" height="48" viewBox="0 0 192 192" xmlns="http://www.w3.org/2000/svg">
  <g fill="#F63D13">
    <path d="M168.269,161.622l-8.79-8.153c-7.591,8.18-16.743,14.89-26.983,19.657L137.55,184 C149.208,178.573,159.627,170.935,168.269,161.622z"/>
    <path d="M127.443,162.251c-9.556,4.448-20.208,6.937-31.443,6.937c-41.2,0-74.599-33.399-74.599-74.599 S54.8,19.989,96,19.989s74.599,33.399,74.599,74.599c0,19.592-7.556,37.417-19.909,50.728l8.789,8.153 c14.338-15.451,23.109-36.14,23.109-58.88C182.589,46.767,143.822,8,96,8S9.411,46.767,9.411,94.589S48.178,181.177,96,181.177 c13.041,0,25.405-2.888,36.497-8.052L127.443,162.251z"/>
    <path d="M144.921,55.468l0,18.816c-16.901-7.937-62.609-18.222-64.747-6.05 c-2.886,16.43,73.858,15.615,67.994,52.508c-3.996,25.144-51.835,31.96-102.289,10.979l0-21.303 c18.067,12.405,63.11,22.469,66.655,9.325c4.367-16.19-70.936-17.901-68.605-50.455C45.967,40.829,98.962,37.484,144.921,55.468z"/>
  </g>
</svg>
