<svg width="48" height="48" viewBox="0 0 192 192" xmlns="http://www.w3.org/2000/svg">
  <path d="M132.402,113.571c-0.352,0-0.701,0.061-1.044,0.033c-0.35-0.028-0.695-0.089-1.036-0.145 c-0.345-0.056-0.68-0.159-1.014-0.245c-0.336-0.085-0.669-0.186-0.996-0.302c-0.332-0.117-0.664-0.222-0.975-0.371 c-0.317-0.148-0.599-0.358-0.892-0.538c-0.599-0.362-1.155-0.791-1.658-1.279c-0.247-0.252-0.478-0.52-0.692-0.801 c-0.222-0.286-0.478-0.54-0.656-0.838c-0.185-0.311-0.311-0.647-0.449-0.964c-0.148-0.336-0.315-0.655-0.41-0.985 c-0.211-0.683-0.29-1.4-0.232-2.112c0.02-0.313,0.102-0.59,0.176-0.831c0.184-0.616,0.391-0.742,0.673-0.261 c0.146,0.247,0.352,0.547,0.582,0.901c0.176,0.274,0.399,0.554,0.643,0.853c0.213,0.263,0.423,0.554,0.699,0.812 c0.248,0.234,0.545,0.434,0.853,0.649c0.278,0.198,0.553,0.436,0.884,0.604c0.304,0.158,0.645,0.273,0.999,0.397 c0.321,0.115,0.666,0.21,1.031,0.289c0.334,0.074,0.682,0.182,1.057,0.222c0.278,0.03,0.565-0.019,0.84-0.019 c0.371,0,0.723-0.037,1.061-0.089c0.367-0.056,0.732-0.067,1.057-0.174c0.352-0.115,0.679-0.278,0.979-0.443 c0.326-0.178,0.593-0.423,0.855-0.643c0.286-0.239,0.558-0.473,0.764-0.743c0.226-0.3,0.432-0.604,0.556-0.918 c0.12-0.316,0.212-0.642,0.274-0.973c0.074-0.349,0.07-0.686,0.067-1.005c0-0.347-0.019-0.679-0.096-0.999 c-0.069-0.331-0.173-0.654-0.308-0.964c-0.145-0.304-0.313-0.596-0.502-0.875c-0.185-0.274-0.417-0.519-0.634-0.784 c-0.208-0.256-0.4-0.536-0.63-0.788c-0.222-0.247-0.497-0.449-0.729-0.695c-0.213-0.23-0.421-0.465-0.632-0.699 c-0.213-0.232-0.413-0.477-0.614-0.716c-0.205-0.238-0.401-0.485-0.588-0.738c-0.186-0.253-0.359-0.516-0.519-0.786 c-0.159-0.271-0.323-0.545-0.443-0.834c-0.114-0.295-0.206-0.598-0.273-0.907c-0.094-0.356-0.154-0.721-0.18-1.088 c-0.007-0.368,0.022-0.737,0.085-1.099c0.052-0.362,0.126-0.723,0.247-1.074c0.116-0.35,0.262-0.689,0.436-1.014 c0.172-0.315,0.434-0.582,0.666-0.877c0.208-0.265,0.382-0.564,0.625-0.803c0.241-0.234,0.514-0.439,0.786-0.645 c0.267-0.204,0.551-0.389,0.844-0.562c0.289-0.171,0.582-0.347,0.89-0.486c0.308-0.139,0.636-0.234,0.959-0.339 c0.319-0.106,0.638-0.224,0.972-0.297c0.328-0.072,0.662-0.148,1.001-0.184c0.334-0.037,0.677-0.006,1.016-0.006 c0.089,0,0.18,0.032,0.271,0.033c0.334,0.009,0.656-0.032,0.96-0.004c0.336,0.03,0.649,0.115,0.946,0.163 c0.337,0.056,0.651,0.108,0.944,0.184c0.33,0.085,0.649,0.135,0.929,0.241c0.324,0.121,0.616,0.263,0.875,0.406 c0.308,0.167,0.547,0.386,0.775,0.566c0.282,0.222,0.549,0.408,0.729,0.621c0.228,0.273,0.4,0.584,0.543,0.89 c0.148,0.317,0.26,0.651,0.311,0.99c0.038,0.344,0.025,0.692-0.039,1.033c-0.048,0.323-0.106,0.617-0.247,0.849 c-0.163,0.251-0.394,0.45-0.666,0.575c-0.269,0.117-0.562,0.171-0.855,0.158c-0.399,0.009-0.796-0.063-1.166-0.211 c-0.269-0.117-0.512-0.286-0.714-0.499c-0.198-0.213-0.372-0.447-0.519-0.697c-0.204-0.323-0.408-0.66-0.753-0.949 c-0.32-0.25-0.686-0.436-1.077-0.547c-0.387-0.127-0.792-0.192-1.2-0.195c-0.297,0-0.58,0.033-0.844,0.106 c-0.277,0.067-0.542,0.18-0.782,0.334c-0.237,0.167-0.423,0.393-0.569,0.634c-0.193,0.326-0.284,0.701-0.263,1.079 c0.011,0.349,0.128,0.701,0.313,1.066c0.108,0.208,0.282,0.426,0.506,0.686c0.167,0.197,0.337,0.434,0.558,0.66 c0.189,0.195,0.367,0.426,0.586,0.645c0.224,0.224,0.493,0.436,0.74,0.69c0.224,0.232,0.471,0.464,0.706,0.719 c0.223,0.241,0.413,0.523,0.638,0.784c0.215,0.252,0.413,0.523,0.623,0.794c0.204,0.263,0.421,0.523,0.612,0.805 c0.189,0.276,0.389,0.549,0.56,0.844c0.169,0.289,0.308,0.597,0.454,0.905c0.145,0.302,0.319,0.597,0.436,0.916 c0.117,0.315,0.206,0.643,0.291,0.973c0.083,0.323,0.122,0.66,0.171,0.999c0.046,0.328,0.05,0.664,0.059,1.009 c0.009,0.33,0.063,0.669,0.033,1.012c-0.028,0.33-0.065,0.667-0.132,1.009c-0.063,0.323-0.182,0.645-0.284,0.977 c-0.099,0.314-0.217,0.621-0.352,0.921c-0.13,0.304-0.248,0.612-0.412,0.894c-0.51,0.845-1.156,1.601-1.912,2.236 c-0.247,0.215-0.482,0.451-0.747,0.642c-0.267,0.191-0.578,0.315-0.86,0.48c-0.284,0.167-0.569,0.319-0.864,0.462 c-0.297,0.141-0.59,0.286-0.894,0.404c-0.308,0.119-0.601,0.273-0.914,0.369c-0.315,0.096-0.645,0.13-0.964,0.202 c-0.321,0.074-0.634,0.189-0.955,0.237c-0.326,0.05-0.66,0.024-0.983,0.05C133.055,113.566,132.728,113.575,132.402,113.571 M47.849,115.945c-0.376,0-0.753,0.033-1.112-0.043c-0.363-0.086-0.716-0.211-1.051-0.375c-0.332-0.166-0.645-0.369-0.931-0.606 c-0.292-0.228-0.556-0.489-0.788-0.779c-0.227-0.27-0.427-0.562-0.597-0.871c-0.158-0.304-0.245-0.649-0.358-0.996 c-0.11-0.334-0.198-0.676-0.263-1.022c-0.066-0.346-0.115-0.696-0.145-1.048c-0.028-0.339-0.026-0.692-0.026-1.057 c0-0.341-0.052-0.697-0.026-1.061c0.024-0.343,0.098-0.69,0.145-1.049c0.044-0.343,0.046-0.703,0.111-1.061 c0.059-0.339,0.13-0.69,0.21-1.044c0.072-0.319,0.167-0.638,0.241-0.964c0.076-0.319,0.18-0.636,0.26-0.962 c0.078-0.317,0.148-0.642,0.234-0.964c0.082-0.319,0.193-0.63,0.278-0.953c0.087-0.315,0.13-0.649,0.221-0.97 c0.087-0.317,0.159-0.642,0.25-0.964c0.093-0.315,0.226-0.623,0.321-0.942c0.095-0.317,0.159-0.645,0.256-0.964 c0.098-0.315,0.252-0.616,0.352-0.931c0.098-0.315,0.172-0.642,0.274-0.957l0.308-0.947c0.106-0.315,0.26-0.612,0.365-0.927 c0.108-0.315,0.159-0.649,0.269-0.964c0.111-0.313,0.336-1.029,0.419-1.352c0.18-0.699,0.289-0.623-0.375-0.584 c-0.037,0.002-0.699,0.011-0.736,0.009c-0.341-0.021-0.68-0.073-1.012-0.156c-0.334-0.091-0.671-0.172-0.985-0.313 c-0.315-0.141-0.61-0.328-0.899-0.512c-0.297-0.185-0.553-0.417-0.812-0.634c-0.355-0.326-0.68-0.684-0.972-1.068 c-0.334-0.46-0.297-0.451,0-0.751c0.375-0.376,0.96-0.723,1.305-0.909c0.289-0.158,0.612-0.31,0.953-0.473 c0.304-0.145,0.63-0.278,0.975-0.428c0.311-0.135,0.636-0.278,0.977-0.413c0.319-0.13,0.649-0.26,0.992-0.389 c0.323-0.122,0.651-0.263,0.996-0.388c0.326-0.115,0.667-0.208,1.014-0.324c0.33-0.111,1.315-0.449,1.659-0.56 c0.316-0.096,0.574-0.325,0.708-0.627c0.148-0.315,0.445-1.098,0.591-1.402c0.148-0.313,0.321-0.612,0.469-0.914 c0.156-0.315,0.313-0.619,0.464-0.918c0.159-0.315,0.297-0.63,0.451-0.927c0.165-0.315,0.352-0.604,0.508-0.896 c0.171-0.317,0.308-0.632,0.467-0.916c0.178-0.319,0.33-0.629,0.493-0.901c0.195-0.326,0.417-0.591,0.582-0.842 c0.189-0.289,0.412-0.543,0.617-0.801c0.215-0.271,0.393-0.564,0.623-0.801c0.239-0.248,0.515-0.447,0.766-0.664 c0.261-0.222,0.519-0.439,0.792-0.63c0.28-0.198,0.54-0.421,0.829-0.586c0.295-0.166,0.597-0.319,0.905-0.458 c0.313-0.145,0.643-0.226,0.955-0.341c0.324-0.117,0.63-0.274,0.946-0.362c0.334-0.093,0.673-0.148,0.994-0.213 c0.343-0.069,0.677-0.133,0.999-0.174c0.352-0.044,0.692-0.033,1.01-0.056c0.362-0.02,0.951-0.108,1.409-0.024 c0.551,0.1,0.649,0.221,0.376,0.627c-0.165,0.247-0.491,0.807-0.708,1.138c-0.171,0.265-0.371,0.547-0.571,0.864 c-0.172,0.274-0.358,0.567-0.551,0.881c-0.174,0.278-0.365,0.567-0.554,0.879c-0.172,0.284-0.337,0.588-0.523,0.899l-0.527,0.892 c-0.171,0.291-0.352,0.588-0.53,0.896c-0.169,0.293-0.365,0.58-0.541,0.89c-0.167,0.295-0.319,0.608-0.491,0.916 c-0.167,0.297-0.569,1.131-0.753,1.437c-0.375,0.627-0.033,0.612,0.293,0.543s1.205-0.33,1.531-0.397 c0.326-0.065,0.649-0.146,0.977-0.21s0.662-0.08,0.99-0.141c0.328-0.059,0.658-0.102,0.985-0.159 c0.33-0.059,0.653-0.139,0.981-0.193c0.328-0.056,0.655-0.132,0.983-0.185c0.328-0.052,0.66-0.082,0.99-0.13 c0.33-0.052,0.653-0.145,0.983-0.191c0.332-0.048,0.664-0.082,0.994-0.126c0.33-0.045,0.666-0.059,0.996-0.1 c0.332-0.043,0.664-0.056,0.994-0.095c0.334-0.039,0.656-0.139,0.986-0.174c0.334-0.037,0.664-0.082,0.992-0.113 c0.334-0.033,0.667-0.026,0.999-0.056c0.332-0.032,0.666-0.046,0.994-0.074c0.334-0.026,0.664-0.085,0.996-0.109 c0.334-0.024,0.667-0.03,0.999-0.05c0.334-0.02,0.667-0.028,0.996-0.045c0.334-0.017,0.667-0.019,0.996-0.03 c0.336-0.013,0.667-0.063,0.998-0.072c0.334-0.009,0.666,0.05,0.994,0.046c0.334-0.006,0.664-0.007,0.992-0.007 c0.332,0,0.666-0.015,1.003-0.009c0.332,0.006,0.666-0.041,1.001-0.03c0.332,0.009,0.664,0.074,0.998,0.089 c0.334,0.013,0.669-0.026,1.005-0.006c0.334,0.022,0.664,0.108,0.996,0.135c0.334,0.026,0.669,0.026,1.003,0.059 c0.334,0.033,0.662,0.104,0.994,0.143c0.334,0.041,0.675,0.011,1.007,0.059c0.334,0.046,0.664,0.096,0.994,0.15 c0.332,0.056,0.66,0.124,0.986,0.189c0.332,0.065,0.649,0.176,0.975,0.25c0.328,0.074,0.656,0.145,0.977,0.23 c0.328,0.085,0.658,0.145,0.977,0.241c0.324,0.098,0.64,0.215,0.953,0.324c0.321,0.111,0.632,0.232,0.942,0.356 c0.315,0.124,0.603,0.3,0.905,0.438c0.609,0.276,1.2,0.59,1.771,0.938c0.287,0.18,0.575,0.352,0.84,0.549 c0.273,0.202,0.556,0.388,0.803,0.608c0.252,0.222,0.46,0.491,0.686,0.736c0.23,0.247,0.439,0.506,0.638,0.773 c0.202,0.267,0.404,0.538,0.543,0.842c0.271,0.599-0.07,0.495-0.371,0.323c-0.287-0.167-0.617-0.271-0.925-0.425 c-0.297-0.148-0.582-0.341-0.897-0.478c-0.311-0.137-0.625-0.267-0.942-0.389c-0.311-0.119-0.649-0.185-0.973-0.297 c-0.319-0.104-0.63-0.245-0.96-0.341c-0.321-0.093-0.649-0.184-0.983-0.267c-0.326-0.08-0.651-0.185-0.988-0.258 c-0.328-0.07-0.664-0.13-1.003-0.191c-0.33-0.059-0.669-0.085-1.01-0.137c-0.332-0.05-0.667-0.106-1.007-0.148 c-0.334-0.041-0.673-0.056-1.016-0.089c-0.334-0.033-0.673-0.048-1.016-0.074c-0.334-0.026-0.671-0.082-1.014-0.1 c-0.337-0.019-0.677-0.013-1.02-0.026c-0.337-0.013-0.679-0.009-1.023-0.015c-0.336-0.006-0.677-0.043-1.02-0.043 c-0.343,0-0.686,0.05-1.031,0.056c-0.343,0.006-0.686-0.054-1.031-0.043c-0.343,0.011-0.686,0.022-1.029,0.037 c-0.345,0.017-0.686,0.044-1.029,0.067c-0.686,0.041-1.37,0.094-2.054,0.158c-0.343,0.03-0.688,0.041-1.029,0.074 c-0.343,0.035-0.68,0.115-1.02,0.152c-0.345,0.037-0.682,0.104-1.02,0.146c-0.345,0.041-0.692,0.056-1.031,0.1 c-0.343,0.046-0.69,0.067-1.029,0.117c-0.341,0.048-0.679,0.13-1.016,0.18c-0.343,0.054-0.679,0.13-1.016,0.185 c-0.343,0.056-0.692,0.048-1.027,0.108c-0.343,0.059-0.673,0.159-1.009,0.221c-0.341,0.063-0.679,0.119-1.012,0.182 c-0.341,0.067-0.682,0.109-1.016,0.176l-1.009,0.204c-0.339,0.072-0.667,0.172-0.999,0.245c-0.341,0.074-0.686,0.111-1.012,0.185 c-0.341,0.076-0.667,0.185-0.996,0.263c-0.339,0.08-0.68,0.13-1.007,0.208c-0.339,0.083-0.658,0.226-0.981,0.306 c-0.321,0.082-0.662,0.141-1.01,0.234c-0.321,0.085-0.643,0.219-0.99,0.315c-0.321,0.089-0.662,0.15-1.007,0.248 c-0.321,0.093-0.662,0.159-1.005,0.26c-0.323,0.095-0.649,0.217-0.99,0.319c-0.323,0.096-0.655,0.193-0.996,0.297 c-0.323,0.098-1.311,0.389-1.645,0.519c-0.541,0.208-0.588,0.397-0.738,0.705c-0.126,0.254-0.226,0.541-0.352,0.797 c-0.148,0.302-0.311,0.567-0.404,0.766c-0.148,0.313-0.26,0.642-0.402,0.949c-0.146,0.315-0.315,0.617-0.456,0.925 c-0.145,0.315-0.263,0.64-0.4,0.951c-0.141,0.317-0.241,0.649-0.375,0.962c-0.137,0.317-0.31,0.617-0.443,0.933 c-0.133,0.319-0.241,0.649-0.371,0.964c-0.13,0.321-0.293,0.627-0.417,0.946c-0.126,0.321-0.235,0.647-0.356,0.966 c-0.122,0.323-0.213,0.654-0.33,0.975c-0.117,0.324-0.273,0.634-0.386,0.957c-0.111,0.324-0.2,0.658-0.31,0.983 c-0.109,0.326-0.208,0.655-0.313,0.983c-0.104,0.324-0.219,0.649-0.319,0.977c-0.098,0.328-0.226,0.647-0.323,0.977 c-0.096,0.328-0.145,0.671-0.237,1.003c-0.093,0.33-0.161,0.667-0.248,1.001c-0.093,0.345-0.247,0.662-0.326,0.988 c-0.087,0.349-0.133,0.695-0.208,1.023c-0.08,0.352-0.135,0.695-0.198,1.022c-0.07,0.356-0.145,0.693-0.197,1.02 c-0.059,0.362-0.098,0.705-0.137,1.031c-0.041,0.365-0.13,0.705-0.145,1.027c-0.019,0.376-0.006,0.725,0.013,1.042 c0.022,0.384,0.141,0.714,0.217,1.014c0.096,0.38,0.178,0.714,0.36,0.96c0.146,0.197,0.315,0.371,0.53,0.467 c0.482,0.211,0.454,0.441,0.271,0.538c-0.185,0.095-0.406,0.18-0.662,0.25c-0.411,0.102-0.834,0.149-1.257,0.139v-0.007 M69.19,93.132c-0.323,0-0.638,0.135-0.964,0.254c-0.297,0.106-0.597,0.241-0.89,0.438c-0.261,0.176-0.541,0.362-0.797,0.604 c-0.243,0.23-0.472,0.474-0.686,0.731c-0.208,0.247-0.389,0.528-0.588,0.814c-0.185,0.263-0.41,0.519-0.588,0.814 c-0.342,0.575-0.652,1.17-0.927,1.78c-0.135,0.297-0.282,0.599-0.412,0.916c-0.122,0.302-0.182,0.64-0.297,0.959 c-0.111,0.31-0.26,0.614-0.363,0.938c-0.1,0.313-0.145,0.649-0.237,0.975c-0.091,0.317-0.178,0.642-0.26,0.97 c-0.08,0.323-0.176,0.643-0.247,0.975c-0.076,0.354-0.167,0.693-0.222,1.023c-0.061,0.362-0.098,0.71-0.135,1.038 c-0.041,0.371-0.093,0.716-0.104,1.044c-0.011,0.376,0.043,0.723,0.07,1.046c0.035,0.384,0.115,0.716,0.206,1.02 c0.111,0.371,0.226,0.693,0.423,0.938c0.321,0.399,0.742,0.567,1.248,0.567c0.313,0,0.658-0.022,1.01-0.174 c0.312-0.151,0.607-0.334,0.881-0.547c0.26-0.189,0.523-0.413,0.788-0.669c0.237-0.226,0.512-0.445,0.749-0.719 c0.217-0.25,0.386-0.562,0.601-0.851c0.198-0.269,0.382-0.564,0.569-0.871c0.176-0.287,0.412-0.556,0.575-0.871 c0.159-0.302,0.295-0.627,0.439-0.949c0.141-0.315,0.23-0.655,0.36-0.983c0.126-0.321,0.282-0.636,0.397-0.966 c0.111-0.33,0.247-0.655,0.345-0.99c0.1-0.334,0.171-0.679,0.256-1.014c0.087-0.341,0.128-0.69,0.198-1.029 c0.074-0.345,0.161-0.686,0.217-1.022c0.057-0.354,0.141-0.697,0.176-1.038c0.038-0.348,0.065-0.696,0.08-1.046 c0.015-0.365-0.022-0.718-0.037-1.048c-0.019-0.371-0.019-0.727-0.076-1.044c-0.072-0.376-0.232-0.695-0.365-0.977 c-0.113-0.263-0.284-0.498-0.501-0.686c-0.221-0.186-0.496-0.293-0.784-0.306C69.24,93.165,69.245,93.132,69.19,93.132 M62.7,115.993c-0.362,0-0.721,0.052-1.07,0.004c-0.353-0.055-0.702-0.135-1.044-0.241c-0.341-0.1-0.664-0.252-0.988-0.402 c-0.324-0.148-0.637-0.318-0.936-0.51c-0.295-0.191-0.597-0.378-0.875-0.614c-0.254-0.213-0.458-0.475-0.682-0.708 c-0.455-0.47-0.858-0.988-1.201-1.544c-0.166-0.282-0.316-0.573-0.451-0.871c-0.139-0.293-0.324-0.571-0.434-0.883 c-0.108-0.308-0.161-0.634-0.239-0.957c-0.074-0.315-0.189-0.629-0.237-0.957c-0.046-0.326-0.079-0.654-0.096-0.983 c-0.019-0.324,0-0.655,0.007-0.986c0.007-0.324,0.054-0.649,0.087-0.981c0.029-0.327,0.07-0.653,0.122-0.977 c0.056-0.319,0.148-0.632,0.224-0.957c0.076-0.315,0.119-0.643,0.217-0.964c0.093-0.308,0.18-0.629,0.297-0.942 c0.117-0.321,0.278-0.619,0.399-0.925c0.128-0.317,0.226-0.642,0.356-0.944c0.137-0.313,0.33-0.593,0.471-0.89 c0.145-0.31,0.269-0.623,0.419-0.916c0.158-0.302,0.315-0.601,0.477-0.886c0.169-0.299,0.384-0.562,0.556-0.842 c0.182-0.291,0.313-0.606,0.499-0.877c0.195-0.284,0.38-0.566,0.578-0.827c0.206-0.274,0.473-0.489,0.684-0.742 c0.221-0.263,0.426-0.525,0.649-0.764c0.235-0.25,0.436-0.525,0.671-0.749c0.248-0.237,0.525-0.432,0.775-0.642 c0.263-0.222,0.541-0.406,0.805-0.599c0.278-0.204,0.538-0.41,0.814-0.584c0.291-0.185,0.562-0.386,0.849-0.538 c0.304-0.163,0.617-0.287,0.912-0.417c0.319-0.139,0.642-0.228,0.946-0.334c0.328-0.117,0.649-0.213,0.959-0.297 c0.339-0.087,0.656-0.195,0.968-0.25c0.352-0.061,0.686-0.065,0.996-0.093c0.369-0.035,0.699-0.111,0.992-0.111 c0.165,0,0.328,0.015,0.491,0.022c0.352,0.015,0.705,0.074,1.053,0.156c0.696,0.154,1.362,0.42,1.971,0.79 c0.3,0.182,0.606,0.371,0.886,0.597c0.273,0.222,0.519,0.484,0.764,0.747c0.241,0.256,0.486,0.519,0.695,0.812 c0.191,0.265,0.343,0.56,0.504,0.849c0.159,0.286,0.317,0.575,0.447,0.881c0.13,0.299,0.26,0.603,0.362,0.921 c0.098,0.31,0.113,0.645,0.185,0.972c0.07,0.317,0.197,0.629,0.241,0.96c0.043,0.321,0.05,0.653,0.069,0.986 c0.019,0.324,0.022,0.653,0.019,0.986c-0.004,0.324,0,0.654-0.024,0.988c-0.024,0.324-0.087,0.649-0.132,0.983 c-0.043,0.321-0.065,0.651-0.126,0.979c-0.059,0.319-0.108,0.649-0.185,0.975c-0.074,0.315-0.208,0.623-0.299,0.946 c-0.095,0.33-0.228,0.649-0.343,0.975c-0.115,0.326-0.182,0.669-0.315,0.99c-0.132,0.317-0.315,0.614-0.464,0.927 c-0.152,0.31-0.297,0.621-0.464,0.925c-0.167,0.302-0.299,0.627-0.48,0.92c-0.183,0.293-0.374,0.582-0.571,0.866 c-0.197,0.286-0.438,0.538-0.647,0.812c-0.208,0.274-0.38,0.582-0.601,0.845c-0.222,0.265-0.471,0.51-0.705,0.762 c-0.235,0.256-0.467,0.512-0.714,0.753c-0.248,0.241-0.53,0.445-0.788,0.673c-0.26,0.23-0.497,0.486-0.764,0.699 c-0.274,0.215-0.567,0.4-0.845,0.597c-0.286,0.202-0.588,0.369-0.879,0.549c-0.297,0.182-0.575,0.389-0.875,0.549 c-0.31,0.163-0.629,0.3-0.94,0.436c-0.63,0.279-1.286,0.496-1.958,0.649c-0.334,0.086-0.671,0.154-1.012,0.204 C63.385,116.017,63.042,115.993,62.7,115.993 M88.461,116.048c-0.36,0-0.719,0.056-1.07,0.011 c-0.354-0.051-0.704-0.123-1.049-0.217c-0.347-0.087-0.677-0.226-1.007-0.356c-0.331-0.13-0.654-0.281-0.966-0.452 c-0.313-0.172-0.627-0.339-0.916-0.551c-0.286-0.211-0.527-0.478-0.786-0.725c-0.49-0.471-0.924-0.997-1.294-1.567 c-0.17-0.276-0.324-0.562-0.464-0.855c-0.145-0.289-0.334-0.562-0.451-0.87c-0.111-0.3-0.174-0.625-0.26-0.942 c-0.085-0.31-0.208-0.617-0.267-0.942c-0.057-0.321-0.102-0.645-0.133-0.97c-0.033-0.319-0.032-0.649-0.043-0.979 c-0.007-0.319,0.019-0.645,0.032-0.977c0.013-0.321,0.024-0.645,0.056-0.973c0.033-0.321,0.102-0.64,0.154-0.968 c0.05-0.317,0.065-0.647,0.133-0.97c0.072-0.341,0.13-0.684,0.215-1.016c0.085-0.337,0.219-0.66,0.317-0.988 c0.1-0.334,0.174-0.675,0.287-0.999c0.111-0.328,0.289-0.632,0.415-0.951c0.128-0.324,0.235-0.653,0.376-0.966 c0.141-0.315,0.287-0.63,0.443-0.938c0.156-0.31,0.363-0.59,0.532-0.888c0.171-0.302,0.297-0.63,0.478-0.92 c0.185-0.293,0.371-0.588,0.567-0.868c0.2-0.284,0.465-0.515,0.679-0.784c0.215-0.274,0.421-0.549,0.649-0.807 c0.228-0.26,0.426-0.547,0.667-0.792c0.245-0.247,0.519-0.458,0.775-0.686c0.26-0.234,0.538-0.434,0.808-0.647 c0.271-0.215,0.53-0.439,0.812-0.634c0.286-0.198,0.554-0.417,0.849-0.593c0.297-0.178,0.612-0.321,0.918-0.477 c0.31-0.156,0.636-0.265,0.951-0.399c0.319-0.132,0.64-0.252,0.964-0.36c0.328-0.109,0.647-0.241,0.981-0.323 c0.334-0.082,0.679-0.111,1.018-0.167c0.339-0.056,0.673-0.161,1.016-0.189c0.344-0.024,0.689-0.035,1.035-0.032 c0.076,0,0.076,0.011,0.154,0.013c0.73-0.001,1.455,0.12,2.145,0.358c0.349,0.119,0.692,0.25,1.007,0.426 c0.319,0.178,0.61,0.408,0.89,0.638c0.282,0.23,0.558,0.471,0.797,0.751c0.234,0.273,0.423,0.588,0.612,0.907 c0.363,0.59,0.632,1.233,0.797,1.906c0.076,0.336,0.057,0.688,0.083,1.035c0.024,0.341,0.095,0.686,0.07,1.033 c-0.034,0.345-0.093,0.687-0.174,1.023c-0.072,0.334-0.172,0.664-0.293,0.992c-0.112,0.328-0.244,0.648-0.397,0.959 c-0.178,0.33-0.387,0.643-0.623,0.934c-0.256,0.33-0.499,0.625-0.788,0.794c-0.534,0.31-1.064,0.306-1.064,0.306 c-0.289-0.012-0.571-0.092-0.823-0.234c-0.248-0.122-0.517-0.248-0.731-0.469c-0.193-0.2-0.33-0.464-0.477-0.732 c-0.145-0.255-0.255-0.528-0.326-0.812c-0.069-0.3-0.137-0.597-0.106-0.877c0.034-0.298,0.136-0.585,0.297-0.838 c0.228-0.356,0.402-0.712,0.438-1.083c0.035-0.395-0.095-0.768-0.287-1.122c-0.195-0.373-0.499-0.677-0.871-0.871 c-0.378-0.187-0.796-0.279-1.218-0.271c-0.26,0-0.593-0.009-0.983,0.1c-0.278,0.08-0.567,0.239-0.899,0.415 c-0.263,0.141-0.556,0.293-0.847,0.515c-0.241,0.185-0.512,0.382-0.769,0.634c-0.219,0.215-0.413,0.488-0.642,0.76 c-0.2,0.241-0.415,0.493-0.621,0.779c-0.201,0.282-0.392,0.57-0.575,0.864c-0.185,0.295-0.369,0.588-0.536,0.89 c-0.167,0.306-0.308,0.623-0.456,0.934c-0.149,0.313-0.288,0.63-0.419,0.951c-0.132,0.321-0.26,0.643-0.373,0.97 c-0.115,0.328-0.245,0.653-0.339,0.983c-0.096,0.337-0.158,0.679-0.232,1.014c-0.076,0.343-0.122,0.686-0.176,1.023 c-0.054,0.349-0.074,0.695-0.102,1.035c-0.026,0.344-0.037,0.689-0.033,1.035c0,0.356-0.02,0.701,0.013,1.038 c0.037,0.352,0.056,0.705,0.13,1.029c0.078,0.349,0.217,0.671,0.339,0.983c0.133,0.334,0.306,0.63,0.486,0.909 c0.195,0.297,0.382,0.59,0.63,0.816c0.256,0.235,0.538,0.449,0.845,0.601c0.3,0.15,0.642,0.241,0.988,0.31 c0.33,0.065,0.667,0.074,0.994,0.074c0.349,0.006,0.698-0.023,1.042-0.087c0.345-0.074,0.664-0.222,0.983-0.352 c0.324-0.135,0.638-0.284,0.936-0.464c0.3-0.182,0.603-0.358,0.875-0.571c0.282-0.219,0.567-0.43,0.816-0.662 c0.267-0.247,0.471-0.541,0.701-0.784c0.26-0.273,0.488-0.541,0.699-0.775c0.951-1.053,1.201-1.094,1.144-0.117 c-0.015,0.25-0.056,0.551-0.145,0.888c-0.173,0.607-0.391,1.201-0.653,1.776c-0.124,0.278-0.282,0.571-0.451,0.884 c-0.152,0.276-0.286,0.586-0.477,0.877c-0.174,0.267-0.419,0.501-0.63,0.771c-0.203,0.261-0.417,0.513-0.643,0.755 c-0.222,0.246-0.457,0.481-0.703,0.705c-0.243,0.213-0.471,0.464-0.745,0.66c-0.265,0.189-0.571,0.326-0.866,0.495 c-0.282,0.163-0.551,0.363-0.862,0.502c-0.297,0.133-0.63,0.195-0.953,0.302c-0.306,0.102-0.617,0.219-0.949,0.297 c-0.343,0.078-0.692,0.102-1.038,0.143C89.156,116.033,88.809,116.051,88.461,116.048 M20.927,117.313 c-0.349,0-0.699,0.067-1.044,0.048c-0.349-0.019-0.695-0.067-1.038-0.106c-0.347-0.037-0.686-0.115-1.027-0.172 c-0.342-0.057-0.683-0.123-1.022-0.198c-0.343-0.078-0.686-0.139-1.014-0.235c-0.339-0.1-0.655-0.256-0.975-0.375 c-0.325-0.119-0.645-0.25-0.96-0.393c-0.315-0.143-0.623-0.299-0.923-0.469c-0.3-0.177-0.592-0.369-0.873-0.575 c-0.289-0.204-0.606-0.369-0.866-0.597c-0.267-0.232-0.489-0.504-0.725-0.76c-0.241-0.26-0.506-0.495-0.712-0.773 c-0.21-0.282-0.404-0.575-0.58-0.879c-0.178-0.306-0.319-0.63-0.458-0.949c-0.141-0.323-0.239-0.66-0.339-0.994 c-0.104-0.334-0.188-0.675-0.25-1.02c-0.059-0.345-0.069-0.695-0.083-1.046c-0.015-0.349-0.056-0.699-0.024-1.049 c0.03-0.349,0.061-0.701,0.135-1.046c0.074-0.339,0.208-0.667,0.326-1.001c0.121-0.345,0.232-0.686,0.391-0.986 c0.169-0.321,0.408-0.586,0.616-0.864c0.213-0.287,0.423-0.571,0.669-0.816c0.254-0.248,0.521-0.482,0.801-0.688 c0.286-0.213,0.608-0.36,0.912-0.532c0.31-0.174,0.599-0.384,0.92-0.519c0.324-0.14,0.654-0.265,0.99-0.373 c0.347-0.108,0.708-0.121,1.042-0.191c0.36-0.074,0.705-0.148,1.038-0.184c0.375-0.041,0.727-0.117,1.046-0.109 c1.092,0.024,0.927,0.36,0.384,0.606c-0.289,0.133-0.527,0.384-0.794,0.597c-0.248,0.2-0.467,0.449-0.705,0.695 c-0.221,0.23-0.454,0.464-0.653,0.738c-0.189,0.26-0.397,0.519-0.556,0.821c-0.157,0.294-0.294,0.597-0.412,0.909 c-0.111,0.297-0.174,0.625-0.258,0.959c-0.074,0.308-0.174,0.629-0.222,0.972c-0.048,0.371-0.009,0.742,0,1.103 c0.007,0.735,0.136,1.464,0.384,2.156c0.261,0.688,0.644,1.323,1.131,1.875c0.217,0.25,0.464,0.464,0.718,0.677 c0.252,0.213,0.504,0.423,0.784,0.595c0.28,0.172,0.582,0.304,0.886,0.434c0.3,0.13,0.601,0.267,0.921,0.354 c0.315,0.085,0.64,0.137,0.97,0.182c0.323,0.043,0.651,0.046,0.985,0.046c0.33,0,0.671,0.048,1.01,0.004 c0.326-0.041,0.643-0.176,0.975-0.26c0.319-0.083,0.645-0.165,0.964-0.289c0.314-0.121,0.621-0.259,0.92-0.413 c0.291-0.154,0.569-0.341,0.853-0.534c0.274-0.182,0.562-0.356,0.829-0.575c0.254-0.21,0.482-0.456,0.729-0.699 c0.234-0.23,0.445-0.488,0.671-0.749c0.213-0.248,0.462-0.482,0.666-0.76c0.195-0.263,0.412-0.525,0.597-0.816 c0.174-0.278,0.297-0.599,0.462-0.901c0.158-0.289,0.352-0.567,0.501-0.879c0.143-0.297,0.271-0.608,0.404-0.927 c0.126-0.302,0.204-0.634,0.321-0.957c0.111-0.31,0.23-0.625,0.334-0.953c0.1-0.315,0.241-0.625,0.334-0.957 c0.087-0.317,0.115-0.658,0.195-0.992c0.074-0.324,0.172-0.649,0.241-0.985c0.065-0.326,0.117-0.66,0.174-1.001 c0.059-0.341,0.152-0.686,0.191-1.042c0.039-0.347,0.026-0.705,0.048-1.061c0.02-0.35,0.061-0.703,0.067-1.061 c0.007-0.349,0.033-0.705,0.03-1.061c-0.006-0.352-0.059-0.705-0.074-1.061c-0.013-0.352-0.017-0.705-0.039-1.059 c-0.022-0.352-0.048-0.706-0.074-1.061c-0.028-0.352-0.048-0.706-0.08-1.059c-0.032-0.352-0.08-0.705-0.113-1.057l-0.104-1.057 c-0.033-0.334-0.061-0.669-0.093-1.001c-0.032-0.334-0.035-0.671-0.065-1.007c-0.03-0.334-0.082-0.667-0.111-1.001 c-0.026-0.334-0.067-0.667-0.089-1.001c-0.024-0.334-0.063-0.669-0.08-1.003c-0.017-0.337-0.039-0.673-0.046-1.007 c-0.011-0.337,0.024-0.673,0.024-1.007c0-0.339,0.041-0.673,0.05-1.005c0.011-0.339-0.011-0.675,0.013-1.007 c0.026-0.339,0.039-0.675,0.08-1.005c0.041-0.337,0.135-0.662,0.195-0.988c0.059-0.334,0.143-0.656,0.222-0.977 c0.083-0.328,0.152-0.656,0.256-0.972c0.108-0.321,0.204-0.642,0.337-0.946c0.132-0.31,0.3-0.601,0.464-0.894 c0.159-0.291,0.3-0.601,0.491-0.875c0.196-0.273,0.407-0.535,0.632-0.784c0.219-0.248,0.473-0.467,0.723-0.697 c0.247-0.222,0.515-0.413,0.779-0.614c0.261-0.202,0.499-0.441,0.779-0.617c0.278-0.178,0.562-0.352,0.855-0.506 c0.293-0.152,0.612-0.26,0.916-0.386c0.304-0.128,0.619-0.23,0.934-0.334c0.313-0.1,0.623-0.222,0.946-0.3 c0.319-0.074,0.649-0.124,0.977-0.176c0.324-0.05,0.655-0.078,0.985-0.102c0.328-0.024,0.658-0.024,0.992-0.024 c0.345,0,0.686-0.028,1.02-0.002c0.343,0.026,0.671,0.13,1.001,0.182c0.341,0.054,0.671,0.119,0.996,0.198 c0.336,0.082,0.664,0.161,0.979,0.271c0.326,0.111,0.66,0.191,0.962,0.332c0.315,0.145,0.591,0.352,0.871,0.525 c0.297,0.182,0.61,0.33,0.866,0.54c0.271,0.219,0.473,0.501,0.693,0.745c0.232,0.26,0.456,0.512,0.629,0.797 c0.176,0.297,0.289,0.612,0.397,0.931c0.108,0.323,0.248,0.64,0.278,0.981c0.026,0.289,0.015,0.586-0.039,0.864 c-0.056,0.278-0.158,0.556-0.289,0.814c-0.126,0.25-0.326,0.464-0.523,0.677c-0.222,0.247-0.477,0.462-0.76,0.63 c-0.28,0.18-0.584,0.32-0.903,0.417c-0.578,0.143-1.18,0.156-1.763,0.037c-0.25-0.052-0.486-0.171-0.731-0.269 c-0.488-0.195-0.697-0.399-0.777-0.667c-0.089-0.304-0.006-0.643,0.104-1.057c0.08-0.306,0.148-0.643,0.156-0.988 c-0.001-0.331-0.099-0.655-0.282-0.931c-0.164-0.291-0.388-0.542-0.658-0.738c-0.272-0.193-0.574-0.34-0.894-0.436 c-0.32-0.1-0.652-0.153-0.986-0.158c-0.321,0-0.649,0.056-0.964,0.135c-0.314,0.083-0.618,0.2-0.907,0.35 c-0.28,0.145-0.515,0.373-0.773,0.58c-0.247,0.198-0.514,0.384-0.731,0.634c-0.204,0.235-0.412,0.512-0.608,0.834 c-0.167,0.273-0.282,0.599-0.426,0.94c-0.13,0.297-0.286,0.604-0.389,0.957c-0.091,0.311-0.174,0.649-0.239,1.007 c-0.059,0.321-0.135,0.66-0.169,1.022c-0.03,0.345-0.046,0.69-0.05,1.036c-0.007,0.33,0.026,0.675,0.041,1.036 c0.015,0.33,0.032,0.675,0.067,1.033c0.033,0.334,0.098,0.673,0.148,1.027c0.048,0.324,0.113,0.651,0.167,0.985 c0.056,0.324,0.078,0.658,0.137,0.99c0.056,0.324,0.137,0.649,0.2,0.981c0.059,0.323,0.133,0.649,0.197,0.983 c0.061,0.321,0.087,0.653,0.148,0.979c0.061,0.323,0.167,0.64,0.226,0.968c0.057,0.323,0.05,0.66,0.104,0.986 c0.056,0.324,0.106,0.649,0.156,0.977c0.05,0.326,0.111,0.651,0.154,0.979c0.044,0.326,0.087,0.655,0.126,0.983 c0.037,0.328,0.078,0.658,0.108,0.988c0.03,0.328,0.037,0.66,0.056,0.99c0.022,0.33,0.082,0.66,0.093,0.992 c0.011,0.33,0.043,0.66,0.043,0.992c-0.002,0.33-0.039,0.662-0.052,0.994c-0.013,0.33-0.059,0.658-0.087,0.99 c-0.026,0.328-0.03,0.66-0.072,0.99c-0.041,0.328-0.067,0.66-0.124,0.986c-0.056,0.326-0.184,0.638-0.256,0.964 c-0.072,0.321-0.113,0.649-0.204,0.972c-0.089,0.326-0.193,0.645-0.293,0.962c-0.102,0.321-0.232,0.63-0.347,0.942 c-0.115,0.314-0.236,0.625-0.363,0.934c-0.13,0.313-0.237,0.63-0.378,0.931c-0.143,0.308-0.326,0.59-0.482,0.883 c-0.158,0.297-0.289,0.606-0.46,0.892c-0.171,0.289-0.375,0.556-0.56,0.834s-0.328,0.588-0.528,0.853 c-0.2,0.271-0.43,0.515-0.643,0.771c-0.215,0.258-0.402,0.538-0.63,0.784c-0.226,0.245-0.486,0.462-0.727,0.693 c-0.241,0.232-0.506,0.434-0.76,0.653c-0.252,0.219-0.493,0.449-0.758,0.656c-0.261,0.204-0.534,0.397-0.808,0.59 c-0.273,0.191-0.566,0.352-0.851,0.532c-0.28,0.176-0.562,0.356-0.855,0.523c-0.296,0.164-0.596,0.318-0.901,0.464 c-0.304,0.148-0.621,0.265-0.934,0.393c-0.311,0.13-0.614,0.28-0.934,0.389c-0.319,0.111-0.649,0.182-0.977,0.274 c-0.324,0.091-0.643,0.211-0.973,0.284c-0.33,0.074-0.667,0.108-1.001,0.161c-0.334,0.056-0.664,0.124-1.001,0.159 c-0.336,0.037-0.671,0.106-1.01,0.122c-0.336,0.019-0.677-0.015-1.016-0.015c-0.02-0.002,0-0.037,0-0.037 M127.403,121.824 c-0.367,0-0.734,0.063-1.098,0.037c-0.367-0.028-0.731-0.089-1.09-0.143c-0.363-0.056-0.718-0.154-1.072-0.235 c-0.356-0.081-0.71-0.176-1.059-0.284c-0.324-0.102-0.649-0.191-0.964-0.317c-0.311-0.13-0.595-0.315-0.896-0.467 c-0.603-0.302-1.182-0.649-1.732-1.038c-0.273-0.197-0.53-0.413-0.794-0.627c-0.26-0.213-0.558-0.384-0.807-0.614 c-0.245-0.23-0.458-0.497-0.692-0.742c-0.234-0.243-0.501-0.458-0.721-0.716c-0.221-0.257-0.434-0.519-0.642-0.786 c-0.204-0.267-0.389-0.553-0.586-0.829c-0.193-0.276-0.362-0.571-0.543-0.857c-0.18-0.286-0.367-0.567-0.538-0.86 c-0.169-0.291-0.308-0.601-0.467-0.899c-0.158-0.299-0.352-0.58-0.497-0.884c-0.148-0.304-0.306-0.604-0.443-0.914 c-0.135-0.311-0.226-0.64-0.35-0.955c-0.124-0.315-0.276-0.621-0.389-0.938c-0.111-0.321-0.163-0.662-0.263-0.983 c-0.104-0.323-0.226-0.64-0.315-0.964c-0.091-0.326-0.177-0.654-0.256-0.983c-0.078-0.334-0.122-1.239-0.271-1.539 c-0.167-0.334-0.21-0.417-0.584-0.041c-0.239,0.239-0.773,0.834-0.975,1.094c-0.21,0.265-0.445,0.504-0.643,0.768 c-0.204,0.267-0.425,0.519-0.617,0.786c-0.197,0.271-0.371,0.556-0.558,0.829c-0.189,0.276-0.345,0.575-0.527,0.849 c-0.184,0.278-0.384,0.545-0.56,0.827c-0.176,0.284-0.38,0.549-0.549,0.834c-0.167,0.287-0.334,0.577-0.495,0.87 c-0.159,0.287-0.286,0.599-0.441,0.894c-0.154,0.293-0.339,0.573-0.489,0.871c-0.148,0.297-0.237,0.623-0.382,0.927 c-0.141,0.297-0.393,0.929-0.553,1.227c-0.334,0.627-0.347,0.862-0.916,0.627c-0.271-0.111-0.784-0.564-0.973-0.832 c-0.18-0.281-0.316-0.587-0.404-0.909c-0.104-0.314-0.18-0.636-0.23-0.962c-0.043-0.308-0.037-0.642-0.048-0.99 c-0.007-0.315-0.019-0.649,0-0.992c0.017-0.317,0.026-0.649,0.065-0.988c0.037-0.319,0.154-0.636,0.21-0.972 c0.056-0.319,0.046-0.658,0.119-0.988c0.069-0.317,0.169-0.634,0.254-0.96c0.083-0.315,0.18-0.634,0.278-0.955 c0.096-0.313,0.18-0.636,0.291-0.951c0.113-0.324,0.26-0.636,0.373-0.959c0.115-0.324,0.202-0.656,0.317-0.979 c0.117-0.323,0.215-0.653,0.332-0.973c0.119-0.323,0.282-0.627,0.399-0.949c0.121-0.321,0.269-0.63,0.389-0.951 c0.119-0.323,0.184-0.666,0.304-0.985c0.121-0.321,0.286-0.625,0.408-0.944c0.122-0.321,0.234-0.645,0.358-0.964 c0.124-0.319,0.204-0.656,0.328-0.973c0.126-0.321,0.26-0.636,0.386-0.953c0.128-0.319,0.3-0.617,0.426-0.934 c0.13-0.319,0.206-0.658,0.334-0.972c0.13-0.319,0.284-0.627,0.413-0.94c0.132-0.319,0.254-0.638,0.386-0.951 c0.133-0.315,0.306-0.614,0.439-0.927c0.135-0.315,0.23-0.647,0.365-0.959c0.137-0.315,0.3-0.617,0.436-0.927 c0.139-0.317,0.3-0.619,0.439-0.927c0.141-0.315,0.243-0.645,0.384-0.953c0.143-0.315,0.299-0.621,0.441-0.927l0.434-0.929 c0.148-0.313,0.306-0.617,0.451-0.92c0.15-0.313,0.286-0.627,0.434-0.929c0.154-0.311,0.304-0.619,0.456-0.92 c0.156-0.31,0.315-0.612,0.469-0.909c0.161-0.31,0.345-0.599,0.501-0.894c0.165-0.308,0.308-0.617,0.467-0.909 c0.169-0.306,0.321-0.612,0.486-0.899c0.18-0.313,0.352-0.621,0.556-0.901c0.202-0.29,0.42-0.568,0.653-0.834 c0.237-0.267,0.514-0.491,0.769-0.725c0.263-0.241,0.556-0.438,0.834-0.645c0.286-0.213,0.554-0.443,0.849-0.623 c0.306-0.185,0.608-0.373,0.916-0.527c0.323-0.159,0.662-0.26,0.983-0.389c0.334-0.133,0.671-0.234,0.996-0.334 c0.349-0.111,0.68-0.226,1.007-0.304c0.363-0.087,0.705-0.178,1.027-0.234c0.386-0.065,0.74-0.109,1.046-0.119 c1.068-0.033,0.901,0.133,0.491,0.788c-0.156,0.247-0.371,0.515-0.582,0.851c-0.167,0.261-0.371,0.54-0.569,0.86 c-0.167,0.271-0.295,0.597-0.486,0.91c-0.167,0.278-0.337,0.577-0.523,0.888c-0.167,0.282-0.375,0.556-0.558,0.868 c-0.167,0.284-0.352,0.575-0.53,0.884c-0.167,0.286-0.306,0.601-0.482,0.909c-0.167,0.289-0.347,0.58-0.521,0.888 c-0.165,0.289-0.341,0.584-0.514,0.892c-0.163,0.293-0.343,0.586-0.514,0.894c-0.161,0.295-0.293,0.616-0.462,0.923 c-0.161,0.297-0.382,0.565-0.551,0.875l-0.489,0.909c-0.159,0.299-0.31,0.61-0.475,0.92c-0.159,0.299-0.274,0.629-0.439,0.938 c-0.158,0.299-0.363,0.58-0.527,0.89c-0.158,0.3-0.267,0.63-0.426,0.942c-0.158,0.3-0.371,0.577-0.532,0.888 c-0.156,0.3-0.289,0.619-0.447,0.931c-0.156,0.302-0.343,0.593-0.501,0.907c-0.156,0.304-0.247,0.643-0.404,0.957 c-0.154,0.304-0.321,0.608-0.464,0.927c-0.343,0.756-0.343,1.09-0.044,0.755c0.232-0.258,0.495-0.478,0.727-0.725 c0.235-0.252,0.467-0.502,0.705-0.743c0.241-0.247,0.478-0.495,0.721-0.729c0.248-0.241,0.484-0.486,0.734-0.712 c0.256-0.234,0.489-0.486,0.745-0.705c0.265-0.222,0.558-0.404,0.821-0.612c0.273-0.217,0.547-0.419,0.818-0.619 c0.278-0.204,0.567-0.389,0.845-0.578c0.287-0.193,0.567-0.388,0.853-0.564c0.29-0.179,0.585-0.35,0.884-0.514 c0.304-0.167,0.578-0.378,0.883-0.523c0.311-0.148,0.645-0.241,0.955-0.367c0.321-0.13,0.642-0.247,0.96-0.352 c0.326-0.111,0.64-0.254,0.964-0.337c0.336-0.085,0.679-0.115,1.009-0.174c0.341-0.059,0.677-0.1,1.012-0.13 c0.341-0.032,0.68-0.019,1.018-0.019c0.391,0,0.779-0.011,1.163,0.057c0.881,0.161,0.808,0.417,0.547,0.619 c-0.269,0.21-0.714,0.575-0.973,0.779c-0.269,0.211-0.523,0.432-0.782,0.638c-0.267,0.21-0.551,0.393-0.81,0.599 c-0.265,0.211-0.514,0.438-0.771,0.645c-0.265,0.211-0.519,0.43-0.775,0.638c-0.263,0.213-0.545,0.399-0.799,0.608 c-0.265,0.215-0.493,0.464-0.747,0.675c-0.263,0.215-0.564,0.378-0.816,0.59l-0.775,0.643c-0.258,0.219-0.506,0.445-0.756,0.658 l-0.76,0.656c-0.258,0.222-0.506,0.445-0.755,0.664c-0.254,0.224-0.519,0.432-0.764,0.653c-0.254,0.226-0.471,0.482-0.716,0.705 c-0.25,0.228-0.478,0.475-0.719,0.699c-0.25,0.232-0.514,0.438-0.753,0.664c-0.247,0.234-0.708,0.658-0.94,0.89 c-0.458,0.462-0.482,0.701-0.375,1.337c0.056,0.339,0.146,0.933,0.215,1.257c0.074,0.334,0.126,0.669,0.204,0.992 c0.082,0.334,0.165,0.662,0.252,0.983c0.089,0.33,0.211,0.647,0.308,0.964c0.1,0.328,0.167,0.662,0.274,0.973 c0.111,0.326,0.258,0.63,0.376,0.94c0.121,0.323,0.217,0.647,0.347,0.951c0.135,0.315,0.328,0.599,0.469,0.897 c0.148,0.31,0.271,0.625,0.426,0.916c0.159,0.306,0.363,0.577,0.53,0.862c0.174,0.297,0.324,0.599,0.506,0.875 c0.189,0.287,0.358,0.582,0.554,0.847c0.204,0.278,0.43,0.527,0.64,0.782c0.219,0.265,0.438,0.519,0.662,0.762 c0.234,0.25,0.452,0.508,0.692,0.736c0.25,0.235,0.508,0.452,0.762,0.664c0.263,0.219,0.525,0.432,0.79,0.627 c0.278,0.202,0.545,0.41,0.825,0.586c0.289,0.182,0.599,0.323,0.89,0.48c0.302,0.161,0.59,0.339,0.89,0.477 c0.311,0.141,0.638,0.234,0.946,0.35c0.321,0.121,0.63,0.256,0.946,0.352c0.328,0.1,0.662,0.163,0.983,0.241 c0.334,0.08,0.669,0.104,0.992,0.161c0.341,0.059,0.667,0.148,0.992,0.185c0.343,0.037,0.679,0.039,1.001,0.057 c0.349,0.019,0.682,0.067,1.003,0.067c0.334,0,0.656-0.024,0.966-0.039c0.337-0.019,0.658-0.074,0.962-0.104 c0.341-0.035,0.667-0.035,0.962-0.08c0.356-0.054,0.671-0.135,0.946-0.193c0.723-0.152,0.931-0.026,0.536,0.68 c-0.15,0.269-0.397,0.493-0.64,0.745c-0.217,0.224-0.428,0.478-0.701,0.693c-0.247,0.195-0.506,0.404-0.794,0.586 c-0.269,0.169-0.588,0.273-0.89,0.426c-0.282,0.148-0.566,0.317-0.875,0.449c-0.295,0.124-0.597,0.258-0.912,0.365 c-0.312,0.102-0.627,0.194-0.946,0.274c-0.317,0.088-0.637,0.166-0.959,0.234c-0.315,0.063-0.649,0.056-0.979,0.1 c-0.321,0.043-0.645,0.087-0.975,0.111c-0.326,0.02-0.653,0.02-0.983,0.02 M152.979,114.248c-0.388,0.07-0.74,0.211-1.087,0.274 c-0.393,0.074-0.762,0.122-1.096,0.185c-0.371,0.072-0.729,0.121-1.062,0.206c-0.369,0.093-0.716,0.197-1.038,0.304 c-0.365,0.121-0.692,0.276-1.001,0.412c-0.356,0.154-0.703,0.273-0.988,0.441c-0.313,0.183-0.609,0.394-0.884,0.63 c-0.278,0.236-0.518,0.513-0.71,0.823c-0.215,0.356-0.323,0.723-0.291,1.042c0.03,0.315,0.228,0.56,0.46,0.771 c0.204,0.182,0.452,0.354,0.781,0.443c0.265,0.07,0.573,0.056,0.907,0.056c0.287,0,0.595-0.006,0.921-0.063 c0.289-0.048,0.595-0.096,0.907-0.189c0.286-0.083,0.575-0.197,0.875-0.315c0.328-0.133,0.658-0.26,0.964-0.432 c0.308-0.169,0.578-0.399,0.866-0.608c0.278-0.206,0.534-0.445,0.794-0.688c0.252-0.237,0.523-0.46,0.756-0.734 c0.224-0.261,0.412-0.56,0.621-0.855c0.197-0.282,0.445-0.541,0.621-0.858c0.528-0.947,0.488-1.114-0.365-1.02 C153.448,114.126,153.453,114.161,152.979,114.248 M147.053,123.265c-0.475,0-0.957,0.05-1.43,0 c-0.319-0.038-0.634-0.097-0.946-0.176c-0.321-0.074-0.616-0.2-0.905-0.315c-0.296-0.118-0.581-0.26-0.853-0.426 c-0.278-0.159-0.54-0.345-0.781-0.556c-0.237-0.222-0.408-0.497-0.582-0.76c-0.359-0.528-0.581-1.136-0.647-1.771 c-0.029-0.344-0.016-0.69,0.039-1.031c0.048-0.328,0.067-0.679,0.193-1.022c0.113-0.31,0.299-0.608,0.482-0.925 c0.167-0.284,0.317-0.603,0.543-0.89c0.204-0.256,0.439-0.519,0.695-0.775c0.235-0.235,0.508-0.454,0.788-0.684 c0.256-0.211,0.547-0.4,0.845-0.606c0.274-0.191,0.558-0.389,0.87-0.575c0.287-0.169,0.603-0.315,0.921-0.478 c0.297-0.156,0.59-0.349,0.918-0.497c0.306-0.139,0.617-0.297,0.949-0.428c0.315-0.126,0.654-0.211,0.99-0.33 c0.319-0.115,0.638-0.26,0.979-0.367c0.308-0.096,0.634-0.137,0.946-0.235c0.308-0.093,0.608-0.217,0.923-0.313l0.931-0.284 c0.308-0.093,0.632-0.135,0.949-0.228c0.306-0.091,0.601-0.239,0.918-0.33c0.308-0.089,0.959-0.297,1.279-0.376 c0.556-0.139,0.488-0.158,0.751-0.753c0.135-0.304,0.315-0.76,0.4-1.064c0.093-0.323,0.213-0.629,0.306-0.927 c0.102-0.326,0.185-0.649,0.289-0.934c-0.022-0.111-0.091-0.132-0.202-0.1c-0.254,0.25-0.519,0.462-0.777,0.684 c-0.271,0.234-0.564,0.425-0.834,0.627c-0.277,0.209-0.563,0.407-0.857,0.593c-0.304,0.191-0.588,0.393-0.89,0.543 c-0.321,0.161-0.656,0.26-0.973,0.371c-0.339,0.117-0.656,0.267-0.986,0.33c-0.343,0.061-0.69,0.091-1.038,0.089 c-0.386,0-0.76-0.056-1.116-0.145c-0.734-0.173-1.412-0.533-1.967-1.044c-0.282-0.251-0.535-0.533-0.755-0.84 c-0.187-0.286-0.349-0.587-0.486-0.899c-0.15-0.306-0.278-0.623-0.382-0.947c-0.096-0.319-0.143-0.658-0.204-1.001 c-0.061-0.335-0.105-0.673-0.13-1.012c-0.02-0.334-0.045-0.675-0.037-1.023c0.011-0.334,0.102-0.667,0.139-1.012 c0.037-0.332,0.013-0.679,0.074-1.02c0.059-0.33,0.154-0.658,0.237-0.994c0.08-0.326,0.178-0.653,0.278-0.985 c0.102-0.321,0.195-0.649,0.315-0.975c0.121-0.319,0.278-0.63,0.413-0.949c0.133-0.315,0.248-0.643,0.399-0.957 c0.145-0.311,0.282-0.63,0.441-0.938c0.159-0.306,0.367-0.586,0.54-0.886c0.171-0.3,0.373-0.58,0.556-0.873 c0.182-0.297,0.317-0.617,0.51-0.903c0.193-0.289,0.43-0.545,0.632-0.823c0.206-0.28,0.406-0.562,0.619-0.829 c0.219-0.273,0.402-0.571,0.629-0.827c0.23-0.263,0.471-0.514,0.708-0.758c0.243-0.25,0.525-0.456,0.775-0.686 c0.26-0.239,0.484-0.508,0.747-0.719c0.276-0.221,0.569-0.408,0.847-0.597c0.284-0.197,0.578-0.38,0.881-0.547 c0.311-0.169,0.643-0.276,0.955-0.395c0.332-0.13,0.649-0.269,0.977-0.337c0.345-0.07,0.692-0.082,1.029-0.082 c0.15,0,0.445,0.072,0.228,0.486c-0.137,0.26-0.551,0.988-0.725,1.324l-0.462,0.899c-0.145,0.286-0.308,0.582-0.464,0.897 c-0.146,0.293-0.282,0.604-0.436,0.916c-0.145,0.297-0.289,0.603-0.438,0.914c-0.145,0.299-0.293,0.603-0.438,0.912 c-0.143,0.304-0.31,0.599-0.451,0.909c-0.139,0.308-0.256,0.627-0.393,0.936c-0.135,0.31-0.254,0.627-0.386,0.936 c-0.132,0.315-0.245,0.636-0.371,0.946c-0.126,0.319-0.241,0.636-0.36,0.947c-0.122,0.323-0.274,0.627-0.384,0.936 c-0.121,0.349-0.26,0.671-0.352,0.992c-0.1,0.358-0.145,0.708-0.208,1.029c-0.072,0.371-0.102,0.719-0.122,1.04 c-0.026,0.389-0.059,0.738-0.011,1.048c0.063,0.389,0.176,0.731,0.358,0.988c0.168,0.224,0.392,0.4,0.649,0.51 c0.235,0.106,0.51,0.139,0.808,0.139c0.332,0,0.697-0.046,1.077-0.174c0.324-0.108,0.64-0.299,0.979-0.488 c0.306-0.171,0.617-0.36,0.923-0.588c0.284-0.213,0.584-0.426,0.857-0.684c0.263-0.247,0.543-0.501,0.784-0.782 c0.113-0.319,0.172-0.66,0.286-0.966c0.119-0.319,0.228-0.634,0.347-0.94c0.124-0.315,0.284-0.612,0.408-0.914 c0.128-0.315,0.267-0.616,0.397-0.916c0.135-0.311,0.237-0.63,0.371-0.927c0.143-0.31,0.297-0.604,0.438-0.897 c0.148-0.308,0.306-0.601,0.452-0.89c0.156-0.304,0.323-0.593,0.478-0.877c0.165-0.3,0.293-0.612,0.456-0.89 c0.174-0.297,0.402-0.549,0.575-0.821c0.184-0.293,0.363-0.571,0.545-0.836c0.195-0.286,0.373-0.564,0.565-0.82 c0.206-0.278,0.371-0.571,0.575-0.816c0.219-0.269,0.477-0.486,0.693-0.719c0.235-0.256,0.426-0.532,0.656-0.751 c0.254-0.241,0.545-0.413,0.79-0.612c0.273-0.222,0.521-0.443,0.781-0.617c0.293-0.198,0.593-0.336,0.868-0.48 c0.317-0.167,0.591-0.367,0.877-0.473c0.313-0.116,0.635-0.208,0.962-0.274c0.376-0.074,0.716-0.072,0.99-0.093 c0.797-0.059,0.781,0.213,0.63,0.527c-0.15,0.315-0.508,1.187-0.654,1.502c-0.148,0.319-0.308,0.629-0.452,0.944 c-0.148,0.319-0.297,0.634-0.438,0.949c-0.145,0.319-0.33,0.619-0.469,0.934c-0.143,0.321-0.278,0.642-0.415,0.959 c-0.141,0.321-0.269,0.645-0.404,0.964c-0.137,0.321-0.256,0.649-0.389,0.968c-0.137,0.324-0.241,0.662-0.371,0.983 c-0.135,0.324-0.31,0.63-0.441,0.949c-0.13,0.326-0.267,0.649-0.397,0.97c-0.13,0.324-0.271,0.643-0.399,0.964 c-0.126,0.326-0.241,0.654-0.367,0.975l-0.371,0.975c-0.126,0.328-0.189,0.677-0.313,1.001c-0.122,0.328-0.293,0.634-0.413,0.959 c-0.122,0.326-0.247,0.651-0.365,0.975c-0.122,0.328-0.197,0.671-0.315,0.996c-0.121,0.328-0.28,0.638-0.399,0.96 c-0.119,0.328-0.241,0.651-0.36,0.973c-0.104,0.287-0.235,0.56-0.337,0.842c-0.106,0.287-0.204,0.575-0.306,0.857 c-0.106,0.286-0.278,0.877-0.371,1.163c-0.167,0.512-0.082,0.731,0.627,0.543c0.334-0.089,0.953-0.31,1.283-0.4 c0.334-0.093,0.664-0.2,0.992-0.293c0.336-0.096,0.677-0.159,1.005-0.254c0.334-0.098,0.651-0.241,0.979-0.339 c0.334-0.102,0.682-0.137,1.009-0.239c0.334-0.102,0.664-0.204,0.988-0.31c0.334-0.106,0.656-0.226,0.979-0.334 c0.653-0.222,1.302-0.457,1.947-0.703c0.326-0.124,0.656-0.232,0.97-0.358c0.324-0.13,0.627-0.306,0.938-0.441 c0.321-0.141,0.623-0.308,0.931-0.452c0.315-0.15,0.64-0.276,0.94-0.432c0.311-0.163,0.627-0.306,0.92-0.475 c0.304-0.176,0.584-0.38,0.868-0.565c0.295-0.189,0.564-0.404,0.836-0.604c0.282-0.208,0.593-0.371,0.851-0.591 c0.265-0.228,0.493-0.491,0.732-0.732c0.245-0.242,0.478-0.496,0.699-0.76c0.223-0.267,0.447-0.53,0.638-0.816 c0.191-0.286,0.371-0.582,0.532-0.888c0.158-0.302,0.402-0.269,0.395,0.067c-0.009,0.345,0,0.686-0.043,1.02 c-0.044,0.339-0.137,0.666-0.217,0.996c-0.078,0.33-0.117,0.673-0.232,0.996c-0.115,0.317-0.273,0.621-0.421,0.931 c-0.145,0.302-0.269,0.625-0.445,0.92c-0.174,0.287-0.391,0.554-0.597,0.834c-0.198,0.267-0.432,0.514-0.658,0.777 c-0.219,0.252-0.432,0.519-0.677,0.764c-0.241,0.24-0.49,0.472-0.745,0.695c-0.248,0.222-0.527,0.419-0.797,0.634 c-0.261,0.204-0.527,0.417-0.808,0.619c-0.271,0.193-0.556,0.376-0.845,0.566c-0.28,0.182-0.578,0.339-0.875,0.517 c-0.287,0.171-0.564,0.369-0.866,0.536c-0.291,0.159-0.604,0.289-0.912,0.447c-0.297,0.152-0.584,0.337-0.896,0.486 c-0.302,0.143-0.623,0.258-0.936,0.397c-0.308,0.135-0.608,0.293-0.927,0.425c-0.308,0.13-0.608,0.295-0.929,0.421 c-0.311,0.121-0.645,0.204-0.968,0.321c-0.315,0.117-0.627,0.256-0.951,0.371c-0.317,0.109-0.653,0.18-0.979,0.289 c-0.319,0.104-0.638,0.222-0.964,0.324c-0.323,0.1-0.638,0.23-0.968,0.328c-0.321,0.095-0.658,0.148-0.99,0.241 c-0.323,0.093-0.645,0.206-0.977,0.297c-0.324,0.087-0.653,0.18-0.986,0.267c-0.428,0.111-0.855,0.228-1.279,0.352 c-0.66,0.198-0.853,0.26-1.083,0.877c-0.146,0.395-0.545,1.17-0.716,1.52c-0.148,0.304-0.297,0.617-0.473,0.921 c-0.178,0.296-0.366,0.585-0.564,0.868c-0.193,0.278-0.389,0.564-0.606,0.838c-0.211,0.267-0.48,0.491-0.712,0.749 c-0.228,0.254-0.456,0.51-0.705,0.753c-0.245,0.237-0.452,0.523-0.716,0.749c-0.26,0.222-0.567,0.389-0.845,0.597 c-0.549,0.415-1.125,0.793-1.724,1.131c-0.3,0.167-0.616,0.302-0.931,0.449c-0.312,0.144-0.628,0.276-0.949,0.397 c-0.319,0.124-0.625,0.287-0.957,0.389c-0.328,0.098-0.658,0.204-0.998,0.278c-0.334,0.076-0.675,0.126-1.02,0.178 c-0.336,0.05-0.684,0.033-1.031,0.057C147.743,123.254,147.402,123.265,147.053,123.265"/>
</svg>
