<svg width="48" height="48" viewBox="0 0 192 192" xmlns="http://www.w3.org/2000/svg">
  <path d="M96,38.926L153.074,96L96,153.074L38.926,96L96,38.926z" fill="#752a7d"/>
  <path d="M22.269,22.269L65.074,8L96,38.926L38.926,96L8,65.074L22.269,22.269z" fill="#c6d637"/>
  <path d="M169.731,22.269L184,65.074L153.074,96L96,38.926L126.926,8L169.731,22.269z" fill="#88cc79"/>
  <path d="M169.731,169.731L126.926,184L96,153.074L153.074,96L184,126.926L169.731,169.731z" fill="#d47eed"/>
  <path d="M22.269,169.731L8,126.926L38.926,96L96,153.074L65.074,184L22.269,169.731z" fill="#f7cf1f"/>
</svg>
