<svg width="48" height="48" viewBox="0 0 192 192" xmlns="http://www.w3.org/2000/svg">
  <path fill="#2e000a" d="M15.333 17.534h161.333v156.932H15.333z"/>
  <path d="M8 10.201V181.8h176V10.201H8zm7.333 7.333h161.334v156.932H15.333V17.534z" fill="#ff4475"/>
  <path d="M52.726 126.655c-.484-.362-.726-.846-.726-1.573v-11.616c0-.364.484-.726.968-.364 5.445 3.751 11.81 5.446 17.86 5.446 8.833 0 12.463-4.598 12.463-9.801 0-4.598-2.299-8.349-10.769-13.31l-4.356-2.299C55.703 86.12 52.073 78.982 52.073 69.907c0-12.342 8.591-22.264 24.805-22.264 7.139 0 12.437 1.089 15.462 2.783.605.242.726.605.726 1.331v10.89c0 .484-.484.846-.968.484-3.751-2.421-9.291-3.63-14.978-3.63-9.317 0-12.342 5.324-12.342 9.559 0 4.598 2.299 7.986 10.648 12.583l3.872 2.058c13.794 7.624 17.303 15.003 17.303 24.078 0 13.43-9.801 22.748-25.773 22.748-7.139-.001-13.626-1.331-18.102-3.872zm83.973 1.089c0 .606-.242 1.09-.848 1.332-2.541.967-5.324 1.451-8.953 1.451-9.197 0-14.399-4.84-14.399-16.213v-32.98h-6.957c-.605 0-.743-.242-.743-.847v-9.735c0-.605.121-.968.847-.968h6.957c.122-4.235.606-11.616 1.089-13.915 0-.847.364-1.087.846-1.209l10.891-1.451c.484-.121.846-.002.846.603-.242 3.509-.362 9.438-.484 15.972H136.4c.606 0 .848.242.848.847v9.977c0 .605-.364.726-.848.726h-10.702v30.734c0 4.962 1.695 7.207 6.17 7.207 1.453 0 2.651-.122 4.104-.484.362-.122.726.12.726.726v8.227z" fill="#ff4475"/>
</svg>
