<svg width="48" height="48" viewBox="0 0 192 192" xmlns="http://www.w3.org/2000/svg">
  <path d="M184 165.3c0 10.34-8.36 18.7-18.7 18.7H26.7C16.36 184 8 175.64 8 165.3V26.7C8 16.36 16.36 8 26.7 8h138.6c10.34 0 18.7 8.36 18.7 18.7v138.6z" fill="#FF6600"/>
  <path d="M133.785 130.524c-7.625.34-6.671-5.006-2.212-11.084 10.457-13.882 30.248-33.248 30.935-46.959 1.205-17.909-16.965-23.739-35.647-23.566-13.026.172-26.481 3.861-35.644 7.109-31.622 11.056-51.503 28.798-64.014 48.418-13.28 19.452-8.911 38.046 19.109 38.648 21.509-.856 35.47-6.768 50.047-14.139.079 0-40.279 11.397-55.101 3-.772-.088-.772-.088 0 0-1.543-.861-3.258-2.061-3.686-5.399-.09-6.948 11.569-14.139 18.08-16.455V98.358c13.454 4.715 29.22 3.258 42.846-6.684.511 1.114.854 2.742.685 4.285h2.398c.598-4.712-2.739-9.253-7.879-9.597 1.453 1.283 2.657 2.228 3.168 3.085 0 .084-.348.344-.348.344-17.562 12.252-34.441 6.597-36.07 6.169l9.679-9.51-2.653-6.858c19.28-6.682 35.477-11.825 61.865-16.366l-5.91-4.886 3.084-1.883c15.898 4.442 26.339 7.697 25.794 16.047-.295 1.461-.818 3.068-1.63 4.86-4.629 9.086-18.422 24.253-23.992 30.593-3.685 4.196-7.282 8.313-9.858 12.254-2.656 3.941-4.283 7.623-4.365 11.141.964 19.724 43.77 1.454 59.534-9.257-16 5.103-27.007 7.919-38.215 8.429zm18.574-58.28" fill="#FFFFFF"/>
</svg>
