<svg width="48" height="48" viewBox="0 0 192 192" xmlns="http://www.w3.org/2000/svg">
  <path d="M96,8C47.424,8,8,47.424,8,96s39.424,88,88,88s88-39.424,88-88S144.576,8,96,8z M87.2,165.784 C52.44,161.472,25.6,131.904,25.6,96c0-5.456,0.704-10.648,1.848-15.752L69.6,122.4v8.8c0,9.68,7.92,17.6,17.6,17.6V165.784z M147.92,143.432c-2.288-7.128-8.8-12.232-16.72-12.232h-8.8v-26.4c0-4.84-3.96-8.8-8.8-8.8H60.8V78.4h17.6 c4.84,0,8.8-3.96,8.8-8.8V52h17.6c9.68,0,17.6-7.92,17.6-17.6v-3.608c25.784,10.472,44,35.728,44,65.208 C166.4,114.304,159.36,130.936,147.92,143.432z" fill="#e74c3c"/>
</svg>
