<svg width="48" height="48" viewBox="0 0 192 192" xmlns="http://www.w3.org/2000/svg">
  <path d="M178.5,96c0-45.564-36.936-82.5-82.5-82.5 S13.5,50.436,13.5,96s36.936,82.5,82.5,82.5S178.5,141.564,178.5,96z" fill="none" stroke="#80d07f" stroke-width="11.3435" stroke-miterlimit="10"/>
  <path d="M107.436,83.714c-1.473-2.087-3.689-3.48-7.746-3.48h-7.103v34.79h7.103 c4.057,0,6.273-1.393,7.746-3.478c1.293-1.74,1.754-3.392,1.754-13.918C109.19,87.192,108.729,85.454,107.436,83.714 L107.436,83.714z M122.106,118.154c-4.521,6.872-11.441,10.438-21.309,10.438H76.444V66.667h24.353 c9.868,0,16.788,3.566,21.309,10.436c3.227,4.956,3.227,9.827,3.227,20.525C125.333,108.327,125.333,113.196,122.106,118.154" fill="#80d07f"/>
</svg>
