<svg width="48" height="48" viewBox="0 0 192 192" xmlns="http://www.w3.org/2000/svg">
  <path d="M149.588,105.194c0-37.301-48.86-90.89-50.961-92.991L94.949,8l-3.678,4.203 c-2.102,2.101-48.86,56.215-48.86,92.991c0,34.149,37.827,50.961,48.334,55.164c0,4.203,0,13.134,0,13.66 c0,4.728-5.254,9.982-5.254,9.982h19.964c0,0-5.254-5.254-5.254-9.982c0,0,0-9.457,0-13.66 C110.71,156.155,149.588,138.818,149.588,105.194z M99.152,57.385c0-2.627-2.102-4.203-4.203-4.203 c-2.627,0-4.203,2.101-4.203,4.203v25.743L79.188,71.57c-1.576-1.576-4.728-1.576-6.304,0c-1.576,1.576-1.576,4.728,0,6.304 l17.863,17.863c0,7.881,0,14.71,0,23.116l-19.439-18.388c-1.576-1.576-4.728-1.576-6.304,0c-1.576,1.576-1.576,4.728,0,6.304 l25.743,25.218c0,6.304,0,12.609,0,17.863c-12.084-5.254-38.352-19.964-38.352-44.131c0-27.319,32.048-68.824,42.555-81.958 c11.558,13.134,44.657,54.113,44.657,81.958c0,24.693-27.845,38.878-39.928,44.657c0-5.254,0-11.033,0-17.863l25.743-25.218 c1.576-1.576,1.576-4.728,0-6.304s-4.728-1.576-6.304,0l-19.439,18.388c0-8.406,0-15.236,0-23.116L117.54,78.4 c1.576-1.576,1.576-4.728,0-6.304s-4.728-1.576-6.304,0L99.678,83.654L99.152,57.385z" fill="#112e58"/>
</svg>
