<svg width="48" height="48" viewBox="0 0 192 192" xmlns="http://www.w3.org/2000/svg">
  <path fill="#1D374E" d="M96.041,184c-10.763-8.552-26.648,1.074-37.237-9.392c-14.969-7.383-13.03-24.767-18.66-37.652 c-8.498-11.12-6.174-26.072,3.63-35.539c13.863-18.188,38.74-24.65,60.625-21.734c17.458,3.567,33.086,13.114,47.454,23.242 c10.968,8.018,9.346,22.184,1.05,31.327c-6.165,12.852-9.904,29.01-22.979,36.748c-10.873-1.543-32.998-11.051-30.185,9.661 C99.201,182.349,97.742,183.638,96.041,184z M27.69,102.318C6.376,89.095,1.97,54.828,20.802,37.637 c12.182-5.022,21.425,8.496,24.216,18.681c6.819,11.538,8.322,27.108-2.094,37.075C38.921,97.826,33.585,101.152,27.69,102.318z M156.419,100.641c-10.719-6.032-25.886-17.819-18.828-31.664c6.908-10.744,12.21-27.704,26.673-29.366 c13.344-0.976,18.99,13.668,18.838,24.757c-0.327,13.462-5.643,28.878-18.076,35.565 C162.335,101.078,159.258,101.46,156.419,100.641L156.419,100.641z M66.217,77.875c-15.861-9.566-16.777-30.253-18.059-46.707 C47.905,15.309,71.449,1.083,80.838,17.849c6.477,13.817,14.19,30.062,8.244,45.395C85.323,72.352,75.243,76.293,66.217,77.875 L66.217,77.875z M124.06,77.802c-18.832,0.559-28.628-21.42-23.76-37.57c0.112-12.946,4.835-35.416,22.167-31.854 c18.707,7.234,22.68,32.698,13.77,48.972C131.758,63.933,132.138,73.947,124.06,77.802L124.06,77.802z"/>
</svg>
