<svg width="48" height="48" viewBox="0 0 192 192" xmlns="http://www.w3.org/2000/svg" xmlns:xlink="http://www.w3.org/1999/xlink">
  <rect width="28.387" height="45.419" x="30.71" y="8" style="fill:#0104FF;"/>
  <rect width="28.387" height="68.129" x="30.71" y="53.419" style="fill:#FFFF01;"/>
  <rect width="28.387" height="45.419" x="30.71" y="121.548" style="fill:#FF00FF;"/>
  <rect width="51.097" height="158.968" x="59.097" y="8" style="fill:#00FE02;"/>
  <rect width="51.097" height="158.968" x="110.194" y="8" style="fill:#FD0100;"/>
  <path d="M161.29,8L42.065,25.032V184l119.226-17.032V8z" style="fill:#000000;"/>
  <defs>
    <rect id="a" width="90.839" height="73.806" x="59.097" y="64.774"/>
  </defs>
  <clipPath id="b">
    <use xlink:href="#a" style="overflow:visible;"/>
  </clipPath>
  <g style="clip-path:url(#b);">
    <path d="M56.258,76.312l40.292-6.503l0.096,11.076l-27.965,4.514l0.119,13.605l26.307-4.246l0.097,11.16 l-26.308,4.247l0.133,15.351l29.701-4.794l-1.146,11.276l-40.787,6.584L56.258,76.312z" style="fill:#FFFFFF;"/>
    <path d="M102.915,68.781l21.097-3.405c4.521-0.73,8.262-0.797,11.224-0.198 c2.958,0.602,5.317,1.647,7.07,3.141c1.753,1.494,2.982,3.36,3.693,5.605c0.71,2.241,1.075,4.641,1.097,7.2 c0.024,2.732-0.297,5.407-0.965,8.017c-0.668,2.613-1.862,5.002-3.582,7.174c-1.721,2.168-4.024,4.039-6.909,5.61 c-2.889,1.575-6.536,2.715-10.95,3.427l-9.264,1.495l0.193,22.239l-12.163,1.963l-0.539-62.268L102.915,68.781z M124.181,94.606 c2.151-0.347,3.929-0.869,5.333-1.561c1.399-0.692,2.512-1.51,3.333-2.46c0.821-0.946,1.374-2.038,1.671-3.28 c0.29-1.241,0.433-2.561,0.421-3.955c-0.012-1.451-0.188-2.705-0.531-3.756c-0.34-1.05-0.927-1.89-1.761-2.512 c-0.834-0.622-1.954-1.024-3.364-1.201c-1.411-0.181-3.19-0.097-5.341,0.251l-8.769,1.415l0.16,18.489l8.85-1.428H124.181z" style="fill:#FFFFFF;"/>
  </g>
</svg>
