<svg width="48" height="48" viewBox="0 0 192 192" xmlns="http://www.w3.org/2000/svg">
  <path d="M111.083,396.135 c0-0.056,0.619-1.947,1.376-4.203s1.376-4.25,1.376-4.432c0-0.182-1.659-1.563-3.686-3.07l-3.686-2.74l4.67-0.153l4.67-0.153 l1.368-4.28l1.368-4.28l1.368,4.356l1.368,4.356h4.741h4.741l-3.723,2.785c-2.048,1.532-3.723,2.955-3.723,3.162 s0.28,1.189,0.622,2.182c1.348,3.912,2.08,6.579,1.729,6.305c-0.2-0.157-1.74-1.287-3.422-2.512 c-1.681-1.225-3.209-2.345-3.395-2.489c-0.21-0.163-0.847,0.123-1.681,0.756C114.287,393.911,111.083,396.232,111.083,396.135 L111.083,396.135z" fill="#ebc14a" transform="translate(-22.268306,-211.35692)"/>
  <path d="M73.786,384.042 c0-0.13,0.619-2.083,1.376-4.339c0.757-2.256,1.376-4.185,1.376-4.286c0-0.101-1.685-1.414-3.745-2.917l-3.745-2.733l4.681-0.153 l4.681-0.153l1.392-4.259l1.392-4.259l0.73,2.272c0.401,1.25,1.01,3.201,1.353,4.336l0.624,2.064h4.78h4.78l-3.723,2.785 c-2.179,1.63-3.723,2.999-3.723,3.299c0,0.283,0.611,2.334,1.357,4.559l1.357,4.045l-0.975-0.679 c-0.779-0.543-4.53-3.314-6.198-4.578c-0.202-0.153-1.782,0.818-4.051,2.49C75.46,383.045,73.786,384.173,73.786,384.042 L73.786,384.042z" fill="#ebc14a" transform="translate(-22.268306,-211.35692)"/>
  <path d="M148.787,383.551 c0.455-1.187,2.646-8.233,2.577-8.289c-0.044-0.036-1.783-1.321-3.866-2.856l-3.787-2.791h4.763h4.763l1.292-4.127 c0.711-2.27,1.372-4.127,1.47-4.127c0.098,0,0.746,1.823,1.44,4.051l1.262,4.051l4.677,0.153l4.677,0.153l-3.646,2.721 c-2.005,1.497-3.678,2.745-3.718,2.773c-0.04,0.029,0.537,1.964,1.283,4.301c0.746,2.337,1.303,4.302,1.238,4.366 c-0.065,0.065-1.708-1.065-3.653-2.511l-3.535-2.629l-3.509,2.597c-1.93,1.428-3.596,2.597-3.701,2.597 S148.696,383.788,148.787,383.551L148.787,383.551z" fill="#ebc14a" transform="translate(-22.268306,-211.35692)"/>
  <path d="M45.099,356.768 c0.816-2.174,2.798-8.555,2.688-8.654c-0.077-0.069-1.839-1.378-3.916-2.909l-3.776-2.783l4.835-0.085l4.835-0.085l1.244-3.883 c0.684-2.136,1.319-3.958,1.411-4.05c0.092-0.092,0.753,1.686,1.468,3.952l1.301,4.119l4.728,0.084l4.728,0.084l-3.685,2.74 c-2.027,1.507-3.685,2.957-3.685,3.223c0,0.266,0.61,2.303,1.356,4.527c0.746,2.224,1.193,3.948,0.994,3.83 c-0.2-0.118-1.826-1.29-3.615-2.605c-1.789-1.315-3.385-2.39-3.547-2.39c-0.162,0-1.175,0.659-2.251,1.464 C46.092,356.431,44.935,357.204,45.099,356.768L45.099,356.768z" fill="#ebc14a" transform="translate(-22.268306,-211.35692)"/>
  <path d="M176.813,357.003 c0-0.056,0.619-1.947,1.376-4.203c0.757-2.256,1.376-4.255,1.376-4.443c0-0.187-1.681-1.569-3.735-3.07l-3.735-2.729l4.72-0.153 l4.72-0.153l1.357-4.28l1.357-4.28l1.376,4.349l1.376,4.349l4.675,0.084l4.675,0.084l-3.654,2.75 c-2.01,1.513-3.653,2.888-3.652,3.057c0.002,0.169,0.605,2.199,1.34,4.511l1.338,4.204l-1.57-1.135 c-0.863-0.624-2.529-1.853-3.702-2.731l-2.132-1.596l-1.536,1.104c-0.845,0.607-2.534,1.841-3.753,2.743 C177.81,356.367,176.813,357.059,176.813,357.003L176.813,357.003z" fill="#ebc14a" transform="translate(-22.268306,-211.35692)"/>
  <path d="M101.218,266.902 c-10.708-0.01-20.724,0.079-20.843,0.271c-0.095,0.153-0.079,17.143,0.034,37.756l0.203,37.478h6.807h6.805l0.998-1.758 c1.306-2.301,3.95-4.875,6.283-6.115c1.028-0.547,1.993-0.993,2.146-0.993c0.153,0,2.403,1.993,5.001,4.428l4.725,4.426 l23.082-0.013c20.114-0.012,22.963-0.07,22.164-0.446c-0.504-0.237-2.362-1.069-4.127-1.847 c-5.284-2.33-11.493-6.689-15.344-10.772c-3.017-3.2-3.033-3.258-1.093-4.079c6.756-2.859,14.147-8.006,17.667-12.304 c3.916-4.781,5.785-10.862,5.396-17.549c-0.194-3.331-0.79-6.113-2.013-9.386c-4.347-11.624-14.751-17.566-32.891-18.786 C123.327,267.017,111.926,266.911,101.218,266.902L101.218,266.902z M113.024,277.295c1.982-0.023,3.96,0.131,5.396,0.468 c7.657,1.799,14.204,8.225,16.237,15.941c0.802,3.044,0.869,7.916,0.149,10.946c-1.768,7.442-7.592,13.62-15.163,16.083 c-2.883,0.938-8.799,1.089-11.89,0.304c-3.908-0.993-7.162-2.867-10.127-5.833c-4.329-4.331-6.323-8.701-6.637-14.541 c-0.574-10.667,6.341-20.144,16.614-22.772C109.056,277.52,111.042,277.318,113.024,277.295L113.024,277.295z" fill="#0c4da2" transform="translate(-22.268306,-211.35692)"/>
  <path d="M110.457,317.024 c-6.878-1.059-13.003-6.737-14.639-13.57c-0.497-2.074-0.435-6.4,0.121-8.514c1.711-6.502,7.039-11.515,13.701-12.891 c2.88-0.595,4.351-0.6,7.1-0.022c3.369,0.707,6.353,2.346,8.853,4.861c2.5,2.515,3.903,4.966,4.759,8.313 c1.433,5.603,0.046,11.302-3.875,15.926C122.86,315.392,116.074,317.89,110.457,317.024L110.457,317.024z" fill="#ebc14a" transform="translate(-22.268306,-211.35692)"/>
  <path d="M36.199,314.997 c0.828-2.472,1.473-4.518,1.433-4.547c-0.04-0.029-1.713-1.277-3.718-2.773l-3.645-2.721l4.577-0.084l4.577-0.084l1.348-4.12 c0.741-2.266,1.422-4.118,1.513-4.116c0.091,0.002,0.729,1.825,1.417,4.051l1.251,4.047l4.651,0.153l4.651,0.153l-3.677,2.733 c-3.363,2.5-3.661,2.8-3.484,3.516c0.106,0.43,0.72,2.354,1.364,4.276c0.644,1.921,1.115,3.549,1.047,3.617 c-0.068,0.068-1.729-1.065-3.692-2.517l-3.569-2.641l-2.802,2.094c-1.541,1.152-3.24,2.401-3.776,2.776l-0.974,0.682 L36.199,314.997z" fill="#ebc14a" transform="translate(-22.268306,-211.35692)"/>
  <path d="M188.14,314.997 c0.828-2.472,1.473-4.518,1.433-4.547c-0.04-0.029-1.713-1.277-3.718-2.773l-3.645-2.721l4.577-0.084l4.577-0.084l1.348-4.12 c0.741-2.266,1.422-4.117,1.513-4.115c0.091,0.003,0.737,1.826,1.434,4.051l1.269,4.046l4.67,0.153l4.67,0.153l-3.646,2.721 c-2.005,1.497-3.678,2.745-3.718,2.773c-0.04,0.029,0.537,1.964,1.283,4.301c0.746,2.337,1.308,4.297,1.25,4.355 c-0.059,0.059-1.712-1.082-3.674-2.534l-3.568-2.64l-2.806,2.097c-1.543,1.153-3.244,2.404-3.78,2.779l-0.974,0.682 L188.14,314.997z" fill="#ebc14a" transform="translate(-22.268306,-211.35692)"/>
  <path d="M56.666,279.564 c-1.429-1.077-3.101-2.314-3.715-2.749l-1.116-0.791l-3.573,2.644c-1.965,1.454-3.621,2.595-3.68,2.536 c-0.059-0.059,0.502-1.961,1.247-4.228c0.745-2.266,1.355-4.209,1.357-4.316c0.002-0.108-1.668-1.445-3.709-2.973l-3.712-2.777 l4.648-0.085l4.648-0.085l1.409-4.28l1.409-4.28l1.374,4.349l1.374,4.349l4.589,0.084l4.589,0.084l-3.569,2.68 c-1.963,1.474-3.569,2.858-3.569,3.076c0,0.218,0.417,1.626,0.926,3.129c0.984,2.903,1.832,5.652,1.733,5.614 C59.291,281.531,58.095,280.641,56.666,279.564L56.666,279.564z" fill="#ebc14a" transform="translate(-22.268306,-211.35692)"/>
  <path d="M178.35,277.107 c0.832-2.483,1.479-4.537,1.439-4.566c-0.04-0.029-1.713-1.277-3.718-2.773l-3.645-2.721l4.577-0.084l4.577-0.084l1.347-4.118 c0.741-2.265,1.444-4.015,1.562-3.89c0.118,0.125,0.76,1.947,1.426,4.049l1.212,3.821l4.642,0.153l4.642,0.153l-3.686,2.74 c-2.027,1.507-3.686,2.819-3.686,2.917c0,0.097,0.618,2.019,1.373,4.27c0.755,2.251,1.319,4.146,1.253,4.212 c-0.066,0.066-1.721-1.066-3.679-2.515l-3.56-2.634l-2.814,2.055c-1.548,1.13-3.256,2.387-3.795,2.792l-0.981,0.737 L178.35,277.107z" fill="#ebc14a" transform="translate(-22.268306,-211.35692)"/>
  <path d="M152.355,252.451 c0-0.057,0.619-1.95,1.376-4.206c0.757-2.256,1.376-4.208,1.376-4.339c0-0.13-1.606-1.443-3.569-2.917l-3.569-2.68l4.463-0.085 l4.463-0.085l1.459-4.348l1.459-4.348l1.376,4.349l1.376,4.349l4.54,0.084l4.54,0.084l-3.521,2.599 c-1.936,1.429-3.525,2.811-3.531,3.07c-0.006,0.259,0.599,2.288,1.344,4.509s1.296,4.038,1.225,4.038s-1.709-1.169-3.641-2.599 c-1.932-1.429-3.6-2.599-3.708-2.599c-0.108,0-1.649,1.066-3.424,2.369C153.02,252.171,152.355,252.625,152.355,252.451 L152.355,252.451z" fill="#ebc14a" transform="translate(-22.268306,-211.35692)"/>
  <path d="M68.897,251.988 c0.002-0.125,0.612-2.081,1.356-4.347c0.834-2.538,1.248-4.246,1.08-4.449c-0.15-0.181-1.869-1.491-3.819-2.912l-3.546-2.583 l4.748-0.084l4.748-0.084l1.286-4.124c0.708-2.269,1.387-4.019,1.509-3.89c0.123,0.129,0.762,1.954,1.42,4.056l1.197,3.821 l4.828,0.085l4.828,0.085l-3.882,2.92c-2.135,1.606-3.823,3.081-3.751,3.279c0.779,2.124,2.706,8.216,2.623,8.294 c-0.059,0.056-1.656-1.053-3.549-2.465c-1.892-1.412-3.588-2.566-3.769-2.566c-0.181,0-1.9,1.169-3.82,2.597 C70.466,251.048,68.896,252.114,68.897,251.988L68.897,251.988z" fill="#ebc14a" transform="translate(-22.268306,-211.35692)"/>
  <path d="M110.472,241.754 c0-0.059,0.619-1.953,1.376-4.209c0.757-2.256,1.372-4.245,1.367-4.42c-0.005-0.175-1.621-1.488-3.592-2.917l-3.584-2.599 l4.487-0.085l4.487-0.085l1.478-4.432l1.478-4.433l1.366,4.433l1.366,4.433l4.532,0.084l4.532,0.084l-3.521,2.599 c-1.936,1.429-3.525,2.758-3.531,2.954c-0.006,0.195,0.592,2.222,1.328,4.504c0.736,2.282,1.183,4.062,0.994,3.955 c-0.189-0.107-1.804-1.274-3.588-2.593c-1.784-1.32-3.348-2.399-3.475-2.399c-0.127,0-1.694,1.073-3.482,2.384 C111.055,241.529,110.472,241.927,110.472,241.754L110.472,241.754z" fill="#ebc14a" transform="translate(-22.268306,-211.35692)"/>
</svg>
