<svg fill="#bac8d3" width="48" height="48" viewBox="0 0 192 192" xmlns="http://www.w3.org/2000/svg">
  <path d="M74,178.504c0,3.032-2.464,5.496-5.504,5.496H13.504C10.464,184,8,181.536,8,178.496v-15.4 c0-3.032,2.464-5.496,5.504-5.496h55c3.032,0,5.496,2.464,5.496,5.504v15.392V178.504z M178.504,47.6 c3.032,0,5.496-2.464,5.496-5.504V13.512c0.004-3.04-2.456-5.508-5.496-5.512c-0.003,0-0.005,0-0.008,0H13.504 C10.464,8,8,10.464,8,13.504c0,0,0,0,0,0v120.992c0,3.04,2.464,5.504,5.504,5.504h55c3.032,0,5.496-2.464,5.496-5.504v-15.4 c0-3.032,2.464-5.496,5.504-5.496h98.992c3.04,0,5.504-2.464,5.504-5.504V79.504c-0.004-3.037-2.467-5.496-5.504-5.496H79.504 c-3.037-0.004-5.496-2.467-5.496-5.504v-15.4c0-3.032,2.464-5.496,5.504-5.496h98.992V47.6z"/>
</svg>
