<svg fill="#bac8d3" width="48" height="48" viewBox="0 0 192 192" xmlns="http://www.w3.org/2000/svg">
  <path d="M379.588,5012.727c-4.923,5.11-9.172,10.829-12.642,17.017l-5.34-2.788 c-0.767-3.472-4.014-5.82-7.553-5.46c-3.776,0.407-6.513,3.991-5.989,7.848c0.368,3.764,3.716,6.515,7.478,6.148 c0.069-0.007,0.138-0.018,0.207-0.025c0.731-0.083,1.439-0.31,2.08-0.67l5.215,2.788 c-2.883,6.497-4.939,13.333-6.122,20.341l8.593,1.592c2.604-15.281,9.773-29.244,20.453-40.545L379.588,5012.727z" transform="translate(-340 -4954)"/>
  <path d="M442.385,4985.878c-1.955,0-3.909,0.133-5.864,0.133l-0.782-7.318 c2.087-1.725,3.393-4.513,3.002-7.574c-0.438-4.488-4.431-7.772-8.919-7.333c-0.068,0.007-0.137,0.014-0.205,0.021 c-4.558,0.529-7.685,4.646-7.162,9.302c0.391,2.928,2.213,5.46,4.691,6.519l0.782,7.311 c-8.209,1.329-16.028,3.857-23.58,7.574l3.776,7.981c10.675-5.186,22.392-7.873,34.26-7.848 c5.731,0,11.336,0.663,16.935,1.866l1.822-8.644C454.979,4986.537,448.69,4985.871,442.385,4985.878L442.385,4985.878z" transform="translate(-340 -4954)"/>
  <path d="M517.942,5015.55c3.82-0.515,6.503-4.026,5.996-7.848 c-0.524-3.85-3.909-6.637-7.685-6.115c-3.518,0.4-6.122,3.591-6.122,7.052l-4.824,4.25 c-4.835-5.056-10.258-9.519-16.153-13.289l-4.558,7.448c12.891,8.283,23.079,20.157,29.311,34.156l7.944-3.583 c-2.858-6.443-6.489-12.515-10.813-18.08l4.558-4.131C516.355,5015.651,517.161,5015.702,517.942,5015.55z" transform="translate(-340 -4954)"/>
  <path d="M436.138,5105.01c-4.426,0.266-8.858,0.399-13.291,0.399 c-10.031,0-19.796-0.663-28.397-2.125c-4.426-0.663-9.64-1.866-14.589-3.468c11.986,21.677,35.168,36.436,61.617,36.436 c32.697,0,60.186-22.34,68.122-52.649c-7.818,5.186-17.185,9.573-28.131,13.16 C468.178,5101.283,452.416,5104.081,436.138,5105.01z" transform="translate(-340 -4954)"/>
  <path d="M471.984,5068.988c-8.6,0-15.504-7.185-15.504-15.821 c0-8.777,7.037-15.821,15.504-15.821c8.6,0,15.504,7.178,15.504,15.821C487.488,5061.944,480.584,5068.988,471.984,5068.988 z M417.795,5079.624c-11.727,0-21.102-9.706-21.102-21.537c0-11.964,9.515-21.537,21.102-21.537 c11.727,0,21.102,9.706,21.102,21.537S429.382,5079.624,417.795,5079.624z M442.415,5003.579 c-38.295,0-69.561,31.109-69.561,69.393c-0.003,4.963,0.522,9.908,1.564,14.759c7.685,5.582,31,10.369,61.219,8.51 c32.962-1.992,60.577-11.168,76.339-25.261c0-2.258-0.258-4.52-0.516-6.785c-4.3-34.556-34.002-60.612-69.044-60.612 V5003.579z" transform="translate(-340 -4954)"/>
</svg>
