<svg width="48" height="48" viewBox="0 0 192 192" xmlns="http://www.w3.org/2000/svg">
  <path d="M157.824 28.567c-7.531 0-15.845 0-20.774 2.932 4.154 5.375 7.27 12.709 7.27 22.485 0 23.948-17.149 41.053-50.918 41.053-14.026 0-25.195.49-25.195 7.824 0 20.533 88.841-7.334 88.841 43.502 0 18.084-19.483 37.637-62.603 37.637-36.371 0-60.269-10.26-60.269-30.303 0-15.889 12.728-23.465 24.419-23.465v-.49c-6.24-3.664-20.005-6.844-20.005-20.526 0-12.219 15.069-21.506 21.042-23.217C48.463 77.45 39.634 67.667 39.634 52.28c0-22.244 18.179-44.239 53.253-44.239 11.43 0 24.941 4.402 33.248 11.246 6.234-7.824 16.366-11.736 31.69-11.246v20.526zM63.786 149.792c0 9.777 8.835 14.172 35.85 14.172 20.787 0 27.797-9.777 27.797-14.172 0-5.865-9.605-14.668-40.779-14.668-17.672-.007-22.868 9.286-22.868 14.668m28.84-119.266c-13.765 0-23.382 9.287-23.382 21.016 0 11.736 9.618 21.016 23.382 21.016 12.206 0 22.078-9.28 22.078-21.016 0-11.729-9.872-21.016-22.078-21.016" fill="#2d2d2d"/>
</svg>
