<svg width="48" height="48" viewBox="0 0 192 192" xmlns="http://www.w3.org/2000/svg" xmlns:xlink="http://www.w3.org/1999/xlink">
  <defs>
    <path id="a" d="M180.001,80H98v34h47.2c-4.4,21.6-22.8,34-47.2,34c-28.8,0-52-23.2-52-52s23.2-52,52-52 c12.4,0,23.6,4.4,32.4,11.6l25.6-25.6C140.4,16.4,120.4,8,98,8C49.2,8,9.999,47.2,9.999,96S49.2,184,98,184 c44,0,84.001-32,84.001-88C182.001,90.8,181.201,85.2,180.001,80z"/>
  </defs>
  <clipPath id="b">
    <use xlink:href="#a" overflow="visible"/>
  </clipPath>
  <path d="M1.999,148V44L70,96L1.999,148z" clip-path="url(#b)" fill="#FBBC05"/>
  <defs>
    <path id="c" d="M180.001,80H98v34h47.2c-4.4,21.6-22.8,34-47.2,34c-28.8,0-52-23.2-52-52s23.2-52,52-52 c12.4,0,23.6,4.4,32.4,11.6l25.6-25.6C140.4,16.4,120.4,8,98,8C49.2,8,9.999,47.2,9.999,96S49.2,184,98,184 c44,0,84.001-32,84.001-88C182.001,90.8,181.201,85.2,180.001,80z"/>
  </defs>
  <clipPath id="d">
    <use xlink:href="#c" overflow="visible"/>
  </clipPath>
  <path d="M1.999,44L70,96l28-24.4L194.001,56V0H1.999V44z" clip-path="url(#d)" fill="#EA4335"/>
  <g>
    <defs>
      <path id="e" d="M180.001,80H98v34h47.2c-4.4,21.6-22.8,34-47.2,34c-28.8,0-52-23.2-52-52s23.2-52,52-52 c12.4,0,23.6,4.4,32.4,11.6l25.6-25.6C140.4,16.4,120.4,8,98,8C49.2,8,9.999,47.2,9.999,96S49.2,184,98,184 c44,0,84.001-32,84.001-88C182.001,90.8,181.201,85.2,180.001,80z"/>
    </defs>
    <clipPath id="f">
      <use xlink:href="#e" overflow="visible"/>
    </clipPath>
    <path d="M1.999,148L122,56l31.6,4l40.4-60v192H1.999V148z" clip-path="url(#f)" fill="#34A853"/>
  </g>
  <g>
    <defs>
      <path id="g" d="M180.001,80H98v34h47.2c-4.4,21.6-22.8,34-47.2,34c-28.8,0-52-23.2-52-52s23.2-52,52-52 c12.4,0,23.6,4.4,32.4,11.6l25.6-25.6C140.4,16.4,120.4,8,98,8C49.2,8,9.999,47.2,9.999,96S49.2,184,98,184 c44,0,84.001-32,84.001-88C182.001,90.8,181.201,85.2,180.001,80z"/>
    </defs>
    <clipPath id="h">
      <use xlink:href="#g" overflow="visible"/>
    </clipPath>
    <path d="M194.001,192L70,96L54,84l140.001-40V192z" clip-path="url(#h)" fill="#4285F4"/>
  </g>
</svg>
