<svg width="48" height="48" viewBox="0 0 192 192" xmlns="http://www.w3.org/2000/svg">
  <path d="M135.118,32.451c13.473,0.046,24.384,10.957,24.43,24.43v19.57H184v-19.57 C184.012,29.897,162.145,8.012,135.16,8c-0.014,0-0.028,0-0.042,0h-19.57v24.451H135.118z" fill="#FBBC05"/>
  <path d="M32.451,56.882c0.046-13.473,10.957-24.384,24.43-24.43h19.57V8h-19.57 C29.897,7.988,8.012,29.855,8,56.84c0,0.014,0,0.028,0,0.042v19.57h24.451V56.882z" fill="#EA4335"/>
  <path d="M56.882,159.549c-13.473-0.046-24.384-10.957-24.43-24.43v-19.57H8v19.57 C7.988,162.103,29.855,183.988,56.84,184c0.014,0,0.028,0,0.042,0h19.57v-24.451H56.882z" fill="#4285F4"/>
  <path d="M154.667,174.215c10.796,0,19.549-8.752,19.549-19.549c0-10.796-8.752-19.549-19.549-19.549 c-10.796,0-19.549,8.752-19.549,19.549C135.118,165.463,143.87,174.215,154.667,174.215 C154.667,174.215,154.667,174.215,154.667,174.215z" fill="#34A853"/>
  <path d="M96,130.215c18.897,0,34.215-15.319,34.215-34.215S114.897,61.785,96,61.785 S61.785,77.103,61.785,96C61.785,114.897,77.103,130.215,96,130.215C96,130.215,96,130.215,96,130.215z" fill="#4285F4"/>
</svg>
