<svg width="48" height="48" viewBox="0 0 192 192" xmlns="http://www.w3.org/2000/svg">
  <circle cx="154.752" cy="154.667" r="19.556" fill="#34a853"/>
  <circle cx="96.086" cy="105.778" r="29.333" fill="#4285f4"/>
  <path fill="#ea4335" d="M8,143.911C8,166.046,25.954,184,48.089,184H96v-19.556l-49.011-0.122 c-10.756,0-19.433-10.01-19.433-21.878v-22H8V143.911z"/>
  <path fill="#fbbc05" d="M184,67.644c0-22.134-17.954-40.089-40.089-40.089h-23.467l24.444,19.556 c10.756,0,19.556,10.132,19.556,22v36.667H184V67.644z"/>
  <path fill="#4285f4" d="M115.556,8H76.444L61.778,27.556H48.089C25.954,27.556,8,45.51,8,67.644v23.467h19.556v-22 c0-11.868,8.8-22,19.556-22h97.778L115.556,8z"/>
</svg>
