<svg width="48" height="48" viewBox="0 0 192 192" xmlns="http://www.w3.org/2000/svg">
  <path fill="#FFFFFF" d="M180,88.436c0-41.733-37.416-75.564-83.571-75.564c-46.155,0-83.571,33.831-83.571,75.564 c0,11.35,2.786,22.106,7.744,31.765c-0.987,1.852-1.742,3.811-2.213,5.878c-4.664,20.448,18.878,43.257,52.583,50.945 c33.705,7.688,64.809-2.655,69.473-23.103c0.107-0.467,0.182-0.937,0.26-1.406C164.299,139.158,180,115.461,180,88.436z"/>
  <g fill="#000000">
    <path d="M184,89.772c0.06,21.451-8.245,39.265-23.71,53.834c-3.543,3.338-7.667,6.058-11.492,9.102 c-0.673,0.536-1.297,1.2-1.759,1.922c-5.078,7.942-11.179,14.834-19.62,19.369c-6.655,3.576-13.824,5.657-21.151,7.254 c-6.427,1.401-12.9,2.34-19.521,1.896c-16.297-1.094-31.812-4.763-45.86-13.508c-9.014-5.611-16.702-12.505-21.717-22.028 c-3.248-6.168-5.353-12.677-4.912-19.736c0.177-2.838,0.91-5.639,1.359-8.462c0.065-0.406,0.107-0.93-0.089-1.246 c-2.988-4.823-3.704-10.406-5.257-15.7c-4.002-13.647-2.37-27.054,2.209-40.204c6.724-19.307,19.904-33.015,37.696-42.558 c6.181-3.316,12.599-6.208,19.457-7.697c6.867-1.491,13.766-3.154,20.843-3.248c5.497-0.073,11.021,0.02,16.494,0.495 c10.901,0.946,21.447,3.517,31.417,8.114c20.076,9.256,34.059,24.201,41.413,45.105C182.894,71.271,183.955,80.46,184,89.772z M22.358,107.411c1.278-1.041,2.368-2.081,3.6-2.908c11.339-7.611,23.751-10.403,37.094-7.312 c5.66,1.311,11.115,3.615,16.555,5.746c9.967,3.904,20.158,6.044,30.945,5.484c4.762-0.247,9.651-0.052,14.342,0.755 c11.967,2.059,20.216,8.849,23.992,20.575c0.829,2.574,1.153,5.312,1.728,8.065c2.201-0.821,3.924-2.443,5.421-4.296 c5.362-6.638,10.053-13.69,13.227-21.67c4.795-12.057,6.845-24.505,3.907-37.257c-4.97-21.577-17.588-37.285-37.582-46.923 c-9.214-4.442-19.036-6.808-29.161-7.916c-8.952-0.979-17.871-1.322-26.798,0.709c-7.952,1.809-15.791,3.712-23.182,7.361 C28.812,41.467,15.299,70.362,19.244,98.548C19.679,101.651,20.542,104.646,22.358,107.411z M86.068,173.084 c13.458-0.002,24.847-2.336,34.351-6.88c8.825-4.22,16.216-9.784,19.131-19.865c1.045-3.612,1.451-7.076,0.479-10.624 c-2.321-8.471-7.23-14.546-16.346-15.901c-4.372-0.65-8.869-0.688-13.305-0.634c-9.356,0.114-18.415-1.25-27.163-4.618 c-4.063-1.564-8.129-3.128-12.245-4.543c-7.703-2.648-15.482-4.579-23.794-3.36c-5.322,0.78-10.321,2.201-14.777,5.234 c-4.957,3.374-7.478,8.176-7.912,14.102c-0.384,5.25,1.073,10.101,3.32,14.767c3.496,7.258,8.95,12.713,15.428,17.389 C56.589,167.791,71.253,173.31,86.068,173.084z"/>
  <path d="M143.538,69.105c-0.107,13.274-13.326,18.953-22.291,14.375c-9.535-4.868-11.759-18.646-4.101-25.678 c2.448-2.248,5.449-3.576,8.519-4.625c1.198-0.409,2.701-0.058,4.045,0.11C137.926,54.318,143.592,60.824,143.538,69.105z M127.141,59.643c-1.134-0.275-2.111-0.858-2.657-0.583c-2.06,1.038-4.085,2.215-5.914,3.614 c-1.243,0.951-1.632,2.515-1.037,4.078c0.271,0.711,0.399,1.735,1.589,1.586c1.131-0.141,2.032-0.534,2.15-1.872 c0.044-0.504,0.213-0.997,0.266-1.231c1.041-0.308,2.166-0.295,2.607-0.838C125.256,63.032,126.058,61.416,127.141,59.643z"/>
  <path d="M48.812,67.933c0.107-4.775,2.478-9.397,7.777-12.299c1.541-0.844,3.07-1.859,4.736-2.279 c1.51-0.381,3.218-0.224,4.803-0.02c7.286,0.942,12.497,6.22,13.571,13.609c0.996,6.854-2.726,13.789-8.927,16.631 C60.181,88.428,48.741,80.876,48.812,67.933z M63.4,60.155c-0.413-0.298-0.798-0.624-1.227-0.877 c-1.403-0.827-2.506,0.104-3.656,0.676c-2.53,1.258-4.437,3.063-4.794,6.013c-0.08,0.66,0.122,1.691,0.568,1.986 c0.473,0.312,1.394-0.027,2.113-0.131c0.196-0.028,0.373-0.223,0.548-0.356C59.537,65.496,61.652,63.109,63.4,60.155z"/>
  <path d="M97.216,87.519c-3.166-0.027-6.255-0.533-9.069-2.01c-1.294-0.679-2.459-1.679-3.522-2.7 c-0.939-0.902-1.097-2.176-0.874-3.455c0.331-1.899,0.914-2.234,2.833-2.165c1.473,0.053,2.575,0.592,3.548,1.65 c3.306,3.596,6.876,3.185,10.248,1.177c1.397-0.832,2.744-1.757,4.06-2.713c1.252-0.909,2.338-0.196,3.47,0.211 c1.026,0.37,0.782,1.289,0.785,2.028c0.012,3.05-1.519,5.164-4.169,6.513C102.233,87.221,99.752,87.532,97.216,87.519z"/>
  <path d="M111.091,123.369c5.718,0.144,10.004,4.543,9.834,10.095c-0.164,5.369-4.246,9.274-9.588,9.169 c-5.236-0.103-9.674-4.628-9.526-9.714C101.949,128.219,106.767,123.26,111.091,123.369z M106.219,130.846 c0.011,1.385,0.607,2.04,1.821,1.999c0.881-0.03,1.565-0.986,1.575-2.202c0.008-0.929-1.002-1.799-2.093-1.689 C106.413,129.066,106.186,129.892,106.219,130.846z"/>
  <path d="M56.187,123.369c5.913,0.136,10.196,4.361,10.084,9.947c-0.109,5.434-4.403,9.495-9.865,9.33 c-5.196-0.157-9.221-4.766-9.163-10.306C47.298,127.157,52.125,123.942,56.187,123.369z M54.899,131.068 c-0.012-1.209-0.899-2.133-2.019-2.103c-0.766,0.021-2.107,1.475-1.802,2.249c0.259,0.657,1.012,1.32,1.694,1.558 C53.583,133.056,54.906,131.829,54.899,131.068z"/>
  <path d="M84.068,147.094c-3.165-0.117-6.059-0.742-8.585-2.554c-2.211-1.587-3.111-3.704-2.559-5.903 c0.339-1.348,1.17-2.06,2.551-2.02c1.416,0.041,2.648,0.261,3.512,1.767c1.317,2.295,3.55,3.126,6.023,2.123 c2-0.811,3.823-2.105,5.635-3.317c1.146-0.767,2.463-1.044,3.325-0.373c1.565,1.218,1.972,2.669,1.095,4.148 c-1.954,3.298-4.804,5.322-8.619,5.907C85.621,146.999,84.781,147.03,84.068,147.094z"/>
  </g>
</svg>
