<svg width="48" height="48" viewBox="0 0 192 192" xmlns="http://www.w3.org/2000/svg">
  <g fill="#06133F">
    <path d="M19.515,30.074h5.845c11.295,2.022,16.525,17.295,7.911,25.272 C25.229,63.938,9.78,58.664,8,47.193v-5.626C9.978,36.139,14.131,32.074,19.515,30.074z"/>
    <path d="M10.593,70.091c8.395-0.11,16.789-0.044,25.162,0.088c-0.286,30.59,0.088,61.157-0.198,91.747 H10.593C10.571,131.314,10.549,100.703,10.593,70.091z"/>
    <path d="M48.391,107.273c0.857-20.833,20.349-38.325,41.094-37.27c9.889-0.286,18.503,4.922,26.458,10.153 c7.933-4.9,16.218-10.262,25.975-10.131c20.898-1.824,40.676,16.02,41.775,36.809c0.637,18.196-0.022,36.435,0.308,54.631 c-8.395,0.22-16.789,0.33-25.162,0.088c-0.022-16.767,0.176-33.534-0.022-50.279c0.198-5.999-3.011-12.086-8.548-14.679 c-8.9-4.791-21.404,2.198-21.338,12.482c-0.418,17.47-0.198,34.963,0.022,52.455c-8.153,0.044-16.306,0.154-24.458,0.396h-1.209 c0.505-16.855,0.264-33.732,0.176-50.609c0.308-6.549-3.516-13.251-9.933-15.295c-8.79-3.626-19.866,3.362-19.932,12.987 c-0.571,17.624,0.132,35.27-0.33,52.916H48.149C48.435,143.708,47.863,125.469,48.391,107.273z"/>
  </g>
</svg>
