<svg width="48" height="48" viewBox="0 0 192 192" xmlns="http://www.w3.org/2000/svg">
  <path d="M49.943 181.572H18.182V62.997h31.764v118.575h-.003zm30.493-45.717c9.791 10.749 24.693 18.816 40.331 18.816 14.666 0 24.935-9.048 24.935-21.515 0-21.986-31.761-24.673-54.752-38.122-13.433-7.821-24.208-19.555-24.208-38.888C66.742 25.595 94.874 8 123.222 8c17.35 0 33.485 4.159 49.628 16.139l-17.111 24.434c-6.859-6.351-18.345-11.224-29.591-11.224-12.454 0-26.394 5.36-26.394 18.557 0 27.635 78.964 19.068 78.964 76.778 0 30.295-27.147 51.316-57.949 51.316-22.975 0-44.238-9.522-61.846-25.678l21.513-22.467zM13.283 28.779C13.283 17.307 22.6 8 34.066 8c11.476 0 20.776 9.307 20.776 20.779 0 11.466-9.3 20.782-20.776 20.782-11.463 0-20.783-9.316-20.783-20.782" fill="#2d2d2d"/>
</svg>
