<svg width="48" height="48" viewBox="0 0 192 192" xmlns="http://www.w3.org/2000/svg">
  <path d="M164.838 46.347c-12.624-11.07-31.169-16.671-55.083-16.671H81.562v132.648h28.192c23.914 0 42.492-5.612 55.083-16.649C177.385 134.694 184 117.527 184 96.027c-.011-21.521-6.626-38.732-19.162-49.68m-14.477 85.117c-8.424 7.696-21.257 11.621-38.148 11.621h-9.802V49.026h9.802c16.891 0 29.736 3.914 38.148 11.577 8.269 7.519 12.624 19.758 12.624 35.447-.01 15.645-4.354 27.872-12.624 35.414zM45.09 109.71c0 8.732-.584 14.885-1.742 18.291-1.08 3.231-2.966 5.943-5.568 8.005-3.153 2.414-7.012 4.19-11.445 5.325-4.333 1.103-9.769 1.676-16.119 1.731H8v19.217h2.117c.485.033.871 0 1.026 0 18.413 0 32.845-3.914 41.776-11.566 9.14-7.85 13.771-19.713 13.771-35.359V29.709H45.101l-.011 80.001z" fill="#e30b02"/>
</svg>
