<svg width="48" height="48" viewBox="0 0 192 192" xmlns="http://www.w3.org/2000/svg">
  <circle cx="87.65" cy="83.819" r="13.808" fill="#fdc02f"/>
  <path d="M75.938,59.095c0.703,2.617,3.397,4.177,6.018,3.474c2.621-0.703,4.173-3.397,3.47-6.018 L80.59,15.965c-1.536-5.732-7.423-9.129-13.152-7.597c-5.736,1.536-9.129,7.427-7.597,13.156L75.938,59.095z" fill="#fdc02f"/>
  <g fill="#284a51">
    <path d="M155.926,79.604c-1.22,4.327-2.887,8.519-4.933,12.542c0.942,2.274,1.791,4.601,2.447,7.049 c8.489,31.669-10.376,64.338-42.049,72.834c-31.673,8.481-64.346-10.384-72.834-42.057 c-7.338-27.388,5.81-55.494,29.982-68.102l-4.343-8.971C35.812,67.521,20.363,100.468,28.96,132.55 c9.901,36.961,48.036,58.98,85.002,49.079c36.969-9.901,58.984-48.036,49.079-85.013 C161.403,90.505,158.975,84.827,155.926,79.604z"/>
    <path d="M93.224,55.204c16.217-0.745,31.8,5.246,43.338,16.004c-1.988,6.466-5.022,12.461-8.925,17.78 c-1.861,2.54-3.914,4.918-6.142,7.118c-0.262,0.259-0.537,0.51-0.803,0.757c-0.884,0.842-1.791,1.66-2.721,2.436 c-0.297,0.251-0.594,0.506-0.896,0.753c-1.085,0.872-2.189,1.718-3.324,2.517c-0.131,0.081-0.247,0.17-0.371,0.262 c-1.32,0.907-2.675,1.76-4.065,2.559c-0.174,0.1-0.359,0.189-0.537,0.29c-1.166,0.652-2.351,1.274-3.555,1.849 c-0.386,0.181-0.772,0.355-1.162,0.529c-1.054,0.475-2.127,0.911-3.208,1.339c-0.417,0.151-0.822,0.317-1.235,0.467 c-1.343,0.483-2.71,0.907-4.092,1.293c-0.127,0.031-0.247,0.077-0.371,0.112c-0.046,0.008-0.089,0.023-0.131,0.031l0,0 c-13.117,3.49-27.164,2.366-39.552-3.181c-1.498-0.672-3.235-0.56-4.636,0.305c-1.401,0.865-2.281,2.355-2.359,3.999 c-0.224,4.868,0.305,9.739,1.575,14.48c6.786,25.331,32.924,40.416,58.258,33.63c13.21-3.54,23.374-11.573,29.407-23.231 c6.651-12.862,6.454-26.199,4.868-30.488c-0.649-1.753-2.227-2.984-4.088-3.2c-1.864-0.228-3.679,0.629-4.709,2.181 c-7.114,10.712-20.092,19.679-33.885,23.373c-2.652,0.71-4.223,3.439-3.513,6.08c0.71,2.656,3.436,4.223,6.088,3.517 c11.295-3.023,21.876-8.902,30.14-16.498c-0.741,3.443-2.003,7.288-4.053,11.083c-4.81,8.894-12.484,14.812-22.825,17.587 c-20.042,5.377-40.714-6.574-46.083-26.608c-0.386-1.428-0.683-2.884-0.896-4.339c12.468,3.941,25.917,4.308,38.633,0.957 c0.004,0,0.012,0,0.019,0c0.093-0.019,0.197-0.05,0.278-0.066c1.76-0.483,3.486-1.035,5.192-1.633 c0.475-0.166,0.934-0.363,1.405-0.537c1.278-0.483,2.54-1.008,3.779-1.563c0.452-0.205,0.911-0.413,1.363-0.625 c1.394-0.664,2.76-1.367,4.1-2.108c0.232-0.131,0.471-0.243,0.699-0.378c1.629-0.934,3.216-1.938,4.756-2.992 c0.124-0.081,0.247-0.189,0.371-0.274c1.355-0.942,2.664-1.93,3.945-2.976c0.359-0.286,0.706-0.575,1.058-0.884 c1.081-0.907,2.135-1.853,3.154-2.818c0.324-0.305,0.652-0.61,0.969-0.919c2.59-2.575,4.987-5.335,7.157-8.292 c0.081-0.116,0.189-0.228,0.274-0.347c0.054-0.077,0.085-0.151,0.135-0.232c3.227-4.497,5.96-9.361,8.06-14.561 c0.012,0.015,0.027,0.042,0.039,0.058c1.386-3.968,2.308-8.087,2.795-12.275c-0.328-0.359-0.641-0.73-0.973-1.077 c-0.131-0.151-0.274-0.286-0.425-0.417c-13.7-13.939-32.974-21.772-53.043-20.756L93.224,55.204z"/>
  </g>
</svg>
