<svg width="48" height="48" viewBox="0 0 192 192" xmlns="http://www.w3.org/2000/svg">
  <defs>
    <filter id="a" width="176" height="156.218" x="8" y="17.891" filterUnits="userSpaceOnUse">
      <feColorMatrix values="1 0 0 0 0 0 1 0 0 0 0 0 1 0 0 0 0 0 1 0"/>
    </filter>
  </defs>
  <mask id="b" width="176" height="156.218" x="8" y="17.891" maskUnits="userSpaceOnUse">
    <path fill="#fff" d="M184.098,17.613H7.932v156.596h176.166V17.61V17.613z" filter="url(#a)"/>
  </mask>
  <g mask="url(#b)">
    <path fill="#140ea8" d="M79.752,26.642c4.791-8.367,15.409-11.236,23.71-6.404s11.146,15.534,6.35,23.901L40.39,165.36 c-4.791,8.367-15.406,11.234-23.71,6.402c-8.299-4.832-11.146-15.534-6.35-23.901L79.752,26.642z"/>
    <path fill="#a1a6f3" d="M142.178,77.943c-3.221-5.656-9.238-9.138-15.747-9.113c-6.505-0.021-12.517,3.461-15.736,9.113 l-39.4,68.792c-4.99,8.716-2.028,19.859,6.617,24.893c8.645,5.031,19.701,2.044,24.691-6.672 c3.026-5.307,8.662-8.587,14.771-8.596h18.121c6.109,0.009,11.745,3.289,14.771,8.596c4.993,8.716,16.047,11.702,24.691,6.672 c8.647-5.034,11.61-16.177,6.617-24.893L142.18,77.943H142.178z"/>
    <path fill="#5a66e9" d="M110.757,77.834c4.99-8.716,16.047-11.7,24.691-6.669c8.645,5.031,11.61,16.177,6.617,24.893 l-39.462,68.898c-4.99,8.716-16.047,11.702-24.691,6.672c-8.645-5.034-11.61-16.177-6.617-24.893 C71.295,146.735,110.757,77.834,110.757,77.834z"/>
  </g>
</svg>
