<svg fill="#f7f7f7" width="48" height="48" viewBox="0 0 192 192" xmlns="http://www.w3.org/2000/svg">
  <path d="M33.512,127.338h-5.658C16.934,127.338,8,118.37,8,107.409V39.053 c14.096,0,25.512,11.459,25.512,25.609V127.338z"/>
  <path d="M164.147,152.947h-5.658V64.662H184v68.356C184,144.078,175.066,152.947,164.147,152.947z"/>
  <path d="M8,107.409v-5.58h50.774c14.096,0,25.248,11.459,25.248,25.609H27.853 C16.934,127.338,8,118.47,8,107.409z"/>
  <path d="M83.98,127.338h87.95v5.679c0,10.961-2.634,19.929-13.554,19.929h-48.985 C95.396,152.947,83.98,141.488,83.98,127.338z"/>
  <path d="M58.731,39.053h105.415c10.919,0,19.853,8.968,19.853,19.929v5.679H84.243 C70.147,64.662,58.731,53.203,58.731,39.053z"/>
</svg>
