<svg fill="#000000" width="48" height="48" viewBox="0 0 192 192" xmlns="http://www.w3.org/2000/svg">
  <path d="M34.788,133.682c0.357-0.357,6.786,25.716,42.861,21.073c-7.143-17.144-28.931-28.217-34.289-28.574 c1.072-0.714,7.143-5.358,8.215-6.072c-1.429,4.643,19.287,23.931,35.36,18.573c-4.286-12.858-21.787-23.931-26.431-24.288 c1.786-1.072,3.929-2.5,5.715-3.572c-1.072,2.5,14.287,17.501,30.36,16.073c0-7.858-17.501-22.502-20.716-21.43 c1.786-0.714,3.929-2.143,5-2.857c2.143,5.358,17.144,16.787,27.502,14.644c-8.572-17.859-19.287-18.93-19.287-18.93l5-2.143 c0,4.643,14.644,15.716,25.002,13.215c-2.5-8.572-9.644-15.001-18.216-16.43l5.358-2.5c-0.714,1.429,11.429,11.787,23.573,11.072 c-5.715-13.93-13.573-14.287-16.43-14.644c1.429-0.714,3.215-1.786,5-2.5c0.714,1.786,7.143,10.715,22.502,8.572 c-3.215-6.429-9.286-10.715-16.43-11.43c2.143-1.429,3.929-1.786,5.358-2.857c1.072,1.429,5,9.644,20.716,6.429 c-2.5-5.358-7.501-9.286-13.573-10.358c1.429-0.714,2.857-1.786,3.929-2.143c4.643,4.643,11.43,6.786,17.859,5.358 c-1.786-5-7.858-7.858-13.215-7.858c2.5-1.429,4.643-3.215,4.643-3.215c0.714,1.786,5.358,6.429,16.43,3.215 c-3.572-6.786-12.501-6.072-12.501-6.072c2.143-1.786,2.857-2.143,4.643-3.572c3.572,4.286,9.644,5.358,14.287,2.143 c-2.143-3.929-6.429-6.072-10.715-5.358c1.072-1.072,2.143-2.143,3.215-3.215c-0.357,1.072,6.429,4.643,12.858,0 c-2.5-2.5-6.072-3.929-9.644-3.215c0.714-1.072,0.714-1.072,1.786-2.143c3.215,2.5,7.858,1.786,10.715-1.072 c-2.5-1.072-5.715-1.429-8.929-0.357l2.143-3.215c2.857,2.143,6.786,1.072,8.929-1.786l0,0c-2.5-1.072-5-1.429-7.501-0.714 c0.357-0.714,0.714-1.072,0.714-1.786c11.072,1.429,7.143-11.429,4.643-18.573C139.796,84.035,84.792,39.745,17.286,79.034 c-3.215,8.215-4.286,16.787-3.572,25.716c0,1.072,0.357,2.5,0.357,3.572c0.357,3.572,1.429,7.143,2.5,10.715 c1.429,3.929,2.857,6.429,4.286,10.358c1.072-0.714,2.143-1.429,2.857-2.143c-2.5-4.286-12.501-30.36,0-45.361 c11.787-0.357,13.215,33.931,11.429,37.503c0,0,5.715-3.572,7.858-5c-2.5-1.072-11.429-30.717,3.572-42.861 c0,0,13.573,5,7.858,36.432c2.143-1.429,5.358-2.857,8.572-4.286c-1.786-2.857-10.715-25.359,3.929-37.146 c7.858,3.215,7.501,27.859,4.286,33.217c2.5-1.072,5.358-2.5,7.858-3.572c-4.643-2.143-4.286-25.359,3.572-31.431 c8.572,8.215,6.429,21.787,4.286,27.859l6.429-2.857c-5.358-9.644-2.857-21.787,2.857-26.431 c4.286,2.857,5.358,10.715,3.572,23.573c1.786-0.714,2.857-1.429,4.643-1.786c-1.072-2.143-3.929-15.358,3.572-22.859 c6.786,3.215,4.286,18.216,3.929,19.644c0,0,3.929-1.429,3.929-1.786c-1.429-2.857-2.143-13.93,3.929-19.287 c2.5,1.786,5,6.786,2.857,16.43c1.429-0.714,2.857-1.429,4.643-2.143c-2.143-2.5-0.714-12.144,2.5-16.073 c3.572,1.429,5.358,10.001,3.929,12.858c1.072-0.357,2.143-1.072,3.929-2.143c-1.072-1.786-1.786-11.072,2.143-13.573 c3.572,2.5,3.215,8.929,3.215,10.715c1.072-0.714,4.286-2.143,4.286-2.143c-2.857-3.572-2.143-8.572,1.429-11.43 c3.929,0.714,3.929,7.858,3.572,8.572c1.429-1.072,3.929-2.857,5-3.572c-3.572-0.714-3.215-6.429-1.072-8.929 c2.5,0.357,3.929,1.786,4.643,6.072c0.714-0.714,2.857-2.5,3.572-3.215c-2.5-0.714-3.572-3.572-2.857-6.072 c0.357-0.714,0.714-1.429,1.429-1.786c2.143,0.714,3.929,2.5,4.286,5c1.072-1.072,1.786-1.786,2.5-2.857 c-2.143-1.786-2.5-4.643-1.429-6.786c1.786,0.357,3.572,1.786,3.929,3.572l1.786-2.857c-2.143-1.072-2.5-3.929-1.429-5.715l0,0 c1.786,0.357,3.215,1.786,3.572,3.572C153.012,82.963,61.219,90.821,13,144.754c0,0-5,5.358-5,7.858v18.216h1.072 C14.429,156.183,23.001,143.325,34.788,133.682"/>
</svg>
