<svg width="48" height="48" viewBox="0 0 192 192" xmlns="http://www.w3.org/2000/svg">
  <g fill="#5c75ef">
    <path d="M975.105,10048.468c-273.983-10.313-504.135-106.396-681.175-284.296 c-51.565-51.736-88.348-99.521-121.522-157.445c-75.973-133.038-105.193-290.999-87.317-470.102 c17.532-172.571,77.176-309.219,183.916-420.943c61.191-63.94,155.555-119.459,262.123-154.008 c177.728-57.581,438.991-67.55,642.845-24.751c199.213,41.939,368.519,138.71,481.102,275.186 c102.271,123.929,160.539,267.795,178.759,441.397c21.657,204.886-13.751,371.269-106.224,500.182 c-65.831,91.786-166.555,168.79-288.936,220.87C1310.106,10029.389,1149.051,10054.999,975.105,10048.468z M1188.584,9884.319 c114.818-8.938,212.792-35.408,294.781-80.098c103.474-56.206,169.305-130.116,200.932-225.684 c22.001-66.348,27.158-147.992,14.61-233.934c-21.314-147.305-98.318-269.857-221.558-352.705 c-96.255-64.629-210.386-102.271-354.08-116.709c-36.611-3.61-138.023-5.157-181.337-2.579 c-185.978,10.829-321.766,58.785-407.536,143.867c-74.598,74.082-116.537,168.274-126.335,283.952 c-2.578,31.11-1.203,99.521,2.578,122.896c4.641,28.876,9.625,49.158,18.22,75.457c30.252,91.958,89.551,169.821,182.197,238.746 c100.724,74.941,216.745,121.35,351.502,140.601C1030.451,9887.757,1112.784,9889.991,1188.584,9884.319z" transform="translate(0.000000,1024.000000) scale(0.100000,-0.100000)"/>
    <path d="M1055.031,9754.547c-118.084-8.25-221.558-53.972-299.249-132.179 c-66.519-67.034-98.146-150.055-94.192-246.825c2.578-58.612,12.204-101.583,32.142-143.351 c46.409-97.458,132.694-151.086,268.826-167.071c50.018-5.844,127.194-4.984,174.978,1.892 c179.103,26.126,300.625,132.178,333.11,290.999c4.985,24.579,8.422,60.331,8.422,87.832v23.892l-5.5-1.031 c-3.094-0.688-14.954-3.094-26.298-5.5c-16.673-3.609-26.986-4.813-54.315-5.5c-127.366-3.61-201.62,38.674-232.73,132.351 c-14.782,44.689-16.845,102.099-5.328,147.647c2.063,8.423,3.094,15.642,2.406,16.157 C1154.551,9755.578,1076.516,9756.094,1055.031,9754.547z" transform="translate(0.000000,1024.000000) scale(0.100000,-0.100000)"/>
  </g>
</svg>
