<svg width="48" height="48" viewBox="0 0 192 192" xmlns="http://www.w3.org/2000/svg">
  <path d="M11.995,119.97c-3.418-9.406-4.467-19.164-3.809-29.064c1.21-18.202,7.817-34.279,20.176-47.738 c16.97-18.479,38.199-27.002,63.207-25.673c35.372,1.88,65.958,29.358,71.958,64.229c2.214,12.864,1.554,25.511-2.279,37.989 c-0.106,0.344-0.296,0.662-0.447,0.992c-0.766-0.697-0.538-1.638-0.596-2.5c-0.36-5.317-2.937-9.181-7.917-11.024 c-4.863-1.801-9.293-0.789-13,3.034c-0.751,0.775-2.188,3.762-3.662,3.603c0.55-2.278,0.846-3.39,1.056-4.233 c2.634-10.568,2.258-20.998-1.411-31.278c-4.177-11.702-11.719-20.699-22.282-27.098c-8.359-5.064-17.517-7.663-27.322-7.371 c-13.571,0.404-25.426,5.084-35.269,14.634c-8.15,7.908-13.187,17.414-15.159,28.571c-1.296,7.336-0.833,14.609,0.808,21.838 c0.177,0.779,0.327,1.751,0.536,2.777c-1.143,0.433-1.878-0.935-2.429-1.552c-3.489-3.908-8.639-5.392-13.262-3.796 c-5.104,1.763-7.983,5.769-8.235,11.427C12.622,118.526,12.786,119.396,11.995,119.97z" fill="#19B855"/>
  <path d="M159.91,123.271c-2.427,7.645-6.42,14.473-11.318,20.731c-13.304,17-30.72,27.132-52.113,29.968 c-32.182,4.267-63.818-12.17-79.005-40.824c-1.79-3.377-3.059-7.03-4.569-10.555c-0.881-4.21,1.476-9.372,5.216-11.806 c6.364-4.142,15.049-2.634,19.231,3.18c1.999,3.543,3.523,7.332,5.821,10.734c7.742,11.459,18.283,19.059,31.729,22.018 c18.062,3.975,34.03-0.503,47.584-13.251c5.327-5.011,9.335-10.896,12.111-17.642c0.255-0.619,0.576-1.203,0.988-1.736 c3.568-4.315,8.061-6.443,13.672-5.328c5.259,1.046,8.796,4.254,10.62,9.32C160.501,119.81,160.454,121.537,159.91,123.271z" fill="#F7B516"/>
  <path d="M184,155.971c-0.05,7.057-5.662,12.648-12.724,12.676c-7.003,0.027-12.818-5.852-12.773-12.913 c0.046-7.23,5.82-12.831,13.126-12.732C178.591,143.096,184.05,148.818,184,155.971z" fill="#F7B516"/>
  <path d="M37.471,114.176c-5.91-7.567-16.32-6.329-21.063-1.121c-2.472,2.714-3.541,5.914-3.502,9.535 c-0.303-0.874-0.607-1.747-0.91-2.621c-0.131-4.344,0.633-8.308,4.012-11.501c5.274-4.983,15.343-3.941,19.633,1.911 c0.44,0.44,0.44,0.44,0.676,0.716C36.96,112.37,36.939,112.789,37.471,114.176z" fill="#299249"/>
  <path d="M159.91,123.271c-0.119-6.726-2.893-11.145-8.339-13.281c-5.545-2.176-11.482-0.494-16.353,4.624 c0.416-0.895,0.768-1.405,1.438-2.411c2.164-2.181,4.005-4.693,7.149-5.738c8.702-2.894,17.14,3.64,16.981,12.24 c-0.012,0.667,0.009,1.334,0.015,2.001C160.504,121.56,160.207,122.415,159.91,123.271z" fill="#299249"/>
</svg>
