<svg width="48" height="48" viewBox="0 0 192 192" xmlns="http://www.w3.org/2000/svg">
  <g fill="#2f3542">
    <path d="M45.564 165.735H25.222v-19.637l50.44-50.461-50.586-50.608v-20.33c.061-.068.119-.155.198-.212a.49.49 0 0 1 .26-.104c6.421-.005 12.842-.004 19.529-.004l50.616 50.638 50.524-50.546h20.104v20.38L116.21 94.969c0 .323-.012.427.004.527.014.092.034.204.094.264 16.644 16.659 33.293 33.314 50.001 50.029v19.841h-19.934l-50.048-50.072-.305-.001c-.102 0-.247-.042-.298.009-16.727 16.72-33.446 33.447-50.16 50.169z"/>
    <path d="M8 184v-42.634h11.985c-.04-.042.043.023.096.108a.536.536 0 0 1 .093.265c.004 9.975.004 19.95.004 30.02H171.65c-.035.03.053-.025.111-.103.054-.074.109-.171.109-.258.005-9.977.005-19.955.005-30.036h12.083V184H8z"/>
    <path d="M184 49.411h-12.037V20.24H20.282v28.836c-.17.159-.236.242-.321.294a.536.536 0 0 1-.265.093c-3.856.005-7.712.004-11.66.004V7.999L184 8v41.411z"/>
  </g>
</svg>
