<svg width="48" height="48" viewBox="0 0 192 192" xmlns="http://www.w3.org/2000/svg">
  <path d="M184,169.986c0,7.74-6.274,14.014-14.014,14.014H22.014C14.274,184,8,177.726,8,169.986V22.014C8,14.274,14.274,8,22.014,8 h147.971C177.726,8,184,14.274,184,22.014V169.986z"/>
  <path d="M58.017,136.712c1.919-1.777,3.625-3.366,5.342-4.944c1.475-1.356,2.975-2.684,4.435-4.054 c0.769-0.722,1.451-0.877,2.416-0.233c6.502,4.339,13.646,6.929,21.441,7.658c6.114,0.572,12.106,0.45,17.681-2.709 c5.988-3.393,8.615-9.332,6.744-15.661c-0.74-2.503-2.26-4.471-4.288-6.072c-4.675-3.691-10.255-5.487-15.714-7.556 c-6.791-2.573-13.66-4.985-20.293-7.923c-5.58-2.472-10.131-6.425-13.297-11.78c-5.083-8.599-3.716-20.384,3.043-27.809 c5.709-6.271,12.927-9.703,21.099-10.853c11.368-1.6,22.633-0.88,33.377,3.626c3.03,1.271,5.861,3.013,9.154,4.732 c-1.3,1.182-2.214,2.005-3.12,2.838c-2.191,2.015-4.384,4.027-6.562,6.055c-0.804,0.749-1.536,0.978-2.566,0.263 c-6.348-4.406-13.559-6.043-21.129-6.074c-6.289-0.026-11.95,1.835-16.319,6.71c-4.604,5.137-4.227,13.348,1.194,17.633 c2.794,2.209,5.94,4.168,9.222,5.524c6.552,2.707,13.329,4.866,19.974,7.355c5.545,2.077,10.82,4.687,15.428,8.49 c5.175,4.271,7.843,9.778,8.561,16.435c1.302,12.072-6.497,20.539-15.368,25.083c-7.06,3.616-14.579,4.719-22.447,4.534 c-8.008-0.189-15.875-0.975-23.471-3.646C67.452,142.54,62.758,139.971,58.017,136.712z" fill="#FFFFFF"/>
</svg>
