<svg width="48" height="48" viewBox="0 0 192 192" xmlns="http://www.w3.org/2000/svg">
  <path d="M123.414,118.292h-20.659 c-5.394,0-9.186-1.531-11.381-4.606c-2.195-3.075-3.298-8.364-3.298-15.874c0-8.652,1.147-14.874,3.442-18.66 c2.287-3.791,6.039-5.677,11.238-5.677h14.086c3.585,0,6.493-3.289,6.573-7.368v-4.318h-20.898c-9.624,0-16.727,2.878-21.312,8.635 c-4.581,5.757-6.872,14.685-6.872,26.789c0,6.234,0.765,11.593,2.295,16.079c1.542,4.481,3.832,8.121,6.896,10.912 c2.362,2.176,4.88,3.719,7.569,4.636c2.681,0.916,6.366,1.372,11.054,1.372h14.691c3.633,0,6.577-3.376,6.577-7.539V118.292z M43.804,130.23c1.972,0,3.669-1.318,4.47-3.222L72.08,61.77h-9.537c-2.203,0-4.091,1.41-5.099,3.473l-17.181,47.52L23.536,65.326 c-0.996-2.104-2.912-3.556-5.151-3.556H8l26.081,68.461H43.804z M184,122.676V96.313c0-3.535-2.39-6.401-5.41-6.682l-24.316-0.008 v12.1h16.835v16.108h-14.15c-4.96,0-8.569-1.678-10.819-5.029s-3.378-8.765-3.378-16.246c0-8.008,1.135-13.84,3.406-17.501 c2.259-3.657,5.856-5.489,10.792-5.489h20.774c3.49-0.192,6.266-3.477,6.266-7.518v-4.259h-27.041 c-9.596,0-16.695,2.883-21.292,8.661c-4.589,5.77-6.892,14.69-6.892,26.76c0,6.234,0.765,11.598,2.303,16.083 c1.534,4.489,3.824,8.121,6.892,10.912c2.326,2.138,4.832,3.678,7.501,4.606c2.669,0.937,6.493,1.402,11.489,1.402h20.46 C181.056,130.211,184,126.835,184,122.676" style="fill:#df2422"/>
</svg>
