<svg width="48" height="48" viewBox="0 0 192 192" xmlns="http://www.w3.org/2000/svg">
  <linearGradient id="a" gradientUnits="userSpaceOnUse" x1="1582.8986" y1="-265.1014" x2="865.1014" y2="-982.8986" gradientTransform="matrix(0.25 0 0 -0.25 -210 -60)">
    <stop offset="0" style="stop-color:#57019B"/>
    <stop offset="1" style="stop-color:#E700C0"/>
  </linearGradient>
  <path style="fill:url(#a)" d="M184,146.897C184,167.388,167.388,184,146.897,184H45.103C24.612,184,8,167.388,8,146.897 V45.103C8,24.612,24.612,8,45.103,8h101.794C167.388,8,184,24.612,184,45.103V146.897z"/>
  <g>
    <polygon style="fill:#FFFFFF" points="47.823,125.504 32.019,66.475 42.392,66.475 54.529,111.809 67.547,66.475 77.212,66.475 90.277,112.061 102.476,66.491 112.849,66.475 97.03,125.504 85.003,125.488 72.379,81.398 59.755,125.504"/>
    <path style="fill:#FFFFFF" d="M142.283,116.406c4.568-0.199,8.11-4.064,7.911-8.633c-0.187-4.289-3.622-7.724-7.911-7.911 H126.7v16.544H142.283z M126.7,75.574v15.505h13.742c4.282-0.193,7.596-3.82,7.403-8.102c-0.181-4.011-3.392-7.222-7.403-7.403 H126.7z M159.976,108.63c0.111,4.581-1.78,8.984-5.179,12.058c-3.399,3.205-7.923,4.941-12.593,4.832h-25.186V66.491h23.423 c4.54-0.074,8.931,1.619,12.247,4.722c3.303,2.952,5.144,7.204,5.037,11.633c0.159,4.765-2.089,9.29-5.982,12.042 c5.149,2.619,8.347,7.951,8.233,13.726V108.63z"/>
  </g>
</svg>
