<svg fill="#73899d" width="48" height="48" viewBox="0 0 192 192" xmlns="http://www.w3.org/2000/svg">
  <path d="M8.183 138.167V8.184h176v176h-17.417c-.512-5.723-3.098-10.532-6.669-14.922 8.872-11.234 9.13-22.46.011-33.658 8.886-11.268 9.095-22.492.064-33.571 1.123-1.71 2.264-3.266 3.215-4.931 3.646-6.384 4.61-13.059 1.945-20.064-1.648-4.331-4.326-7.985-7.543-11.264-5.625-5.734-12.289-10.03-19.329-13.772-13.218-7.027-27.261-11.965-41.553-16.257-.219-.066-.455-.074-.743-.119v7.147c.389.11.734.218 1.084.306 9.922 2.502 19.746 5.325 29.329 8.937 7.299 2.751 14.425 5.87 21.056 10.022 4.085 2.558 7.892 5.452 10.919 9.262 4.853 6.107 5.083 12.681.654 19.105-1.427 2.069-3.13 3.887-5.035 5.564-.226-.161-.405-.273-.566-.407-5.95-4.913-12.57-8.754-19.473-12.136-11.937-5.849-24.445-10.186-37.144-14.018-.245-.074-.51-.083-.815-.129v7.149c.488.138.921.272 1.361.382 10.755 2.705 21.387 5.806 31.714 9.883 7.402 2.922 14.592 6.264 21.149 10.837.315.22.609.47 1.01.782-8.353 6.292-17.636 10.52-27.181 14.3-9.162-3.767-18.487-6.964-28.059-9.781v7.276c6.545 1.666 13.032 3.363 19.395 5.527-.385.232-.754.37-1.128.495-17.628 5.919-35.671 10.228-53.912 13.718-9.021 1.726-18.084 3.241-27.15 4.719-6.174 1.006-12.385 1.78-18.58 2.658-2.201.312-4.405.628-6.609.943z"/>
  <path d="M96.023 136.401c.026 1.953.053 3.905.077 5.858.006.455.001.909.001 1.379 6.585 1.838 13.097 3.656 19.609 5.473-.004.082-.007.163-.011.245-1.233.415-2.462.841-3.699 1.244-12.927 4.207-26.083 7.547-39.361 10.43-13.214 2.869-26.516 5.266-39.883 7.286-8.175 1.236-16.38 2.274-24.572 3.4v-16.133c10.438-1.741 20.895-3.382 31.311-5.249 13.456-2.413 26.782-5.444 39.979-9.014 5.211-1.41 10.377-2.984 15.56-4.492.343-.1.663-.282.993-.426l-.004-.001z"/>
  <path d="M38.983 184.183c4.156-.84 8.319-1.649 12.468-2.525 19.4-4.097 38.574-9.018 57.247-15.758 7.99-2.884 15.83-6.122 23.42-9.948.51-.257.964-.416 1.552-.158 5.827 2.557 11.518 5.361 16.741 9.035.274.193.542.396.808.602.043.033.059.1.125.221-8.242 6.217-17.529 10.446-27.117 14.248-9.128-3.746-18.457-6.959-28.054-9.774v7.177c6.495 1.814 12.948 3.617 19.402 5.42-.004.085-.007.17-.011.255-1.021.402-2.043.804-3.064 1.206-24.506-.001-49.011-.001-73.517-.001z"/>
  <path d="M142.017 184.183c4.588-2.858 9.031-5.916 12.997-9.611.999-.93 1.878-1.988 2.881-3.06 1.537 1.721 2.601 3.44 3.389 5.33.983 2.359 1.318 4.806.9 7.341h-20.167z"/>
  <path d="M96.026 136.402c.444-.1.898-.165 1.33-.304 12.021-3.849 23.811-8.28 35.106-13.955.163-.082.335-.146.568-.247 6.371 2.73 12.598 5.792 18.413 10.032-8.348 6.295-17.613 10.524-27.213 14.319-9.196-3.796-18.645-6.986-28.208-9.847l.004.002z"/>
  <path d="M154.269 129.562c-2.705-1.928-5.211-3.833-7.838-5.555-2.623-1.721-5.366-3.259-8.16-4.939 7.168-4.1 13.975-8.646 19.745-14.727 1.688 1.955 2.966 4.041 3.713 6.427.844 2.696.867 5.418.036 8.12-1.349 4.39-4.262 7.677-7.496 10.674z"/>
  <path d="M154.141 163.311c-4.912-4.129-10.237-7.451-15.962-10.53 7.26-4.167 14.063-8.706 19.836-14.787.365.449.7.828.999 1.234 2.198 2.987 3.623 6.267 3.281 10.042-.149 1.646-.53 3.33-1.14 4.864-1.453 3.654-4.052 6.494-7.014 9.177z"/>
</svg>
