<!-- content_copy_FILL0_wght400_GRAD-25_opsz24.svg -->
<svg viewBox="0 96 960 960" xmlns="http://www.w3.org/2000/svg">
  <path d="M208 962q-30.938 0-52.969-22.031Q133 917.938 133 887V379q0-15.5 11-26.5t26.5-11q15.5 0 26.5 11t11 26.5v508h389.5q15.5 0 26.5 11t11 26.5q0 15.5-11 26.5t-26.5 11H208Zm150-150q-30.938 0-52.969-22.031Q283 767.938 283 737V265q0-30.938 22.031-52.969Q327.062 190 358 190h354.5q30.938 0 52.969 22.031Q787.5 234.062 787.5 265v472q0 30.938-22.031 52.969Q743.438 812 712.5 812H358Zm0-75h354.5V265H358v472Zm0 0V265v472Z"/>
</svg>
