<!-- crop_free_FILL0_wght300_GRAD0_opsz24.svg -->
<svg viewBox="0 96 960 960" xmlns="http://www.w3.org/2000/svg">
  <path d="M170.001 456q-12.769 0-21.384-8.615-8.616-8.615-8.616-21.384V308.309q0-30.308 21-51.308t51.308-21h117.692q12.769 0 21.384 8.616Q360 253.232 360 266.001t-8.615 21.384Q342.77 296 330.001 296H212.309q-5.385 0-8.847 3.462-3.462 3.462-3.462 8.847v117.692q0 12.769-8.615 21.384T170.001 456Zm42.308 459.999q-30.308 0-51.308-21t-21-51.308V725.999q0-12.769 8.616-21.384Q157.232 696 170.001 696t21.384 8.615Q200 713.23 200 725.999v117.692q0 5.385 3.462 8.847 3.462 3.462 8.847 3.462h117.692q12.769 0 21.384 8.615T360 885.999q0 12.769-8.615 21.384-8.615 8.616-21.384 8.616H212.309Zm417.69 0q-12.769 0-21.384-8.616Q600 898.768 600 885.999t8.615-21.384Q617.23 856 629.999 856h117.692q5.385 0 8.847-3.462 3.462-3.462 3.462-8.847V725.999q0-12.769 8.615-21.384T789.999 696q12.769 0 21.384 8.615 8.616 8.615 8.616 21.384v117.692q0 30.308-21 51.308t-51.308 21H629.999Zm160-459.999q-12.769 0-21.384-8.615T760 426.001V308.309q0-5.385-3.462-8.847-3.462-3.462-8.847-3.462H629.999q-12.769 0-21.384-8.615T600 266.001q0-12.769 8.615-21.384 8.615-8.616 21.384-8.616h117.692q30.308 0 51.308 21t21 51.308v117.692q0 12.769-8.616 21.384Q802.768 456 789.999 456Z"/>
</svg>
