<!-- favorite_FILL0_wght300_GRAD0_opsz24.svg -->
<svg viewBox="0 96 960 960" xmlns="http://www.w3.org/2000/svg">
  <path d="m431.385 865.691-57.845-52.615q-106.385-97-189.962-190.577Q100.001 528.922 100.001 422q0-85.153 57.423-142.576Q214.847 222.001 300 222.001q48.384 0 95.577 22.308 47.192 22.308 84.423 72.462 37.231-50.154 84.423-72.462 47.193-22.308 95.577-22.308 85.153 0 142.576 57.423Q859.999 336.847 859.999 422q0 108.076-85 202.73T585.46 813.691l-56.845 51.615q-20.692 19.308-48.615 19.5-27.923.192-48.615-19.115Zm19.846-488.152q-32.461-49.462-68.346-72.5Q347 282 300 282q-60 0-100 40t-40 100q0 48.154 31.038 100.692 31.038 52.538 77.922 104.46 46.885 51.923 101.577 101.462 54.692 49.538 101.385 92.078 3.462 3.077 8.078 3.077t8.078-3.077q46.693-42.54 101.385-92.078 54.692-49.539 101.577-101.462 46.884-51.922 77.922-104.46Q800 470.154 800 422q0-60-40-100t-100-40q-47 0-82.885 23.039-35.885 23.038-68.346 72.5-5.077 7.692-12.769 11.539-7.693 3.846-16 3.846t-16-3.846q-7.692-3.847-12.769-11.539ZM480 553.461Z"/>
</svg>
