<!-- image_FILL0_wght300_GRAD0_opsz24.svg -->
<svg viewBox="0 96 960 960" xmlns="http://www.w3.org/2000/svg">
  <path d="M306.925 765.999h349.227q11.615 0 16.846-10.23 5.231-10.231-2-19.462l-94.999-126.614q-5.615-7.23-14.653-7.23-9.039 0-14.654 7.23l-97.461 127.076-65.153-83.614q-5.616-7.231-14.654-7.038-9.039.192-14.654 7.423l-62.306 82.767q-7.231 9.231-2 19.462 5.23 10.23 16.461 10.23Zm-94.616 150q-30.308 0-51.308-21t-21-51.308V308.309q0-30.308 21-51.308t51.308-21h535.382q30.308 0 51.308 21t21 51.308v535.382q0 30.308-21 51.308t-51.308 21H212.309Zm0-59.999h535.382q4.616 0 8.463-3.846 3.846-3.847 3.846-8.463V308.309q0-4.616-3.846-8.463-3.847-3.846-8.463-3.846H212.309q-4.616 0-8.463 3.846-3.846 3.847-3.846 8.463v535.382q0 4.616 3.846 8.463 3.847 3.846 8.463 3.846ZM200 296V856 296Z"/>
</svg>
