<!-- Adapted from:
image_FILL0_wght300_GRAD0_opsz24.svg
media_link_FILL0_wght400_GRAD-25_opsz24.svg -->
<svg viewBox="0 0 192 192" xmlns="http://www.w3.org/2000/svg">
  <path d="M42.462,164c-4.041,0-7.462-1.4-10.262-4.2c-2.8-2.8-4.2-6.221-4.2-10.262V42.462C28,38.421,29.4,35,32.2,32.2 C35,29.4,38.421,28,42.462,28h107.076c4.041,0,7.462,1.4,10.262,4.2s4.2,6.221,4.2,10.262v107.076c0,4.041-1.4,7.462-4.2,10.262 s-6.221,4.2-10.262,4.2C149.538,164,42.462,164,42.462,164z M42.462,152h107.076c0.615,0,1.18-0.256,1.693-0.769 c0.513-0.513,0.769-1.077,0.769-1.693V42.462c0-0.615-0.256-1.18-0.769-1.693c-0.513-0.513-1.077-0.769-1.693-0.769H42.462 c-0.615,0-1.18,0.256-1.693,0.769C40.256,41.282,40,41.846,40,42.462v107.076c0,0.615,0.256,1.18,0.769,1.693 C41.282,151.744,41.846,152,42.462,152z M40,40v112V40z"/>
  <path d="M80,118.5c-6.25,0-11.563-2.189-15.938-6.568c-4.375-4.378-6.562-9.695-6.562-15.95c0-6.255,2.187-11.566,6.562-15.932 C68.437,75.683,73.75,73.5,80,73.5h4c1.589,0,2.903,0.521,3.942,1.562c1.039,1.041,1.558,2.358,1.558,3.95 c0,1.592-0.519,2.905-1.558,3.938C86.903,83.983,85.589,84.5,84,84.5h-4c-3.194,0-5.91,1.119-8.146,3.356 c-2.236,2.237-3.354,4.954-3.354,8.15c0,3.196,1.118,5.911,3.354,8.144c2.236,2.233,4.951,3.35,8.146,3.35h4 c1.589,0,2.903,0.521,3.942,1.562c1.039,1.041,1.558,2.358,1.558,3.95c0,1.592-0.519,2.905-1.558,3.938 c-1.039,1.033-2.353,1.55-3.942,1.55H80z"/>
  <path d="M112,118.5h-4c-1.589,0-2.903-0.521-3.942-1.562c-1.039-1.041-1.558-2.358-1.558-3.95c0-1.592,0.519-2.905,1.558-3.938 c1.039-1.033,2.353-1.55,3.942-1.55h4c3.194,0,5.91-1.119,8.146-3.356c2.236-2.237,3.354-4.954,3.354-8.15 c0-3.196-1.118-5.911-3.354-8.144c-2.236-2.233-4.951-3.35-8.146-3.35h-4c-1.589,0-2.903-0.521-3.942-1.562 c-1.039-1.041-1.558-2.358-1.558-3.95c0-1.592,0.519-2.905,1.558-3.938c1.039-1.033,2.353-1.55,3.942-1.55h4 c6.25,0,11.563,2.189,15.938,6.568c4.375,4.378,6.562,9.695,6.562,15.95c0,6.255-2.187,11.566-6.562,15.932 C123.563,116.317,118.25,118.5,112,118.5z"/>
  <path d="M106,101.5H86c-1.589,0-2.903-0.521-3.942-1.562c-1.039-1.041-1.558-2.358-1.558-3.95c0-1.592,0.519-2.905,1.558-3.938 c1.039-1.033,2.353-1.55,3.942-1.55h20c1.589,0,2.903,0.521,3.942,1.562c1.039,1.041,1.558,2.358,1.558,3.95 c0,1.592-0.519,2.905-1.558,3.938C108.903,100.983,107.589,101.5,106,101.5z"/>
</svg>
