<!-- image_FILL0_wght400_GRAD-25_opsz24.svg -->
<svg viewBox="0 96 960 960" xmlns="http://www.w3.org/2000/svg">
  <path d="M204 927q-30.938 0-52.969-22.031Q129 882.938 129 852V300q0-30.938 22.031-52.969Q173.062 225 204 225h552q30.938 0 52.969 22.031Q831 269.062 831 300v552q0 30.938-22.031 52.969Q786.938 927 756 927H204Zm0-75h552V300H204v552Zm0 0V300v552Zm81.5-79h389.806Q687 773 692.5 762.75q5.5-10.25-2-19.75L583 600q-5.654-7.5-15.077-7.5T553 600L450 737l-73-96.5q-5.654-7.5-15.077-7.5T347 640.5l-76.364 102.427Q263 752.5 268.625 762.75T285.5 773Z"/>
</svg>
