<!-- Adapted from:
ios_share_FILL0_wght300_GRAD0_opsz24.svg -->
<svg viewBox="0 0 192 192" xmlns="http://www.w3.org/2000/svg">
  <path d="M96,116.107c-1.703,0-3.128-0.574-4.277-1.723C90.575,113.236,90,111.81,90,110.108V27.861L79.338,38.523 c-1.108,1.108-2.467,1.661-4.077,1.661c-1.61,0-3.036-0.62-4.277-1.861c-1.159-1.241-1.739-2.667-1.739-4.277 c0-1.61,0.58-2.995,1.739-4.154L90.939,9.939c0.667-0.667,1.436-1.174,2.308-1.523c0.872-0.349,1.79-0.523,2.754-0.523 c0.964,0,1.882,0.174,2.754,0.523c0.872,0.349,1.641,0.856,2.308,1.523l20.031,20.031c1.19,1.19,1.785,2.61,1.785,4.261 s-0.621,3.056-1.862,4.215c-1.241,1.159-2.667,1.738-4.277,1.738c-1.61,0-2.995-0.579-4.154-1.738L102,27.861v82.246 c0,1.703-0.574,3.128-1.723,4.277C99.128,115.533,97.703,116.107,96,116.107z M50.462,167.107c-4.041,0-7.462-1.4-10.262-4.2 c-2.8-2.8-4.2-6.221-4.2-10.262V69.569c0-4.041,1.4-7.462,4.2-10.262c2.8-2.8,6.221-4.2,10.262-4.2h14.461 c1.703,0,3.128,0.574,4.277,1.723c1.149,1.149,1.723,2.574,1.723,4.277c0,1.703-0.574,3.128-1.723,4.277 c-1.149,1.149-2.574,1.723-4.277,1.723H50.462c-0.615,0-1.18,0.256-1.693,0.769C48.256,68.39,48,68.954,48,69.569v83.076 c0,0.615,0.256,1.18,0.769,1.693c0.513,0.513,1.077,0.769,1.693,0.769h91.076c0.615,0,1.18-0.256,1.693-0.769 c0.513-0.513,0.769-1.077,0.769-1.693V69.569c0-0.615-0.256-1.18-0.769-1.693c-0.513-0.513-1.077-0.769-1.693-0.769h-14.461 c-1.703,0-3.128-0.574-4.277-1.723c-1.149-1.149-1.723-2.574-1.723-4.277c0-1.703,0.574-3.128,1.723-4.277 c1.149-1.149,2.574-1.723,4.277-1.723h14.461c4.041,0,7.462,1.4,10.262,4.2c2.8,2.8,4.2,6.221,4.2,10.262v83.076 c0,4.041-1.4,7.462-4.2,10.262c-2.8,2.8-6.221,4.2-10.262,4.2L50.462,167.107L50.462,167.107z"/>
</svg>
