<!-- Adapted from:
ios_share_FILL0_wght400_GRAD-25_opsz24.svg -->
<svg viewBox="0 0 192 192" xmlns="http://www.w3.org/2000/svg">
  <path d="M95.95,115.7c-2.067,0-3.833-0.733-5.3-2.2s-2.2-3.233-2.2-5.3V29.1l-7.8,7.8c-1.467,1.467-3.2,2.167-5.2,2.1 s-3.733-0.833-5.2-2.3c-1.467-1.533-2.2-3.317-2.2-5.35s0.724-3.774,2.172-5.222l20.54-20.54c0.658-0.658,1.444-1.171,2.357-1.538 c0.913-0.367,1.857-0.55,2.83-0.55c0.974,0,1.917,0.183,2.83,0.55c0.913,0.367,1.7,0.88,2.36,1.541L121.75,26.2 c1.467,1.478,2.2,3.264,2.2,5.359c0,2.094-0.733,3.841-2.2,5.241c-1.533,1.467-3.317,2.2-5.35,2.2c-2.033,0-3.783-0.733-5.25-2.2 l-7.7-7.7v79.1c0,2.067-0.733,3.833-2.2,5.3C99.783,114.967,98.017,115.7,95.95,115.7z M48.75,167.5 c-4.125,0-7.656-1.469-10.594-4.406c-2.937-2.937-4.406-6.469-4.406-10.594V65.8c0-4.125,1.469-7.656,4.406-10.594 S44.625,50.8,48.75,50.8h17.2c2.067,0,3.833,0.733,5.3,2.2s2.2,3.233,2.2,5.3s-0.733,3.833-2.2,5.3s-3.233,2.2-5.3,2.2h-17.2v86.7 h94.5V65.8h-17.3c-2.067,0-3.833-0.733-5.3-2.2c-1.467-1.467-2.2-3.233-2.2-5.3s0.733-3.833,2.2-5.3 c1.467-1.467,3.233-2.2,5.3-2.2h17.3c4.125,0,7.656,1.469,10.594,4.406c2.937,2.937,4.406,6.469,4.406,10.594v86.7 c0,4.125-1.469,7.656-4.406,10.594c-2.937,2.937-6.469,4.406-10.594,4.406H48.75z"/>
</svg>
