<svg fill="#454545" width="24" height="24" viewBox="0 0 192 192" xmlns="http://www.w3.org/2000/svg">
  <path d="M48,168c-4.4,0-8.165-1.565-11.296-4.696C33.568,160.168,32,156.4,32,152V64 c0-4.4,1.568-8.168,4.704-11.304C39.835,49.565,43.6,48,48,48h16c2.267,0,4.168,0.765,5.704,2.296C71.235,51.832,72,53.733,72,56 s-0.765,4.165-2.296,5.696C68.168,63.232,66.267,64,64,64H48l0,0l0,0v88l0,0l0,0h96l0,0l0,0V64l0,0l0,0h-16 c-2.267,0-4.165-0.768-5.696-2.304C120.768,60.165,120,58.267,120,56s0.768-4.168,2.304-5.704C123.835,48.765,125.733,48,128,48 h16c4.4,0,8.168,1.565,11.304,4.696C158.435,55.832,160,59.6,160,64v88c0,4.4-1.565,8.168-4.696,11.304 C152.168,166.435,148.4,168,144,168H48z"/>
  <path d="M87.9,74v27.396c0,2.267,0.768,4.165,2.304,5.696c1.531,1.536,3.429,2.304,5.696,2.304 s4.168-0.768,5.704-2.304c1.531-1.531,2.296-3.429,2.296-5.696V74H87.9z"/>
  <path d="M122.3,29L101.5,8.2c-0.667-0.667-1.499-1.2-2.496-1.6C98.001,6.2,96.966,6,95.9,6 s-2.099,0.2-3.096,0.6C91.801,7,90.966,7.533,90.3,8.2L69.5,29c-1.467,1.467-2.2,3.299-2.2,5.496c0,2.203,0.733,4.104,2.2,5.704 c1.6,1.6,3.501,2.4,5.704,2.4c2.197,0,4.029-0.733,5.496-2.2l7.2-7.2v44.004h16V33.2l7.2,7.2c1.467,1.467,3.301,2.2,5.504,2.2 c2.197,0,4.096-0.733,5.696-2.2c1.6-1.467,2.4-3.333,2.4-5.6S123.9,30.6,122.3,29z"/>
</svg>
