<!-- link_FILL0_wght300_GRAD0_opsz24.svg -->
<svg viewBox="0 96 960 960" xmlns="http://www.w3.org/2000/svg">
  <path d="M280 757.537q-75.338 0-128.438-53.093-53.1-53.093-53.1-128.422t53.1-128.444q53.1-53.115 128.438-53.115h122.308q12.75 0 21.374 8.629 8.625 8.628 8.625 21.384 0 12.755-8.625 21.37-8.624 8.615-21.374 8.615H280q-50.385 0-85.962 35.577-35.577 35.577-35.577 85.962 0 50.385 35.577 85.962 35.577 35.577 85.962 35.577h122.308q12.75 0 21.374 8.628 8.625 8.629 8.625 21.384 0 12.756-8.625 21.371-8.624 8.615-21.374 8.615H280Zm80-151.538q-12.75 0-21.374-8.628-8.625-8.629-8.625-21.384 0-12.756 8.625-21.371 8.624-8.615 21.374-8.615h240q12.75 0 21.375 8.628 8.624 8.629 8.624 21.384 0 12.756-8.624 21.371-8.625 8.615-21.375 8.615H360Zm197.692 151.538q-12.75 0-21.374-8.629-8.625-8.628-8.625-21.384 0-12.755 8.625-21.37 8.624-8.615 21.374-8.615H680q50.385 0 85.962-35.577 35.577-35.577 35.577-85.962 0-50.385-35.577-85.962-35.577-35.577-85.962-35.577H557.692q-12.75 0-21.374-8.628-8.625-8.629-8.625-21.384 0-12.756 8.625-21.371 8.624-8.615 21.374-8.615H680q75.338 0 128.438 53.093 53.099 53.093 53.099 128.422t-53.099 128.444q-53.1 53.115-128.438 53.115H557.692Z"/>
</svg>
