<!-- open_in_new_FILL0_wght400_GRAD-25_opsz24.svg -->
<svg viewBox="0 96 960 960" xmlns="http://www.w3.org/2000/svg">
  <path d="M204 927q-30.938 0-52.969-22.031Q129 882.938 129 852V300q0-30.938 22.031-52.969Q173.062 225 204 225h235.5q15.5 0 26.5 11t11 26.5q0 15.5-11 26.5t-26.5 11H204v552h552V616.5q0-15.5 11-26.5t26.5-11q15.5 0 26.5 11t11 26.5V852q0 30.938-22.031 52.969Q786.938 927 756 927H204Zm159.5-234.5q-11-11-11-26.25t10.876-26.126L703.5 300h-114q-15.5 0-26.5-11t-11-26.5q0-15.5 11-26.5t26.5-11H794q15.725 0 26.362 10.638Q831 246.275 831 262v204.5q0 15.5-11 26.5t-26.5 11q-15.5 0-26.5-11t-11-26.5v-114l-341 341Q404.5 704 389.75 704t-26.25-11.5Z"/>
</svg>
