<!-- open_in_new_FILL0_wght300_GRAD0_opsz24.svg -->
<svg viewBox="0 96 960 960" xmlns="http://www.w3.org/2000/svg">
  <path d="M212.309 915.999q-30.308 0-51.308-21t-21-51.308V308.309q0-30.308 21-51.308t51.308-21h222.306q12.769 0 21.384 8.616 8.615 8.615 8.615 21.384t-8.615 21.384Q447.384 296 434.615 296H212.309q-4.616 0-8.463 3.846-3.846 3.847-3.846 8.463v535.382q0 4.616 3.846 8.463 3.847 3.846 8.463 3.846h535.382q4.616 0 8.463-3.846 3.846-3.847 3.846-8.463V621.385q0-12.769 8.615-21.384t21.384-8.615q12.769 0 21.384 8.615 8.616 8.615 8.616 21.384v222.306q0 30.308-21 51.308t-51.308 21H212.309Zm155.384-227.692q-8.692-8.692-8.692-21.076 0-12.385 8.692-21.077L717.847 296H589.999q-12.769 0-21.384-8.615T560 266.001q0-12.769 8.615-21.384 8.615-8.616 21.384-8.616h193.846q15.461 0 25.807 10.347 10.347 10.346 10.347 25.807v193.846q0 12.769-8.616 21.384Q802.768 496 789.999 496t-21.384-8.615Q760 478.77 760 466.001V338.153L408.846 689.307q-8.308 8.308-20.077 8.308-11.769 0-21.076-9.308Z"/>
</svg>
