<!-- open_with_FILL0_wght400_GRAD-25_opsz24.svg -->
<svg viewBox="0 96 960 960" xmlns="http://www.w3.org/2000/svg">
  <path d="M443 822V693q0-15.5 10.75-26.25T480 656q15.5 0 26.25 10.75T517 693v128.5l46.5-47.5q11.5-11.5 27-11.5t27 11.5q11.5 11.5 11.5 27.25t-11.5 27.25l-111 111Q495 951 480 951t-26.5-11.5L341.5 828q-11.5-11.5-11.25-26.75T342 774.5q11.5-11.5 26.75-11.5t26.75 11.5L443 822ZM233.5 611.5 280 658q11.5 11.5 11.5 27T280 712q-11.5 11.5-27 11.5T226 712L115.5 601.5Q104 590 104 575t11.5-26.5L227 437q11-11 26.25-11.25T280 437q11.5 11.5 11.5 26.5T280 490l-47 47h129q15.5 0 26.25 10.75T399 574q0 15.5-10.75 26.5t-26.25 11H233.5Zm493.5 0H597.5q-15.5 0-26-10.5T561 575q0-15.5 10.75-26.25T598 538l128 1-46.5-46.5Q668 481 668.25 465.25T680 438q11.5-11.5 27.25-11.5T734.5 438l110 110.5Q856 560 856 575t-11.5 26.5L733 713q-11 11-26.25 10.75T680 712q-11-11-11-25.75T680 660l47-48.5ZM443 328l-47.5 47Q384 386.5 369 386.25t-26.5-11.75q-11-11.5-11-26.75T343 321l110.5-110.5Q465 199 480 199t26.5 11.5l112 112.5q11 11 11 26t-11 26Q607 386.5 592 386.5T565.5 375L518 328v128.5q0 15.5-11 26.5t-26.5 11q-15.5 0-26.5-11t-11-26.5V328Z"/>
</svg>
