<svg fill="#454545" width="24" height="24" viewBox="0 0 192 192" xmlns="http://www.w3.org/2000/svg">
  <path d="M0,0h192v192H0V0z" fill="none"/>
  <path d="M87.34,104.66c3.12,3.12,8.16,3.12,11.28,0l32.35-32.35c-3.467-4.068-6.569-8.502-10.5-12.06 L87.34,93.38C84.22,96.5,84.22,101.54,87.34,104.66z"/>
  <path d="M160,24h-40c-4.4,0-8,3.6-8,8c0,4.4,3.6,8,8,8h20.72l-32.976,32.976 c3.808,3.729,6.995,8.041,10.545,12.015L152,51.28V72c0,4.4,3.6,8,8,8c4.4,0,8-3.6,8-8V32C168,27.6,164.4,24,160,24z"/>
  <path d="M160,96c-4.4,0-8,3.6-8,8v40c0,4.4-3.6,8-8,8H48c-4.4,0-8-3.6-8-8V48c0-4.4,3.6-8,8-8h40 c4.4,0,8-3.6,8-8c0-4.4-3.6-8-8-8H40c-8.88,0-16,7.2-16,16v112c0,8.8,7.2,16,16,16h112c8.8,0,16-7.2,16-16v-48 C168,99.6,164.4,96,160,96z"/>
</svg>
