<!-- settings_FILL0_wght300_GRAD0_opsz24.svg -->
<svg viewBox="0 96 960 960" xmlns="http://www.w3.org/2000/svg">
  <path d="M540.384 955.999H419.232q-13.462 0-23.308-9.039-9.846-9.038-11.846-22.5l-11.615-90.307q-16.077-5.385-32.962-15.077-16.885-9.693-30.193-20.77l-83.538 35.231q-12.846 5-25.5 1t-19.885-15.846l-60.152-104.768q-7.231-11.846-4.423-25.307 2.807-13.462 13.653-21.692l72.308-54.693q-1.385-8.923-1.962-17.923-.577-9-.577-17.923 0-8.539.577-17.347.577-8.808 1.962-19.269l-72.308-54.693q-10.846-8.23-13.653-21.692-2.808-13.461 4.423-25.307l60.152-103.998q6.616-12.462 19.385-16.154 12.769-3.692 25.615 1.308l83.538 34.846q14.462-11.462 30.885-20.962 16.424-9.501 32.27-15.27l12-90.307q2-13.462 11.846-22.5 9.846-9.039 23.308-9.039h121.152q13.461 0 23.499 9.039 10.039 9.038 12.039 22.5l11.615 90.692q18 6.538 32.578 15.269 14.577 8.731 29.423 20.578l85.077-34.846q12.846-5 25.307-1.193 12.462 3.808 19.693 15.654l60.152 104.383q7.231 11.846 4.423 25.307-2.807 13.462-13.653 21.692l-73.846 55.846q2.154 9.693 2.346 18.116.192 8.423.192 16.962 0 8.154-.384 16.577-.385 8.423-2.77 19.27l73.077 55.077q11.231 7.846 13.846 21.499 2.616 13.654-4.615 25.5L778.23 818.075q-7.231 11.846-20.192 15.962-12.962 4.115-25.808-.885l-82.692-35.231q-14.846 11.847-30.308 20.962-15.462 9.116-31.693 14.885l-11.615 90.692q-2 13.462-12.039 22.5-10.038 9.039-23.499 9.039Zm-59.923-260q49.923 0 84.961-35.038Q600.46 625.922 600.46 576t-35.038-84.961q-35.038-35.038-84.961-35.038-50.537 0-85.268 35.038-34.73 35.039-34.73 84.961t34.73 84.961q34.731 35.038 85.268 35.038Zm0-59.999q-25 0-42.5-17.5t-17.5-42.5q0-25 17.5-42.5t42.5-17.5q25 0 42.5 17.5t17.5 42.5q0 25-17.5 42.5t-42.5 17.5ZM480 576Zm-40 320h78.615L533 788.846q30.615-8 55.961-22.731 25.346-14.73 48.885-37.884L737.231 770l39.384-68-86.769-65.385q5-15.538 6.808-30.461 1.807-14.923 1.807-30.154 0-15.615-1.807-30.154-1.808-14.538-6.808-29.692L777.385 450 738 382l-100.539 42.385q-20.076-21.462-48.115-37.923-28.039-16.462-56.731-23.308L520 256h-79.385l-13.23 106.769q-30.616 7.231-56.539 22.154-25.923 14.923-49.461 38.462L222 382l-39.385 68L269 514.385q-5 14.23-7 29.615-2 15.385-2 32.385Q260 592 262 607q2 15 6.615 29.615l-86 65.385L222 770l99-42q22.769 23.385 48.692 38.308 25.923 14.923 57.308 22.923L440 896Z"/>
</svg>
