<!-- settings_FILL0_wght400_GRAD-25_opsz24.svg -->
<svg viewBox="0 96 960 960" xmlns="http://www.w3.org/2000/svg">
  <path d="M552 966H408q-14.038 0-24.333-9.286-10.295-9.285-12.167-23.214l-12-92.5q-2-.5-14.75-7.75T309 813.5L223.5 849q-13.167 5-26.333.75Q184 845.5 177 833.5L105 708q-7-12-4.25-25.846T114.5 660l75-57q-1-6.475-1-12.487V576q0-6 .25-13t1.25-16l-75-56q-11.5-8.5-14.5-22.279T105 443l72-124.5q7-12.5 20.32-16.5t26.18 1l87 36.5q10-8 22.25-15t26.75-13l12-94q1.872-13.929 12.167-23.214Q393.962 185 408 185h144q14.038 0 24.333 9.286 10.295 9.285 12.167 23.214l12 92.5q14 5.5 25.75 12.75T649 339.5l88-36.5q12.833-5 25.667-.75Q775.5 306.5 783 318.5L855 443q7.5 11.942 4.5 25.721T845 491l-77.5 57.891q1 7.109 1 12.859v28.925q0 6.175-1.5 12.825l76.5 56.5q11.667 8.423 14.583 22.462Q861 696.5 853.5 708.5l-72 124.5q-7 12-20.488 16.25-13.489 4.25-26.512-.75l-85.5-36q-9.5 7.5-20.75 14T600.5 841l-12 92.5q-1.872 13.929-12.167 23.214Q566.038 966 552 966Zm-72.269-255Q535.5 711 575 671.449q39.5-39.55 39.5-95.5 0-55.949-39.536-95.449Q535.429 441 479.5 441q-56.5 0-95.75 39.551-39.25 39.55-39.25 95.5 0 55.949 39.25 95.449t95.981 39.5Zm-.231-75q-25 0-42.5-17.5T419.5 576q0-25 17.5-42.5t42.5-17.5q25 0 42.5 17.5t17.5 42.5q0 25-17.5 42.5T479.5 636Zm0-60.5ZM440.288 891H518l14.5-106.5q30-8 55-22.75T634 725l99.5 42 38.5-67-87-65q4.5-14 6.5-28.84 2-14.841 2-30.16 0-15.5-1.75-29.75T685 517l87-66-37.5-67-101 43q-19.5-21-46-36.5t-55-23L519.571 260H441l-13.5 107q-32 8.5-56 22.25T324 426l-98.5-42-38.5 67 85.5 63.5q-5 16-7 30.5t-2 30.47q0 15.03 1.75 29.53 1.75 14.5 6.75 31l-85 64 38.576 67 97.924-42q23.5 23.5 48.75 38t55.25 22l12.788 106Z"/>
</svg>
