<!-- share_FILL0_wght400_GRAD-25_opsz24.svg -->
<svg viewBox="0 96 960 960" xmlns="http://www.w3.org/2000/svg">
  <path d="M716.882 967q-48.382 0-82.132-33.833Q601 899.333 601 851q0-6.964 1-14.424 1-7.461 3-13.43L324 660q-16.5 15.5-36.952 23.75-20.452 8.25-42.852 8.25-48.696 0-82.446-33.979T128 575.5q0-48.125 33.833-81.812Q195.667 460 244 460q22.646 0 43.323 8T324 491l281-163.146q-2-5.969-3-13.43-1-7.46-1-14.424 0-48.333 33.868-82.167Q668.735 184 717.118 184q48.382 0 82.132 33.688Q833 251.375 833 299.5q0 48.542-33.833 82.521Q765.333 416 717 416q-22.469 0-42.985-8.25Q653.5 399.5 637 384L356 547q2 6.286 3 14.143 1 7.857 1 14.822 0 6.965-1 14.427t-3 13.432L637 767q16.5-15.5 36.952-23.75 20.452-8.25 42.852-8.25 48.696 0 82.446 33.979T833 851.5q0 48.125-33.868 81.812Q765.265 967 716.882 967ZM717 341q17 0 29-12t12-29q0-17-12-29t-29-12q-17 0-29 12t-12 29q0 17 12 29t29 12ZM244 617q17 0 29-12t12-29q0-17-12-29t-29-12q-17 0-29 12t-12 29q0 17 12 29t29 12Zm473 275q17 0 29-12t12-29q0-17-12-29t-29-12q-17 0-29 12t-12 29q0 17 12 29t29 12Zm0-592ZM244 576Zm473 275Z"/>
</svg>
