<!-- share_FILL0_wght300_GRAD0_opsz24.svg -->
<svg viewBox="0 96 960 960" xmlns="http://www.w3.org/2000/svg">
  <path d="M720.045 965.999q-45.814 0-77.929-32.083T610.001 856q0-7.49 1.192-15.514 1.192-8.025 3.577-14.794L318.923 652.461q-15.846 15.769-36.077 24.654-20.231 8.884-42.846 8.884-45.833 0-77.916-32.07t-32.083-77.884q0-45.814 32.083-77.929T240 466.001q22.615 0 42.846 8.884 20.231 8.885 36.077 24.654L614.77 326.308q-2.385-6.769-3.577-14.794-1.192-8.024-1.192-15.514 0-45.833 32.07-77.916t77.884-32.083q45.814 0 77.929 32.07t32.115 77.884q0 45.814-32.083 77.929T720 405.999q-22.615 0-42.846-8.884-20.231-8.885-36.077-24.654L345.23 545.692q2.385 6.769 3.577 14.767 1.192 7.997 1.192 15.461 0 7.465-1.192 15.542t-3.577 14.846l295.847 173.231q15.846-15.769 36.077-24.654 20.231-8.884 42.846-8.884 45.833 0 77.916 32.07t32.083 77.884q0 45.814-32.07 77.929t-77.884 32.115ZM720 346.001q20.846 0 35.424-14.577 14.577-14.578 14.577-35.424t-14.577-35.424Q740.846 245.999 720 245.999t-35.424 14.577Q669.999 275.154 669.999 296t14.577 35.424q14.578 14.577 35.424 14.577Zm-480 280q20.846 0 35.424-14.577 14.577-14.578 14.577-35.424t-14.577-35.424Q260.846 525.999 240 525.999t-35.424 14.577Q189.999 555.154 189.999 576t14.577 35.424q14.578 14.577 35.424 14.577Zm480 280q20.846 0 35.424-14.577 14.577-14.578 14.577-35.424t-14.577-35.424Q740.846 805.999 720 805.999t-35.424 14.577Q669.999 835.154 669.999 856t14.577 35.424q14.578 14.577 35.424 14.577ZM720 296ZM240 576Zm480 280Z"/>
</svg>
