<!-- swap_horiz_FILL0_wght400_GRAD-25_opsz24.svg -->
<svg viewBox="0 96 960 960" xmlns="http://www.w3.org/2000/svg">
  <path d="M651.5 624.5q-11-11-11-26.25t11-26.25l77.5-77.5H480.5q-15.5 0-26.5-11T443 457q0-15.5 11-26.5t26.5-11H729L651.5 342q-11-11-10.75-26.5T652 289q11-11 26-10.75t26 11.25l142 142q5.5 5.5 8 12t2.5 14q0 7.5-2.5 14t-8 12l-142 142q-11 11-26.25 10.5t-26.25-11.5ZM256.5 862l-142-142q-5.5-5.5-8-12t-2.5-14q0-7.5 2.5-14t8-12l142-142q11-11 26.25-11T309 526q11 11 11 26.75t-11 26.75l-77 77h248.5q15.5 0 26.5 11t11 26.5q0 15.5-11 26.5t-26.5 11H232l78 78q11 11 10.75 26t-11.25 26q-11 11-26.5 11.25T256.5 862Z"/>
</svg>
