<!-- swap_vert_FILL0_wght400_GRAD-25_opsz24.svg -->
<svg viewBox="0 96 960 960" xmlns="http://www.w3.org/2000/svg">
  <path d="M561 824V575.5q0-15.5 11-26.5t26.5-11q15.5 0 26.5 11t11 26.5V824l78-77.5q10.5-10.5 25.75-10.75T766.5 747q11.5 10.5 11.5 26t-11.5 27l-142 141q-5.5 5.5-12 8t-14 2.5q-7.5 0-14-2.5t-12-8l-142-142q-10.5-10.5-10.75-25.75T431 746.5q11.5-10.5 26.75-11t26.25 11l77 77.5ZM323.5 327 246 405q-12 12-26.75 11T194 404.5q-11.5-11.5-11.5-26.75t11-26.25L335 210q5.5-5.5 12-8t14-2.5q7.5 0 14 2.5t12 8l142.5 141.5Q540 362 540 377.75T529.5 404q-11.5 11.5-26.75 11.5T476 404l-77.5-77v248.5q0 15.5-11 26.5T361 613q-15.5 0-26.5-11t-11-26.5V327Z"/>
</svg>
