<!-- upload_FILL0_wght300_GRAD0_opsz24.svg -->
<svg viewBox="0 96 960 960" xmlns="http://www.w3.org/2000/svg">
  <path d="M480 720.614q-12.769 0-21.384-8.615t-8.615-21.384V384.614l-76.923 76.923q-8.923 8.923-20.885 9.115-11.961.192-21.884-9.731-9.307-9.307-8.999-21.384.307-12.076 8.999-20.768l124.384-124.384q5.615-5.615 11.846-7.923 6.23-2.307 13.461-2.307t13.461 2.307q6.231 2.308 11.846 7.923l124.384 124.384q8.923 8.922 8.807 21.191-.115 12.269-8.807 20.961-9.308 9.308-21.384 9.616-12.077.307-21.385-9l-76.923-76.923v306.001q0 12.769-8.615 21.384T480 720.614ZM252.309 875.999q-30.308 0-51.308-21t-21-51.308v-77.692q0-12.769 8.616-21.384Q197.232 696 210.001 696t21.384 8.615Q240 713.23 240 725.999v77.692q0 4.616 3.846 8.463 3.847 3.846 8.463 3.846h455.382q4.616 0 8.463-3.846 3.846-3.847 3.846-8.463v-77.692q0-12.769 8.615-21.384T749.999 696q12.769 0 21.384 8.615 8.616 8.615 8.616 21.384v77.692q0 30.308-21 51.308t-51.308 21H252.309Z"/>
</svg>
